<svg width="628" height="608" viewBox="0 0 628 608" fill="none" xmlns="http://www.w3.org/2000/svg">
<g clip-path="url(#clip0_426_865)">
<g filter="url(#filter0_f_426_865)">
<g filter="url(#filter1_f_426_865)">
<path d="M495.233 428.595C497.005 430.935 500.32 431.343 502.639 429.508C504.957 427.672 505.4 424.288 503.629 421.949C501.857 419.609 498.541 419.201 496.223 421.036C493.905 422.872 493.462 426.256 495.233 428.595ZM582.216 359.73C583.987 362.07 587.303 362.478 589.621 360.642C591.94 358.807 592.383 355.423 590.611 353.084C588.84 350.744 585.524 350.336 583.206 352.171C580.887 354.007 580.444 357.391 582.216 359.73ZM500.032 426.066L587.015 357.201L585.812 355.613L498.829 424.478L500.032 426.066Z" fill="url(#paint0_linear_426_865)"/>
</g>
<g filter="url(#filter2_f_426_865)">
<path d="M339.467 601.774C342.044 603.166 345.233 602.16 346.591 599.527C347.949 596.894 346.961 593.632 344.384 592.24C341.807 590.848 338.618 591.853 337.26 594.486C335.902 597.119 336.891 600.382 339.467 601.774ZM372.353 538.004C374.929 539.396 378.119 538.39 379.477 535.757C380.834 533.124 379.846 529.861 377.269 528.469C374.693 527.077 371.503 528.083 370.145 530.716C368.788 533.349 369.776 536.612 372.353 538.004ZM342.8 597.479L375.686 533.709L373.936 532.764L341.051 596.534L342.8 597.479Z" fill="#8900F2"/>
</g>
<path d="M558.171 231.229C557.757 229.815 556.28 229.018 554.871 229.448C553.462 229.878 552.656 231.373 553.07 232.786C553.484 234.199 554.961 234.997 556.37 234.567C557.779 234.137 558.585 232.642 558.171 231.229ZM562.411 194.355C561.997 192.942 560.519 192.145 559.111 192.575C557.702 193.005 556.896 194.499 557.31 195.912C557.724 197.326 559.201 198.123 560.61 197.693C562.018 197.263 562.824 195.768 562.411 194.355ZM556.116 232.06L560.355 195.187L559.365 195.081L555.125 231.954L556.116 232.06Z" fill="#6A00F4"/>
<path d="M553.07 232.786C552.656 231.373 553.462 229.878 554.871 229.448C556.28 229.018 557.757 229.815 558.171 231.229C558.585 232.642 557.779 234.137 556.37 234.567C554.961 234.997 553.484 234.199 553.07 232.786ZM533.326 197.465C532.912 196.051 533.719 194.557 535.127 194.127C536.536 193.697 538.013 194.494 538.427 195.907C538.841 197.321 538.035 198.815 536.626 199.245C535.218 199.675 533.74 198.878 533.326 197.465ZM555.186 232.256L535.442 196.935L536.312 196.437L556.056 231.758L555.186 232.256Z" fill="#6A00F4"/>
<path d="M509.704 263.208C511.034 262.571 511.616 260.971 511.003 259.634C510.39 258.298 508.815 257.731 507.484 258.368C506.154 259.005 505.572 260.605 506.185 261.941C506.798 263.278 508.373 263.845 509.704 263.208ZM536.04 199.082C537.37 198.445 537.952 196.845 537.339 195.509C536.726 194.172 535.151 193.605 533.82 194.242C532.49 194.879 531.908 196.479 532.521 197.816C533.134 199.152 534.709 199.719 536.04 199.082ZM509.053 260.975L535.389 196.85L534.471 196.475L508.135 260.6L509.053 260.975Z" fill="#6A00F4"/>
<path d="M556.098 229.267C554.637 229.13 553.348 230.214 553.218 231.686C553.088 233.159 554.167 234.464 555.627 234.6C557.088 234.737 558.377 233.653 558.507 232.181C558.637 230.708 557.558 229.403 556.098 229.267ZM527.381 247.65C525.92 247.513 524.631 248.597 524.501 250.069C524.371 251.542 525.45 252.847 526.91 252.983C528.371 253.12 529.66 252.036 529.79 250.564C529.92 249.091 528.841 247.786 527.381 247.65ZM555.595 231.509L526.878 249.892L527.413 250.741L556.13 232.358L555.595 231.509Z" fill="#6A00F4"/>
<g filter="url(#filter3_f_426_865)">
<path d="M548.803 431.217C548.389 429.804 546.912 429.007 545.503 429.437C544.095 429.867 543.288 431.361 543.702 432.775C544.116 434.188 545.594 434.985 547.002 434.555C548.411 434.125 549.217 432.631 548.803 431.217ZM501.525 422.229C501.111 420.815 499.633 420.018 498.225 420.448C496.816 420.878 496.01 422.373 496.424 423.786C496.838 425.2 498.315 425.997 499.724 425.567C501.132 425.137 501.938 423.642 501.525 422.229ZM546.35 431.503L499.071 422.515L498.877 423.5L546.156 432.489L546.35 431.503Z" fill="#6A00F4"/>
<path d="M543.702 432.775C543.288 431.361 544.095 429.867 545.503 429.437C546.912 429.007 548.389 429.804 548.803 431.217C549.217 432.631 548.411 434.125 547.002 434.555C545.594 434.985 544.116 434.188 543.702 432.775ZM523.959 397.453C523.545 396.04 524.351 394.545 525.76 394.115C527.168 393.685 528.646 394.483 529.06 395.896C529.473 397.309 528.667 398.804 527.259 399.234C525.85 399.664 524.373 398.867 523.959 397.453ZM545.818 432.245L526.074 396.924L526.944 396.426L546.688 431.747L545.818 432.245Z" fill="#6A00F4"/>
<path d="M517.372 452.364C518.702 451.726 519.284 450.127 518.671 448.79C518.058 447.454 516.483 446.886 515.152 447.524C513.822 448.161 513.24 449.76 513.853 451.097C514.466 452.434 516.041 453.001 517.372 452.364ZM526.672 399.071C528.003 398.434 528.584 396.834 527.971 395.497C527.359 394.161 525.783 393.594 524.452 394.231C523.122 394.868 522.54 396.468 523.153 397.804C523.766 399.141 525.341 399.708 526.672 399.071ZM516.752 450.024L526.052 396.732L525.072 396.57L515.772 449.863L516.752 450.024Z" fill="#6A00F4"/>
<path d="M546.73 429.256C545.27 429.119 543.98 430.202 543.85 431.675C543.72 433.148 544.799 434.452 546.259 434.589C547.72 434.725 549.009 433.642 549.139 432.169C549.269 430.697 548.191 429.392 546.73 429.256ZM518.013 447.638C516.552 447.502 515.263 448.585 515.133 450.058C515.003 451.531 516.082 452.835 517.542 452.972C519.003 453.108 520.292 452.025 520.422 450.552C520.552 449.079 519.473 447.775 518.013 447.638ZM546.227 431.498L517.51 449.881L518.045 450.729L546.763 432.346L546.227 431.498Z" fill="#6A00F4"/>
</g>
<g filter="url(#filter4_f_426_865)">
<path d="M527.051 350.512C528.405 351.071 529.942 350.407 530.485 349.03C531.028 347.652 530.371 346.082 529.017 345.523C527.663 344.963 526.126 345.627 525.583 347.005C525.04 348.383 525.698 349.953 527.051 350.512ZM563.384 318.349C564.737 318.909 566.275 318.245 566.818 316.867C567.36 315.489 566.703 313.919 565.349 313.36C563.996 312.801 562.459 313.465 561.916 314.842C561.373 316.22 562.03 317.79 563.384 318.349ZM528.36 348.399L564.692 316.236L564.041 315.473L527.709 347.636L528.36 348.399Z" fill="#6A00F4"/>
<path d="M529.017 345.523C530.371 346.082 531.028 347.652 530.485 349.03C529.942 350.407 528.405 351.071 527.051 350.512C525.698 349.953 525.04 348.383 525.583 347.005C526.126 345.627 527.663 344.963 529.017 345.523ZM568.307 351.821C569.66 352.38 570.318 353.95 569.775 355.328C569.232 356.706 567.695 357.369 566.341 356.81C564.987 356.251 564.33 354.681 564.873 353.303C565.416 351.925 566.953 351.262 568.307 351.821ZM528.109 347.519L567.399 353.817L567.249 354.814L527.959 348.516L528.109 347.519Z" fill="#6A00F4"/>
<path d="M530.445 312.202C530.106 313.647 530.982 315.102 532.401 315.451C533.819 315.8 535.244 314.912 535.583 313.468C535.922 312.023 535.046 310.568 533.627 310.219C532.208 309.869 530.783 310.757 530.445 312.202ZM565.363 352.941C565.024 354.386 565.9 355.84 567.319 356.19C568.738 356.539 570.163 355.651 570.501 354.206C570.84 352.761 569.964 351.307 568.545 350.957C567.126 350.608 565.702 351.496 565.363 352.941ZM532.641 313.166L567.56 353.905L568.305 353.242L533.386 312.504L532.641 313.166Z" fill="#6A00F4"/>
<path d="M529.846 350.127C530.852 349.055 530.814 347.348 529.761 346.315C528.708 345.282 527.039 345.314 526.033 346.386C525.027 347.459 525.065 349.166 526.119 350.199C527.172 351.232 528.841 351.2 529.846 350.127ZM533.7 315.691C534.705 314.618 534.667 312.911 533.614 311.878C532.561 310.845 530.892 310.877 529.886 311.95C528.88 313.022 528.919 314.729 529.972 315.762C531.025 316.795 532.694 316.763 533.7 315.691ZM528.431 348.317L532.284 313.88L531.302 313.761L527.448 348.197L528.431 348.317Z" fill="#6A00F4"/>
</g>
<g filter="url(#filter5_f_426_865)">
<path d="M469.13 520.93C468.716 519.516 467.238 518.719 465.83 519.149C464.421 519.579 463.615 521.074 464.029 522.487C464.443 523.9 465.92 524.698 467.329 524.268C468.737 523.838 469.544 522.343 469.13 520.93ZM473.369 484.056C472.955 482.643 471.478 481.845 470.069 482.275C468.661 482.706 467.854 484.2 468.268 485.613C468.682 487.027 470.16 487.824 471.568 487.394C472.977 486.964 473.783 485.469 473.369 484.056ZM467.074 521.761L471.314 484.888L470.324 484.782L466.084 521.655L467.074 521.761Z" fill="#6A00F4"/>
<path d="M464.029 522.487C463.615 521.074 464.421 519.579 465.83 519.149C467.238 518.719 468.716 519.516 469.13 520.93C469.544 522.343 468.737 523.838 467.329 524.268C465.92 524.698 464.443 523.9 464.029 522.487ZM444.285 487.165C443.871 485.752 444.677 484.258 446.086 483.828C447.495 483.398 448.972 484.195 449.386 485.608C449.8 487.022 448.994 488.516 447.585 488.946C446.176 489.376 444.699 488.579 444.285 487.165ZM466.144 521.957L446.4 486.636L447.27 486.138L467.014 521.459L466.144 521.957Z" fill="#6A00F4"/>
<path d="M420.662 552.909C421.993 552.272 422.575 550.672 421.962 549.335C421.349 547.999 419.774 547.432 418.443 548.069C417.112 548.706 416.53 550.306 417.143 551.642C417.756 552.979 419.332 553.546 420.662 552.909ZM446.998 488.783C448.329 488.146 448.911 486.546 448.298 485.21C447.685 483.873 446.109 483.306 444.779 483.943C443.448 484.58 442.866 486.18 443.479 487.517C444.092 488.853 445.668 489.42 446.998 488.783ZM420.012 550.676L446.348 486.551L445.43 486.176L419.094 550.301L420.012 550.676Z" fill="#6A00F4"/>
<path d="M467.057 518.968C465.596 518.831 464.307 519.915 464.177 521.387C464.047 522.86 465.125 524.165 466.586 524.301C468.046 524.438 469.336 523.354 469.466 521.882C469.596 520.409 468.517 519.104 467.057 518.968ZM438.339 537.351C436.879 537.214 435.59 538.298 435.46 539.77C435.33 541.243 436.408 542.548 437.869 542.684C439.329 542.82 440.619 541.737 440.749 540.264C440.879 538.792 439.8 537.487 438.339 537.351ZM466.553 521.21L437.836 539.593L438.372 540.442L467.089 522.059L466.553 521.21Z" fill="#6A00F4"/>
</g>
<g filter="url(#filter6_f_426_865)">
<path d="M267.813 571.064C267.399 569.651 265.922 568.854 264.513 569.284C263.105 569.714 262.299 571.208 262.712 572.622C263.126 574.035 264.604 574.832 266.012 574.402C267.421 573.972 268.227 572.478 267.813 571.064ZM272.053 534.191C271.639 532.777 270.162 531.98 268.753 532.41C267.344 532.84 266.538 534.335 266.952 535.748C267.366 537.161 268.843 537.958 270.252 537.528C271.661 537.098 272.467 535.604 272.053 534.191ZM265.758 571.896L269.998 535.022L269.007 534.916L264.768 571.79L265.758 571.896Z" fill="#6A00F4"/>
<path d="M262.713 572.622C262.299 571.208 263.105 569.714 264.513 569.284C265.922 568.854 267.4 569.651 267.813 571.064C268.227 572.478 267.421 573.972 266.012 574.402C264.604 574.832 263.126 574.035 262.713 572.622ZM242.969 537.3C242.555 535.887 243.361 534.392 244.77 533.962C246.178 533.532 247.656 534.33 248.07 535.743C248.484 537.156 247.677 538.651 246.269 539.081C244.86 539.511 243.383 538.714 242.969 537.3ZM264.828 572.092L245.084 536.771L245.954 536.272L265.698 571.594L264.828 572.092Z" fill="#6A00F4"/>
<path d="M219.346 603.043C220.677 602.406 221.259 600.807 220.646 599.47C220.033 598.133 218.457 597.566 217.127 598.203C215.796 598.841 215.214 600.44 215.827 601.777C216.44 603.113 218.016 603.681 219.346 603.043ZM245.682 538.918C247.013 538.281 247.595 536.681 246.982 535.344C246.369 534.008 244.793 533.441 243.463 534.078C242.132 534.715 241.55 536.315 242.163 537.651C242.776 538.988 244.352 539.555 245.682 538.918ZM218.696 600.811L245.031 536.685L244.113 536.31L217.778 600.436L218.696 600.811Z" fill="#6A00F4"/>
<path d="M265.74 569.102C264.28 568.966 262.991 570.049 262.861 571.522C262.731 572.995 263.809 574.299 265.27 574.436C266.73 574.572 268.02 573.489 268.15 572.016C268.28 570.543 267.201 569.239 265.74 569.102ZM237.023 587.485C235.563 587.349 234.273 588.432 234.143 589.905C234.014 591.378 235.092 592.682 236.553 592.819C238.013 592.955 239.302 591.872 239.432 590.399C239.562 588.926 238.484 587.622 237.023 587.485ZM265.237 571.345L236.52 589.728L237.056 590.576L265.773 572.193L265.237 571.345Z" fill="#6A00F4"/>
</g>
<g filter="url(#filter7_f_426_865)">
<path d="M536.241 137.093C535.827 135.679 534.35 134.882 532.941 135.312C531.532 135.742 530.726 137.236 531.14 138.65C531.554 140.063 533.031 140.86 534.44 140.43C535.849 140 536.655 138.506 536.241 137.093ZM537.372 108.861C536.958 107.447 535.481 106.65 534.072 107.08C532.663 107.51 531.857 109.005 532.271 110.418C532.685 111.831 534.162 112.629 535.571 112.198C536.98 111.768 537.786 110.274 537.372 108.861ZM534.189 137.887L535.32 109.655L534.323 109.624L533.192 137.856L534.189 137.887Z" fill="url(#paint1_diamond_426_865)"/>
<path d="M531.14 138.65C530.726 137.236 531.532 135.742 532.941 135.312C534.35 134.882 535.827 135.679 536.241 137.092C536.655 138.506 535.849 140 534.44 140.43C533.031 140.86 531.554 140.063 531.14 138.65ZM511.564 116.739C511.15 115.326 511.957 113.832 513.365 113.402C514.774 112.972 516.251 113.769 516.665 115.182C517.079 116.596 516.273 118.09 514.864 118.52C513.456 118.95 511.978 118.153 511.564 116.739ZM533.318 138.208L513.743 116.298L514.487 115.623L534.063 137.534L533.318 138.208Z" fill="url(#paint2_diamond_426_865)"/>
<path d="M532.82 111.252C531.827 110.174 531.885 108.467 532.951 107.441C534.016 106.414 535.685 106.456 536.679 107.534C537.672 108.613 537.614 110.319 536.548 111.345C535.483 112.372 533.814 112.33 532.82 111.252ZM505.725 100.637C504.732 99.5586 504.79 97.8523 505.856 96.8257C506.921 95.7991 508.59 95.841 509.584 96.9193C510.577 97.9975 510.519 99.7038 509.453 100.73C508.388 101.757 506.719 101.715 505.725 100.637ZM534.568 109.865L507.473 99.2503L507.836 98.3059L534.931 108.921L534.568 109.865Z" fill="url(#paint3_diamond_426_865)"/>
</g>
<g filter="url(#filter8_f_426_865)">
<path d="M546.669 272.492C547.638 273.593 549.305 273.673 550.394 272.672C551.482 271.67 551.58 269.966 550.611 268.865C549.642 267.764 547.975 267.684 546.886 268.685C545.798 269.687 545.7 271.391 546.669 272.492ZM557.459 298.517C558.427 299.618 560.095 299.699 561.184 298.697C562.272 297.695 562.369 295.991 561.401 294.89C560.432 293.789 558.764 293.709 557.676 294.711C556.587 295.712 556.49 297.417 557.459 298.517ZM548.184 270.88L558.974 296.905L559.886 296.502L549.096 270.477L548.184 270.88Z" fill="url(#paint4_diamond_426_865)"/>
<path d="M550.611 268.865C551.58 269.966 551.482 271.67 550.394 272.672C549.305 273.673 547.638 273.593 546.669 272.492C545.7 271.391 545.798 269.687 546.886 268.685C547.975 267.684 549.642 267.764 550.611 268.865ZM583.224 292.167C584.193 293.267 584.096 294.972 583.007 295.973C581.918 296.975 580.251 296.895 579.282 295.794C578.313 294.693 578.411 292.989 579.499 291.987C580.588 290.985 582.256 291.066 583.224 292.167ZM548.927 270.263L581.54 293.565L580.967 294.395L548.353 271.094L548.927 270.263Z" fill="url(#paint5_diamond_426_865)"/>
<path d="M549.358 273.372C550.73 272.858 551.438 271.312 550.938 269.92C550.438 268.528 548.92 267.816 547.547 268.33C546.174 268.845 545.466 270.39 545.966 271.783C546.466 273.175 547.985 273.886 549.358 273.372ZM576.981 272.836C578.354 272.321 579.061 270.776 578.561 269.384C578.061 267.991 576.543 267.28 575.17 267.794C573.797 268.309 573.09 269.854 573.59 271.246C574.09 272.639 575.608 273.35 576.981 272.836ZM548.459 271.355L576.083 270.819L576.068 269.811L548.445 270.347L548.459 271.355Z" fill="url(#paint6_diamond_426_865)"/>
</g>
<g filter="url(#filter9_f_426_865)">
<path d="M325.24 607.305C324.826 605.892 323.349 605.094 321.94 605.524C320.532 605.954 319.725 607.449 320.139 608.862C320.553 610.276 322.031 611.073 323.439 610.643C324.848 610.213 325.654 608.718 325.24 607.305ZM326.371 579.073C325.957 577.66 324.48 576.863 323.071 577.293C321.663 577.723 320.856 579.217 321.27 580.63C321.684 582.044 323.162 582.841 324.57 582.411C325.979 581.981 326.785 580.486 326.371 579.073ZM323.188 608.099L324.319 579.867L323.323 579.836L322.192 608.068L323.188 608.099Z" fill="url(#paint7_diamond_426_865)"/>
<path d="M320.139 608.862C319.725 607.449 320.532 605.954 321.94 605.524C323.349 605.094 324.826 605.891 325.24 607.305C325.654 608.718 324.848 610.213 323.439 610.643C322.031 611.073 320.553 610.276 320.139 608.862ZM300.564 586.952C300.15 585.538 300.956 584.044 302.365 583.614C303.773 583.184 305.251 583.981 305.665 585.395C306.078 586.808 305.272 588.302 303.864 588.732C302.455 589.162 300.978 588.365 300.564 586.952ZM322.318 608.421L302.742 586.51L303.486 585.836L323.062 607.746L322.318 608.421Z" fill="url(#paint8_diamond_426_865)"/>
<path d="M321.82 581.464C320.826 580.386 320.885 578.68 321.95 577.653C323.016 576.627 324.685 576.668 325.678 577.747C326.671 578.825 326.613 580.531 325.548 581.558C324.482 582.584 322.813 582.543 321.82 581.464ZM294.725 570.849C293.731 569.771 293.79 568.065 294.855 567.038C295.921 566.012 297.59 566.053 298.583 567.132C299.576 568.21 299.518 569.916 298.453 570.943C297.387 571.969 295.718 571.928 294.725 570.849ZM323.568 580.078L296.473 569.463L296.835 568.518L323.93 579.133L323.568 580.078Z" fill="url(#paint9_diamond_426_865)"/>
</g>
<g filter="url(#filter10_f_426_865)">
<path d="M487.269 563.61C486.855 562.196 485.377 561.399 483.969 561.829C482.56 562.259 481.754 563.753 482.168 565.167C482.582 566.58 484.059 567.377 485.468 566.947C486.876 566.517 487.683 565.023 487.269 563.61ZM488.4 535.378C487.986 533.964 486.508 533.167 485.1 533.597C483.691 534.027 482.885 535.522 483.299 536.935C483.713 538.348 485.19 539.146 486.599 538.716C488.007 538.286 488.814 536.791 488.4 535.378ZM485.216 564.404L486.347 536.172L485.351 536.141L484.22 564.373L485.216 564.404Z" fill="url(#paint10_diamond_426_865)"/>
</g>
<g filter="url(#filter11_f_426_865)">
<path d="M528.527 499.087C528.113 497.674 526.636 496.877 525.227 497.307C523.819 497.737 523.012 499.231 523.426 500.645C523.84 502.058 525.318 502.855 526.726 502.425C528.135 501.995 528.941 500.501 528.527 499.087ZM529.658 470.856C529.244 469.442 527.767 468.645 526.358 469.075C524.95 469.505 524.143 470.999 524.557 472.413C524.971 473.826 526.449 474.623 527.857 474.193C529.266 473.763 530.072 472.269 529.658 470.856ZM526.475 499.881L527.606 471.65L526.61 471.619L525.479 499.851L526.475 499.881Z" fill="url(#paint11_diamond_426_865)"/>
<path d="M523.426 500.645C523.012 499.231 523.819 497.737 525.227 497.307C526.636 496.877 528.113 497.674 528.527 499.087C528.941 500.501 528.135 501.995 526.726 502.425C525.318 502.855 523.84 502.058 523.426 500.645ZM503.683 465.323C503.269 463.91 504.075 462.415 505.483 461.985C506.892 461.555 508.37 462.352 508.783 463.766C509.197 465.179 508.391 466.674 506.982 467.104C505.574 467.534 504.096 466.736 503.683 465.323ZM525.542 500.115L505.798 464.793L506.668 464.295L526.412 499.617L525.542 500.115Z" fill="url(#paint12_diamond_426_865)"/>
<path d="M526.454 497.125C524.994 496.989 523.704 498.072 523.574 499.545C523.444 501.018 524.523 502.322 525.984 502.459C527.444 502.595 528.733 501.512 528.863 500.039C528.993 498.566 527.915 497.262 526.454 497.125ZM501.25 485.522C499.789 485.385 498.5 486.468 498.37 487.941C498.24 489.414 499.318 490.718 500.779 490.855C502.239 490.991 503.529 489.908 503.659 488.435C503.789 486.963 502.71 485.658 501.25 485.522ZM526.424 499.335L501.22 487.732L500.809 488.645L526.013 500.249L526.424 499.335Z" fill="url(#paint13_diamond_426_865)"/>
</g>
<path d="M401.084 567.803C400.67 566.39 399.193 565.593 397.784 566.023C396.376 566.453 395.57 567.947 395.983 569.361C396.397 570.774 397.875 571.571 399.283 571.141C400.692 570.711 401.498 569.217 401.084 567.803ZM402.215 539.572C401.801 538.158 400.324 537.361 398.915 537.791C397.507 538.221 396.701 539.716 397.114 541.129C397.528 542.542 399.006 543.339 400.414 542.909C401.823 542.479 402.629 540.985 402.215 539.572ZM399.032 568.598L400.163 540.366L399.167 540.335L398.036 568.567L399.032 568.598Z" fill="url(#paint14_diamond_426_865)"/>
</g>
<g filter="url(#filter12_f_426_865)">
<g filter="url(#filter13_f_426_865)">
<path d="M161.154 152.631C160.113 149.876 157.047 148.518 154.306 149.598C151.566 150.678 150.189 153.787 151.23 156.542C152.272 159.297 155.338 160.655 158.078 159.576C160.819 158.496 162.196 155.387 161.154 152.631ZM53.6742 194.985C52.6327 192.23 49.5668 190.872 46.8263 191.952C44.0859 193.032 42.7087 196.141 43.7503 198.896C44.7919 201.651 47.8578 203.009 50.5982 201.929C53.3386 200.85 54.7158 197.741 53.6742 194.985ZM155.839 153.651L48.3587 196.005L49.0659 197.876L156.546 155.522L155.839 153.651Z" fill="url(#paint15_linear_426_865)"/>
</g>
<g filter="url(#filter14_f_426_865)">
<path d="M381.314 12.4823C379.234 10.397 375.892 10.4277 373.851 12.5509C371.809 14.6741 371.841 18.0857 373.921 20.1709C376.001 22.2562 379.343 22.2255 381.384 20.1023C383.426 17.9791 383.395 14.5675 381.314 12.4823ZM329.594 66.2679C327.514 64.1827 324.173 64.2134 322.131 66.3366C320.089 68.4597 320.121 71.8713 322.201 73.9566C324.281 76.0418 327.623 76.0111 329.664 73.8879C331.706 71.7648 331.675 68.3532 329.594 66.2679ZM376.911 15.6187L325.191 69.4043L326.604 70.8202L378.324 17.0345L376.911 15.6187Z" fill="#8900F2"/>
</g>
<path d="M40.3887 330.878C40.3887 332.351 41.5826 333.544 43.0554 333.544C44.5281 333.544 45.7221 332.351 45.7221 330.878C45.7221 329.405 44.5281 328.211 43.0554 328.211C41.5826 328.211 40.3887 329.405 40.3887 330.878ZM25.3038 366.494C25.3038 367.966 26.4977 369.16 27.9705 369.16C29.4432 369.16 30.6371 367.966 30.6371 366.494C30.6371 365.021 29.4432 363.827 27.9705 363.827C26.4977 363.827 25.3038 365.021 25.3038 366.494ZM42.595 330.683L27.5101 366.299L28.4309 366.689L43.5158 331.073L42.595 330.683Z" fill="#6A00F4"/>
<path d="M45.7221 330.878C45.7221 332.351 44.5282 333.544 43.0554 333.544C41.5827 333.544 40.3888 332.351 40.3888 330.878C40.3888 329.405 41.5827 328.211 43.0554 328.211C44.5282 328.211 45.7221 329.405 45.7221 330.878ZM55.1502 372.269C55.1502 373.742 53.9563 374.936 52.4835 374.936C51.0108 374.936 49.8169 373.742 49.8169 372.269C49.8169 370.796 51.0108 369.602 52.4835 369.602C53.9563 369.602 55.1502 370.796 55.1502 372.269ZM43.543 330.767L52.971 372.158L51.996 372.38L42.5679 330.989L43.543 330.767Z" fill="#6A00F4"/>
<path d="M98.2967 313.8C96.8406 314.021 95.8324 315.382 96.0446 316.839C96.2569 318.297 97.6094 319.299 99.0655 319.078C100.522 318.857 101.53 317.496 101.318 316.039C101.105 314.581 99.7528 313.579 98.2967 313.8ZM53.0419 369.943C51.5859 370.164 50.5776 371.525 50.7898 372.983C51.0021 374.44 52.3546 375.442 53.8107 375.221C55.2667 375 56.275 373.639 56.0628 372.182C55.8505 370.725 54.498 369.722 53.0419 369.943ZM98.2931 316.126L53.0383 372.269L53.8143 372.895L99.069 316.752L98.2931 316.126Z" fill="#6A00F4"/>
<path d="M41.8167 333.36C43.1798 333.918 44.721 333.259 45.259 331.888C45.7971 330.517 45.1282 328.953 43.7651 328.396C42.402 327.838 40.8608 328.497 40.3228 329.868C39.7847 331.239 40.4536 332.803 41.8167 333.36ZM76.0223 323.734C77.3854 324.292 78.9266 323.633 79.4646 322.262C80.0027 320.891 79.3338 319.327 77.9707 318.77C76.6076 318.212 75.0664 318.871 74.5284 320.242C73.9904 321.613 74.6592 323.177 76.0223 323.734ZM42.929 331.362L77.1347 321.736L76.8584 320.768L42.6528 330.394L42.929 331.362Z" fill="#6A00F4"/>
<path d="M148.812 519.898C148.812 521.37 150.006 522.564 151.478 522.564C152.951 522.564 154.145 521.37 154.145 519.898C154.145 518.425 152.951 517.231 151.478 517.231C150.006 517.231 148.812 518.425 148.812 519.898ZM133.727 555.513C133.727 556.986 134.921 558.18 136.393 558.18C137.866 558.18 139.06 556.986 139.06 555.513C139.06 554.041 137.866 552.847 136.393 552.847C134.921 552.847 133.727 554.041 133.727 555.513ZM151.018 519.703L135.933 555.318L136.854 555.708L151.939 520.093L151.018 519.703Z" fill="#6A00F4"/>
<path d="M154.145 519.898C154.145 521.37 152.951 522.564 151.478 522.564C150.006 522.564 148.812 521.37 148.812 519.898C148.812 518.425 150.006 517.231 151.478 517.231C152.951 517.231 154.145 518.425 154.145 519.898ZM163.573 561.289C163.573 562.762 162.379 563.956 160.906 563.956C159.434 563.956 158.24 562.762 158.24 561.289C158.24 559.816 159.434 558.622 160.906 558.622C162.379 558.622 163.573 559.816 163.573 561.289ZM151.966 519.787L161.394 561.178L160.419 561.4L150.991 520.009L151.966 519.787Z" fill="#6A00F4"/>
<path d="M206.72 502.82C205.264 503.041 204.255 504.402 204.468 505.859C204.68 507.317 206.032 508.319 207.488 508.098C208.944 507.877 209.953 506.516 209.74 505.059C209.528 503.601 208.176 502.599 206.72 502.82ZM161.465 558.963C160.009 559.184 159 560.545 159.213 562.002C159.425 563.46 160.778 564.462 162.234 564.241C163.69 564.02 164.698 562.659 164.486 561.202C164.273 559.744 162.921 558.742 161.465 558.963ZM206.716 505.146L161.461 561.289L162.237 561.915L207.492 505.772L206.716 505.146Z" fill="#6A00F4"/>
<path d="M150.24 522.38C151.603 522.938 153.144 522.278 153.682 520.907C154.22 519.536 153.551 517.973 152.188 517.415C150.825 516.858 149.284 517.517 148.746 518.888C148.208 520.259 148.876 521.822 150.24 522.38ZM184.445 512.754C185.808 513.312 187.35 512.652 187.888 511.282C188.426 509.911 187.757 508.347 186.394 507.789C185.031 507.232 183.489 507.891 182.951 509.262C182.413 510.633 183.082 512.197 184.445 512.754ZM151.352 520.382L185.558 510.756L185.281 509.788L151.076 519.414L151.352 520.382Z" fill="#6A00F4"/>
<g filter="url(#filter15_f_426_865)">
<path d="M108.535 133.547C108.535 135.02 109.729 136.214 111.202 136.214C112.675 136.214 113.869 135.02 113.869 133.547C113.869 132.074 112.675 130.881 111.202 130.881C109.729 130.881 108.535 132.074 108.535 133.547ZM153.319 156.993C153.319 158.466 154.513 159.66 155.985 159.66C157.458 159.66 158.652 158.466 158.652 156.993C158.652 155.521 157.458 154.327 155.985 154.327C154.513 154.327 153.319 155.521 153.319 156.993ZM110.97 133.99L155.754 157.436L156.217 156.55L111.434 133.104L110.97 133.99Z" fill="#6A00F4"/>
<path d="M113.869 133.547C113.869 135.02 112.675 136.214 111.202 136.214C109.729 136.214 108.535 135.02 108.535 133.547C108.535 132.074 109.729 130.881 111.202 130.881C112.675 130.881 113.869 132.074 113.869 133.547ZM123.297 174.938C123.297 176.411 122.103 177.605 120.63 177.605C119.157 177.605 117.963 176.411 117.963 174.938C117.963 173.466 119.157 172.272 120.63 172.272C122.103 172.272 123.297 173.466 123.297 174.938ZM111.69 133.436L121.118 174.827L120.143 175.05L110.715 133.658L111.69 133.436Z" fill="#6A00F4"/>
<path d="M146.173 122.108C144.717 122.329 143.709 123.689 143.921 125.147C144.133 126.604 145.486 127.606 146.942 127.385C148.398 127.164 149.406 125.804 149.194 124.346C148.982 122.889 147.629 121.887 146.173 122.108ZM121.189 172.613C119.733 172.834 118.724 174.195 118.937 175.652C119.149 177.109 120.501 178.111 121.957 177.89C123.413 177.669 124.422 176.309 124.209 174.851C123.997 173.394 122.645 172.392 121.189 172.613ZM146.11 124.526L121.126 175.031L122.02 175.472L147.005 124.967L146.11 124.526Z" fill="#6A00F4"/>
<path d="M109.963 136.03C111.327 136.587 112.868 135.928 113.406 134.557C113.944 133.186 113.275 131.623 111.912 131.065C110.549 130.507 109.008 131.167 108.47 132.538C107.931 133.909 108.6 135.472 109.963 136.03ZM144.169 126.404C145.532 126.961 147.073 126.302 147.611 124.931C148.149 123.56 147.481 121.997 146.117 121.439C144.754 120.881 143.213 121.541 142.675 122.912C142.137 124.283 142.806 125.846 144.169 126.404ZM111.076 134.031L145.281 124.406L145.005 123.437L110.799 133.063L111.076 134.031Z" fill="#6A00F4"/>
</g>
<g filter="url(#filter16_f_426_865)">
<path d="M106.45 221.079C105.308 220.148 103.647 220.334 102.74 221.494C101.832 222.654 102.022 224.349 103.163 225.28C104.305 226.211 105.965 226.025 106.873 224.865C107.78 223.705 107.591 222.01 106.45 221.079ZM60.5571 242.172C59.4158 241.241 57.7549 241.427 56.8474 242.587C55.9399 243.747 56.1295 245.441 57.2708 246.372C58.4122 247.303 60.0731 247.117 60.9806 245.957C61.888 244.797 61.6985 243.102 60.5571 242.172ZM104.601 222.719L58.7089 243.811L59.119 244.732L105.011 223.64L104.601 222.719Z" fill="#6A00F4"/>
<path d="M103.163 225.28C102.022 224.349 101.832 222.654 102.74 221.494C103.647 220.334 105.308 220.148 106.45 221.079C107.591 222.01 107.78 223.705 106.873 224.865C105.965 226.025 104.305 226.211 103.163 225.28ZM65.603 206.968C64.4617 206.038 64.2721 204.343 65.1796 203.183C66.087 202.023 67.7479 201.837 68.8893 202.768C70.0306 203.699 70.2202 205.394 69.3127 206.553C68.4052 207.713 66.7443 207.899 65.603 206.968ZM104.595 223.635L67.0343 205.324L67.458 204.413L105.018 222.724L104.595 223.635Z" fill="#6A00F4"/>
<path d="M91.7628 258.233C92.4933 256.949 92.0618 255.301 90.7989 254.552C89.536 253.803 87.9199 254.236 87.1894 255.52C86.4588 256.803 86.8904 258.451 88.1533 259.201C89.4162 259.95 91.0322 259.516 91.7628 258.233ZM68.7049 206.781C69.4355 205.498 69.0039 203.85 67.741 203.1C66.4781 202.351 64.8621 202.785 64.1315 204.068C63.4009 205.352 63.8325 207 65.0954 207.749C66.3583 208.498 67.9743 208.065 68.7049 206.781ZM89.9265 256.668L66.8686 205.217L65.9677 205.633L89.0256 257.084L89.9265 256.668Z" fill="#6A00F4"/>
<path d="M103.668 220.621C102.402 221.353 101.96 222.998 102.68 224.295C103.4 225.592 105.009 226.049 106.275 225.316C107.541 224.584 107.983 222.939 107.263 221.642C106.543 220.345 104.934 219.888 103.668 220.621ZM89.6866 253.915C88.4209 254.648 87.9784 256.293 88.6983 257.589C89.4182 258.886 91.0279 259.343 92.2937 258.611C93.5594 257.878 94.0019 256.233 93.282 254.937C92.5621 253.64 90.9524 253.183 89.6866 253.915ZM104.517 222.768L90.5358 256.062L91.4445 256.464L105.426 223.169L104.517 222.768Z" fill="#6A00F4"/>
</g>
<g filter="url(#filter17_f_426_865)">
<path d="M214.808 68.0912C214.808 69.5639 216.002 70.7579 217.475 70.7579C218.948 70.7579 220.142 69.5639 220.142 68.0912C220.142 66.6184 218.948 65.4245 217.475 65.4245C216.002 65.4245 214.808 66.6184 214.808 68.0912ZM199.723 103.707C199.723 105.18 200.917 106.374 202.39 106.374C203.863 106.374 205.057 105.18 205.057 103.707C205.057 102.234 203.863 101.04 202.39 101.04C200.917 101.04 199.723 102.234 199.723 103.707ZM217.015 67.8962L201.93 103.512L202.85 103.902L217.935 68.2862L217.015 67.8962Z" fill="#6A00F4"/>
<path d="M220.142 68.0912C220.142 69.5639 218.948 70.7579 217.475 70.7579C216.002 70.7579 214.808 69.5639 214.808 68.0912C214.808 66.6184 216.002 65.4245 217.475 65.4245C218.948 65.4245 220.142 66.6184 220.142 68.0912ZM229.57 109.482C229.57 110.955 228.376 112.149 226.903 112.149C225.43 112.149 224.236 110.955 224.236 109.482C224.236 108.01 225.43 106.816 226.903 106.816C228.376 106.816 229.57 108.01 229.57 109.482ZM217.962 67.9801L227.39 109.371L226.415 109.594L216.987 68.2022L217.962 67.9801Z" fill="#6A00F4"/>
<path d="M272.716 51.0136C271.26 51.2347 270.252 52.5954 270.464 54.0527C270.676 55.5101 272.029 56.5123 273.485 56.2913C274.941 56.0702 275.949 54.7095 275.737 53.2521C275.525 51.7947 274.172 50.7925 272.716 51.0136ZM227.461 107.157C226.005 107.378 224.997 108.738 225.209 110.196C225.422 111.653 226.774 112.655 228.23 112.434C229.686 112.213 230.695 110.853 230.482 109.395C230.27 107.938 228.917 106.936 227.461 107.157ZM272.713 53.3394L227.458 109.483L228.234 110.109L273.489 53.9655L272.713 53.3394Z" fill="#6A00F4"/>
<path d="M216.236 70.5736C217.599 71.1312 219.14 70.4719 219.678 69.1009C220.217 67.73 219.548 66.1665 218.185 65.6089C216.821 65.0512 215.28 65.7106 214.742 67.0815C214.204 68.4525 214.873 70.0159 216.236 70.5736ZM250.442 60.9477C251.805 61.5053 253.346 60.846 253.884 59.4751C254.422 58.1041 253.753 56.5407 252.39 55.983C251.027 55.4254 249.486 56.0847 248.948 57.4557C248.41 58.8266 249.079 60.3901 250.442 60.9477ZM217.348 68.5753L251.554 58.9495L251.278 57.9812L217.072 67.6071L217.348 68.5753Z" fill="#6A00F4"/>
</g>
<g filter="url(#filter18_f_426_865)">
<path d="M425.054 72.294C425.054 73.7668 426.248 74.9607 427.721 74.9607C429.194 74.9607 430.388 73.7668 430.388 72.294C430.388 70.8213 429.194 69.6274 427.721 69.6274C426.248 69.6274 425.054 70.8213 425.054 72.294ZM409.97 107.91C409.97 109.383 411.163 110.577 412.636 110.577C414.109 110.577 415.303 109.383 415.303 107.91C415.303 106.437 414.109 105.243 412.636 105.243C411.163 105.243 409.97 106.437 409.97 107.91ZM427.261 72.099L412.176 107.715L413.097 108.105L428.182 72.489L427.261 72.099Z" fill="#6A00F4"/>
<path d="M430.388 72.294C430.388 73.7668 429.194 74.9607 427.721 74.9607C426.248 74.9607 425.054 73.7668 425.054 72.294C425.054 70.8213 426.248 69.6274 427.721 69.6274C429.194 69.6274 430.388 70.8213 430.388 72.294ZM439.816 113.685C439.816 115.158 438.622 116.352 437.149 116.352C435.676 116.352 434.483 115.158 434.483 113.685C434.483 112.213 435.676 111.019 437.149 111.019C438.622 111.019 439.816 112.213 439.816 113.685ZM428.209 72.183L437.637 113.574L436.662 113.796L427.234 72.4051L428.209 72.183Z" fill="#6A00F4"/>
<path d="M482.962 55.2165C481.506 55.4376 480.498 56.7982 480.71 58.2556C480.923 59.713 482.275 60.7152 483.731 60.4941C485.187 60.2731 486.196 58.9124 485.983 57.455C485.771 55.9976 484.418 54.9954 482.962 55.2165ZM437.708 111.36C436.252 111.581 435.243 112.941 435.456 114.399C435.668 115.856 437.02 116.858 438.476 116.637C439.932 116.416 440.941 115.056 440.728 113.598C440.516 112.141 439.164 111.139 437.708 111.36ZM482.959 57.5423L437.704 113.685L438.48 114.311L483.735 58.1683L482.959 57.5423Z" fill="#6A00F4"/>
<path d="M426.482 74.7764C427.845 75.3341 429.387 74.6747 429.925 73.3038C430.463 71.9328 429.794 70.3694 428.431 69.8117C427.068 69.2541 425.526 69.9134 424.988 71.2844C424.45 72.6553 425.119 74.2188 426.482 74.7764ZM460.688 65.1506C462.051 65.7082 463.592 65.0489 464.13 63.6779C464.668 62.307 463.999 60.7435 462.636 60.1859C461.273 59.6282 459.732 60.2876 459.194 61.6585C458.656 63.0295 459.325 64.5929 460.688 65.1506ZM427.595 72.7782L461.8 63.1523L461.524 62.1841L427.318 71.8099L427.595 72.7782Z" fill="#6A00F4"/>
</g>
<g filter="url(#filter19_f_426_865)">
<path d="M60.1878 408.1C60.1878 409.573 61.3817 410.767 62.8545 410.767C64.3272 410.767 65.5211 409.573 65.5211 408.1C65.5211 406.627 64.3272 405.433 62.8545 405.433C61.3817 405.433 60.1878 406.627 60.1878 408.1ZM50.7597 436.015C50.7597 437.488 51.9536 438.682 53.4264 438.682C54.8992 438.682 56.0931 437.488 56.0931 436.015C56.0931 434.542 54.8992 433.348 53.4264 433.348C51.9536 433.348 50.7597 434.542 50.7597 436.015ZM62.3808 407.94L52.9527 435.855L53.9001 436.175L63.3282 408.26L62.3808 407.94Z" fill="url(#paint16_diamond_426_865)"/>
<path d="M65.5211 408.1C65.5211 409.573 64.3272 410.767 62.8545 410.767C61.3817 410.767 60.1878 409.573 60.1878 408.1C60.1878 406.627 61.3817 405.433 62.8545 405.433C64.3272 405.433 65.5211 406.627 65.5211 408.1ZM78.7204 436.015C78.7204 437.488 77.5265 438.682 76.0538 438.682C74.581 438.682 73.3871 437.488 73.3871 436.015C73.3871 434.542 74.581 433.348 76.0538 433.348C77.5265 433.348 78.7204 434.542 78.7204 436.015ZM63.3065 407.886L76.5058 435.801L75.6018 436.229L62.4024 408.314L63.3065 407.886Z" fill="url(#paint17_diamond_426_865)"/>
<path d="M55.7996 435.068C56.4492 436.389 55.9133 438.005 54.6025 438.677C53.2918 439.348 51.7026 438.821 51.053 437.5C50.4033 436.178 50.9393 434.562 52.25 433.89C53.5608 433.219 55.15 433.746 55.7996 435.068ZM79.8595 453.974C80.5091 455.296 79.9731 456.911 78.6624 457.583C77.3516 458.254 75.7624 457.727 75.1128 456.406C74.4632 455.084 74.9991 453.468 76.3099 452.796C77.6206 452.125 79.2098 452.652 79.8595 453.974ZM53.733 435.885L77.7929 454.791L77.1794 455.589L53.1195 436.683L53.733 435.885Z" fill="url(#paint18_diamond_426_865)"/>
</g>
<g filter="url(#filter20_f_426_865)">
<path d="M93.186 456.229C93.186 457.702 94.3799 458.896 95.8527 458.896C97.3255 458.896 98.5194 457.702 98.5194 456.229C98.5194 454.757 97.3255 453.563 95.8527 453.563C94.3799 453.563 93.186 454.757 93.186 456.229ZM83.758 484.145C83.758 485.617 84.9519 486.811 86.4246 486.811C87.8974 486.811 89.0913 485.617 89.0913 484.145C89.0913 482.672 87.8974 481.478 86.4246 481.478C84.9519 481.478 83.758 482.672 83.758 484.145ZM95.379 456.069L85.9509 483.985L86.8983 484.305L96.3264 456.389L95.379 456.069Z" fill="url(#paint19_diamond_426_865)"/>
<path d="M98.5194 456.229C98.5194 457.702 97.3255 458.896 95.8528 458.896C94.38 458.896 93.1861 457.702 93.1861 456.229C93.1861 454.757 94.38 453.563 95.8528 453.563C97.3255 453.563 98.5194 454.757 98.5194 456.229ZM111.719 484.145C111.719 485.617 110.525 486.811 109.052 486.811C107.579 486.811 106.385 485.617 106.385 484.145C106.385 482.672 107.579 481.478 109.052 481.478C110.525 481.478 111.719 482.672 111.719 484.145ZM96.3048 456.016L109.504 483.931L108.6 484.358L95.4007 456.443L96.3048 456.016Z" fill="url(#paint20_diamond_426_865)"/>
<path d="M88.7979 483.197C89.4475 484.519 88.9116 486.135 87.6008 486.806C86.29 487.478 84.7009 486.951 84.0512 485.629C83.4016 484.307 83.9376 482.691 85.2483 482.02C86.5591 481.348 88.1483 481.875 88.7979 483.197ZM112.858 502.103C113.507 503.425 112.971 505.041 111.661 505.712C110.35 506.384 108.761 505.857 108.111 504.535C107.461 503.213 107.997 501.597 109.308 500.926C110.619 500.254 112.208 500.781 112.858 502.103ZM86.7313 484.014L110.791 502.92L110.178 503.718L86.1178 484.812L86.7313 484.014Z" fill="url(#paint21_diamond_426_865)"/>
</g>
<g filter="url(#filter21_f_426_865)">
<path d="M63.8185 293.14C63.199 291.804 61.6218 291.24 60.2958 291.881C58.9699 292.522 58.3971 294.125 59.0167 295.461C59.6362 296.797 61.2134 297.361 62.5394 296.72C63.8654 296.079 64.4381 294.476 63.8185 293.14ZM60.641 263.791C60.0215 262.454 58.4443 261.891 57.1183 262.532C55.7924 263.173 55.2197 264.775 55.8392 266.112C56.4587 267.448 58.0359 268.011 59.3619 267.37C60.6879 266.729 61.2606 265.127 60.641 263.791ZM61.9115 294.241L58.734 264.891L57.7462 265.011L60.9237 294.36L61.9115 294.241Z" fill="url(#paint22_diamond_426_865)"/>
<path d="M59.0167 295.461C58.3971 294.125 58.9699 292.522 60.2958 291.881C61.6218 291.24 63.199 291.804 63.8185 293.14C64.4381 294.476 63.8654 296.079 62.5394 296.72C61.2134 297.361 59.6362 296.797 59.0167 295.461ZM33.1486 262.169C32.529 260.833 33.1018 259.23 34.4277 258.589C35.7537 257.948 37.3309 258.512 37.9504 259.848C38.57 261.184 37.9973 262.787 36.6713 263.428C35.3453 264.068 33.7681 263.505 33.1486 262.169ZM61.0259 294.614L35.1578 261.322L35.9412 260.695L61.8093 293.987L61.0259 294.614Z" fill="url(#paint23_diamond_426_865)"/>
<path d="M61.4965 291.508C60.0348 291.6 58.9216 292.872 59.0101 294.35C59.0986 295.828 60.3553 296.953 61.8169 296.861C63.2786 296.77 64.3917 295.498 64.3032 294.02C64.2147 292.542 62.9581 291.417 61.4965 291.508ZM33.6307 283.604C32.1691 283.695 31.0559 284.967 31.1444 286.445C31.2329 287.923 32.4896 289.048 33.9512 288.956C35.4129 288.865 36.526 287.593 36.4375 286.115C36.349 284.637 35.0924 283.512 33.6307 283.604ZM61.7915 293.701L33.9258 285.796L33.6562 286.764L61.5219 294.669L61.7915 293.701Z" fill="url(#paint24_diamond_426_865)"/>
</g>
<g filter="url(#filter22_f_426_865)">
<path d="M384.514 25.6C384.514 27.0727 385.708 28.2666 387.18 28.2666C388.653 28.2666 389.847 27.0727 389.847 25.6C389.847 24.1272 388.653 22.9333 387.18 22.9333C385.708 22.9333 384.514 24.1272 384.514 25.6ZM375.086 53.515C375.086 54.9878 376.28 56.1817 377.752 56.1817C379.225 56.1817 380.419 54.9878 380.419 53.515C380.419 52.0423 379.225 50.8484 377.752 50.8484C376.28 50.8484 375.086 52.0423 375.086 53.515ZM386.707 25.44L377.279 53.355L378.226 53.675L387.654 25.76L386.707 25.44Z" fill="url(#paint25_diamond_426_865)"/>
<path d="M389.847 25.6C389.847 27.0727 388.653 28.2666 387.18 28.2666C385.708 28.2666 384.514 27.0727 384.514 25.6C384.514 24.1272 385.708 22.9333 387.18 22.9333C388.653 22.9333 389.847 24.1272 389.847 25.6ZM403.046 53.515C403.046 54.9878 401.852 56.1817 400.38 56.1817C398.907 56.1817 397.713 54.9878 397.713 53.515C397.713 52.0423 398.907 50.8484 400.38 50.8484C401.852 50.8484 403.046 52.0423 403.046 53.515ZM387.632 25.3862L400.832 53.3013L399.928 53.7288L386.728 25.8137L387.632 25.3862Z" fill="url(#paint26_diamond_426_865)"/>
<path d="M380.126 52.5676C380.775 53.8894 380.239 55.5052 378.929 56.1768C377.618 56.8483 376.029 56.3212 375.379 54.9994C374.729 53.6777 375.265 52.0618 376.576 51.3903C377.887 50.7188 379.476 51.2459 380.126 52.5676ZM404.185 71.4737C404.835 72.7954 404.299 74.4113 402.988 75.0828C401.678 75.7543 400.088 75.2272 399.439 73.9055C398.789 72.5837 399.325 70.9679 400.636 70.2963C401.947 69.6248 403.536 70.1519 404.185 71.4737ZM378.059 53.3846L402.119 72.2907L401.505 73.0885L377.446 54.1824L378.059 53.3846Z" fill="url(#paint27_diamond_426_865)"/>
</g>
<g filter="url(#filter23_f_426_865)">
<path d="M209.151 19.8244C209.151 21.2972 210.345 22.4911 211.818 22.4911C213.291 22.4911 214.485 21.2972 214.485 19.8244C214.485 18.3517 213.291 17.1578 211.818 17.1578C210.345 17.1578 209.151 18.3517 209.151 19.8244ZM199.723 47.7395C199.723 49.2123 200.917 50.4062 202.39 50.4062C203.863 50.4062 205.057 49.2123 205.057 47.7395C205.057 46.2667 203.863 45.0728 202.39 45.0728C200.917 45.0728 199.723 46.2667 199.723 47.7395ZM211.344 19.6644L201.916 47.5795L202.864 47.8995L212.292 19.9844L211.344 19.6644Z" fill="url(#paint28_diamond_426_865)"/>
</g>
<g filter="url(#filter24_f_426_865)">
<path d="M148.812 71.8042C148.812 73.277 150.006 74.4709 151.478 74.4709C152.951 74.4709 154.145 73.277 154.145 71.8042C154.145 70.3314 152.951 69.1375 151.478 69.1375C150.006 69.1375 148.812 70.3314 148.812 71.8042ZM139.384 99.7193C139.384 101.192 140.577 102.386 142.05 102.386C143.523 102.386 144.717 101.192 144.717 99.7193C144.717 98.2465 143.523 97.0526 142.05 97.0526C140.577 97.0526 139.384 98.2465 139.384 99.7193ZM151.005 71.6442L141.577 99.5593L142.524 99.8793L151.952 71.9642L151.005 71.6442Z" fill="url(#paint29_diamond_426_865)"/>
<path d="M154.145 71.8042C154.145 73.277 152.951 74.4709 151.478 74.4709C150.006 74.4709 148.812 73.277 148.812 71.8042C148.812 70.3314 150.006 69.1375 151.478 69.1375C152.951 69.1375 154.145 70.3314 154.145 71.8042ZM163.573 113.195C163.573 114.668 162.379 115.862 160.906 115.862C159.434 115.862 158.24 114.668 158.24 113.195C158.24 111.723 159.434 110.529 160.906 110.529C162.379 110.529 163.573 111.723 163.573 113.195ZM151.966 71.6932L161.394 113.084L160.419 113.307L150.991 71.9152L151.966 71.6932Z" fill="url(#paint30_diamond_426_865)"/>
<path d="M150.24 74.2866C151.603 74.8442 153.144 74.1849 153.682 72.8139C154.22 71.443 153.551 69.8795 152.188 69.3219C150.825 68.7643 149.284 69.4236 148.746 70.7946C148.208 72.1655 148.876 73.729 150.24 74.2866ZM172.113 93.6047C173.476 94.1623 175.017 93.503 175.555 92.132C176.093 90.7611 175.424 89.1976 174.061 88.64C172.698 88.0823 171.157 88.7417 170.619 90.1126C170.081 91.4836 170.75 93.047 172.113 93.6047ZM150.888 72.181L172.762 91.4991L173.412 90.7456L151.539 71.4275L150.888 72.181Z" fill="url(#paint31_diamond_426_865)"/>
</g>
<path d="M296.832 41.964C296.832 43.4367 298.026 44.6306 299.499 44.6306C300.972 44.6306 302.166 43.4367 302.166 41.964C302.166 40.4912 300.972 39.2973 299.499 39.2973C298.026 39.2973 296.832 40.4912 296.832 41.964ZM287.404 69.879C287.404 71.3518 288.598 72.5457 290.071 72.5457C291.544 72.5457 292.738 71.3518 292.738 69.879C292.738 68.4063 291.544 67.2124 290.071 67.2124C288.598 67.2124 287.404 68.4063 287.404 69.879ZM299.025 41.804L289.597 69.719L290.545 70.039L299.973 42.124L299.025 41.804Z" fill="url(#paint32_diamond_426_865)"/>
</g>
<g filter="url(#filter25_f_426_865)">
<rect x="43.0555" y="39.4287" width="538.343" height="529.424" rx="264.712" fill="#E500A4"/>
</g>
<g filter="url(#filter26_i_426_865)">
<path d="M405.788 231.569L345.711 280.629M307.128 138.151L396.681 159.239M267.211 210.053L279.773 256.441M188.291 189.53L141.33 274.121M245.45 323.198L195.872 333.626M414.266 378.978L371.942 351.692M481.462 253.008L492.708 346.135M422.82 462.165L338.785 500.154M295.849 380.305L290.733 438.817M155.955 405.528L220.577 476.455" stroke="white" stroke-width="5" stroke-linecap="round"/>
</g>
<g filter="url(#filter27_i_426_865)">
<path d="M364.281 263.983C365.144 264.156 365.785 264.891 365.855 265.786L372.728 353.583C372.795 354.436 372.329 355.243 371.564 355.6L296.616 390.546C295.829 390.912 294.905 390.72 294.331 390.069L235.765 323.707C235.198 323.065 235.1 322.121 235.521 321.363L276.37 247.782C276.794 247.018 277.649 246.614 278.489 246.783L364.281 263.983Z" fill="white"/>
</g>
<g filter="url(#filter28_i_426_865)">
<path d="M348.719 499.78C349.151 500.36 349.236 501.13 348.942 501.793L334.655 534.054C334.333 534.781 333.615 535.25 332.825 535.25L306.368 535.25L270.079 530.248L212.785 527.996C211.717 527.954 210.875 527.074 210.875 526.001L210.875 469.791C210.875 469.026 211.308 468.327 211.992 467.987L293.045 427.782C293.908 427.354 294.949 427.603 295.523 428.374L348.719 499.78Z" fill="white"/>
</g>
<g filter="url(#filter29_i_426_865)">
<path d="M161.626 410.027C161.245 410.758 160.464 411.187 159.653 411.11L114.956 406.829C114.255 406.762 113.645 406.325 113.354 405.681L97.5238 370.637C97.4068 370.378 97.3463 370.096 97.3463 369.81L97.3463 331.793L97.3463 280.945C97.3463 280.036 97.952 279.232 98.8229 278.986L144.81 266.005C145.553 265.795 146.344 266.034 146.842 266.619L201.489 330.767C202.017 331.387 202.113 332.273 201.732 333.004L161.626 410.027Z" fill="white"/>
</g>
<g filter="url(#filter30_i_426_865)">
<path d="M394.336 241.897C393.472 241.73 392.825 240.999 392.749 240.104L385.259 152.014C385.202 151.341 385.478 150.68 385.995 150.254L422.837 119.847C423.649 119.177 424.824 119.258 425.528 120.032L473.668 172.982C473.76 173.083 473.842 173.194 473.911 173.313L505.469 226.979C505.898 227.708 505.829 228.639 505.296 229.303L482.402 257.832C481.939 258.41 481.205 258.684 480.491 258.546L394.336 241.897Z" fill="white"/>
</g>
<g filter="url(#filter31_i_426_865)">
<path d="M408.753 375.772C408.688 374.898 409.182 374.08 409.977 373.748L492.773 339.171C493.593 338.828 494.535 339.084 495.081 339.796L519.612 371.844C520.058 372.427 520.157 373.211 519.87 373.89L494.293 434.358C494.204 434.568 494.081 434.761 493.929 434.929L451.784 481.445C451.206 482.083 450.294 482.272 449.518 481.916L416.589 466.774C415.929 466.471 415.484 465.823 415.429 465.086L408.753 375.772Z" fill="white"/>
</g>
<g filter="url(#filter32_i_426_865)">
<path d="M273.937 97.5628C274.649 97.376 275.406 97.6017 275.906 98.1496L313.372 139.236C313.955 139.875 314.067 140.818 313.651 141.574L273.34 214.916C272.917 215.685 272.047 216.084 271.194 215.902L185.391 197.56C184.659 197.404 184.074 196.847 183.876 196.118L170.345 146.15C170.121 145.323 170.44 144.445 171.141 143.964L216.643 112.716C216.831 112.587 217.039 112.492 217.259 112.434L273.937 97.5628Z" fill="white"/>
</g>
<g filter="url(#filter33_i_426_865)">
<ellipse rx="226.563" ry="222.563" transform="matrix(0.261389 0.965234 -0.962391 0.271669 309.803 315.731)" stroke="white" stroke-width="22"/>
</g>
<g filter="url(#filter34_i_426_865)">
<ellipse rx="243.473" ry="239.879" transform="matrix(0.261389 0.965234 -0.962391 0.271669 310.085 316.111)" stroke="url(#paint33_linear_426_865)" stroke-width="20"/>
</g>
</g>
<defs>
<filter id="filter0_f_426_865" x="213.583" y="94.0824" width="380.114" height="518.677" filterUnits="userSpaceOnUse" color-interpolation-filters="sRGB">
<feFlood flood-opacity="0" result="BackgroundImageFix"/>
<feBlend mode="normal" in="SourceGraphic" in2="BackgroundImageFix" result="shape"/>
<feGaussianBlur stdDeviation="1" result="effect1_foregroundBlur_426_865"/>
</filter>
<filter id="filter1_f_426_865" x="492.148" y="349.023" width="101.549" height="83.633" filterUnits="userSpaceOnUse" color-interpolation-filters="sRGB">
<feFlood flood-opacity="0" result="BackgroundImageFix"/>
<feBlend mode="normal" in="SourceGraphic" in2="BackgroundImageFix" result="shape"/>
<feGaussianBlur stdDeviation="1" result="effect1_foregroundBlur_426_865"/>
</filter>
<filter id="filter2_f_426_865" x="334.651" y="525.843" width="47.4347" height="78.557" filterUnits="userSpaceOnUse" color-interpolation-filters="sRGB">
<feFlood flood-opacity="0" result="BackgroundImageFix"/>
<feBlend mode="normal" in="SourceGraphic" in2="BackgroundImageFix" result="shape"/>
<feGaussianBlur stdDeviation="1" result="effect1_foregroundBlur_426_865"/>
</filter>
<filter id="filter3_f_426_865" x="494.315" y="391.969" width="56.8348" height="63.0139" filterUnits="userSpaceOnUse" color-interpolation-filters="sRGB">
<feFlood flood-opacity="0" result="BackgroundImageFix"/>
<feBlend mode="normal" in="SourceGraphic" in2="BackgroundImageFix" result="shape"/>
<feGaussianBlur stdDeviation="1" result="effect1_foregroundBlur_426_865"/>
</filter>
<filter id="filter4_f_426_865" x="523.303" y="308.143" width="49.2711" height="50.8657" filterUnits="userSpaceOnUse" color-interpolation-filters="sRGB">
<feFlood flood-opacity="0" result="BackgroundImageFix"/>
<feBlend mode="normal" in="SourceGraphic" in2="BackgroundImageFix" result="shape"/>
<feGaussianBlur stdDeviation="1" result="effect1_foregroundBlur_426_865"/>
</filter>
<filter id="filter5_f_426_865" x="414.899" y="480.159" width="60.5784" height="75.0114" filterUnits="userSpaceOnUse" color-interpolation-filters="sRGB">
<feFlood flood-opacity="0" result="BackgroundImageFix"/>
<feBlend mode="normal" in="SourceGraphic" in2="BackgroundImageFix" result="shape"/>
<feGaussianBlur stdDeviation="1" result="effect1_foregroundBlur_426_865"/>
</filter>
<filter id="filter6_f_426_865" x="213.583" y="530.294" width="60.5782" height="75.0113" filterUnits="userSpaceOnUse" color-interpolation-filters="sRGB">
<feFlood flood-opacity="0" result="BackgroundImageFix"/>
<feBlend mode="normal" in="SourceGraphic" in2="BackgroundImageFix" result="shape"/>
<feGaussianBlur stdDeviation="1" result="effect1_foregroundBlur_426_865"/>
</filter>
<filter id="filter7_f_426_865" x="503.017" y="94.0824" width="36.4637" height="48.4644" filterUnits="userSpaceOnUse" color-interpolation-filters="sRGB">
<feFlood flood-opacity="0" result="BackgroundImageFix"/>
<feBlend mode="normal" in="SourceGraphic" in2="BackgroundImageFix" result="shape"/>
<feGaussianBlur stdDeviation="1" result="effect1_foregroundBlur_426_865"/>
</filter>
<filter id="filter8_f_426_865" x="543.806" y="265.627" width="42.0858" height="35.7719" filterUnits="userSpaceOnUse" color-interpolation-filters="sRGB">
<feFlood flood-opacity="0" result="BackgroundImageFix"/>
<feBlend mode="normal" in="SourceGraphic" in2="BackgroundImageFix" result="shape"/>
<feGaussianBlur stdDeviation="1" result="effect1_foregroundBlur_426_865"/>
</filter>
<filter id="filter9_f_426_865" x="292.016" y="564.295" width="36.4636" height="48.4645" filterUnits="userSpaceOnUse" color-interpolation-filters="sRGB">
<feFlood flood-opacity="0" result="BackgroundImageFix"/>
<feBlend mode="normal" in="SourceGraphic" in2="BackgroundImageFix" result="shape"/>
<feGaussianBlur stdDeviation="1" result="effect1_foregroundBlur_426_865"/>
</filter>
<filter id="filter10_f_426_865" x="480.059" y="531.481" width="10.449" height="37.5832" filterUnits="userSpaceOnUse" color-interpolation-filters="sRGB">
<feFlood flood-opacity="0" result="BackgroundImageFix"/>
<feBlend mode="normal" in="SourceGraphic" in2="BackgroundImageFix" result="shape"/>
<feGaussianBlur stdDeviation="1" result="effect1_foregroundBlur_426_865"/>
</filter>
<filter id="filter11_f_426_865" x="496.359" y="459.869" width="35.4076" height="44.6729" filterUnits="userSpaceOnUse" color-interpolation-filters="sRGB">
<feFlood flood-opacity="0" result="BackgroundImageFix"/>
<feBlend mode="normal" in="SourceGraphic" in2="BackgroundImageFix" result="shape"/>
<feGaussianBlur stdDeviation="1" result="effect1_foregroundBlur_426_865"/>
</filter>
<filter id="filter12_f_426_865" x="23.3038" y="8.9382" width="464.708" height="557.333" filterUnits="userSpaceOnUse" color-interpolation-filters="sRGB">
<feFlood flood-opacity="0" result="BackgroundImageFix"/>
<feBlend mode="normal" in="SourceGraphic" in2="BackgroundImageFix" result="shape"/>
<feGaussianBlur stdDeviation="1" result="effect1_foregroundBlur_426_865"/>
</filter>
<filter id="filter13_f_426_865" x="41.4025" y="147.227" width="122.1" height="57.0733" filterUnits="userSpaceOnUse" color-interpolation-filters="sRGB">
<feFlood flood-opacity="0" result="BackgroundImageFix"/>
<feBlend mode="normal" in="SourceGraphic" in2="BackgroundImageFix" result="shape"/>
<feGaussianBlur stdDeviation="1" result="effect1_foregroundBlur_426_865"/>
</filter>
<filter id="filter14_f_426_865" x="318.62" y="8.9382" width="66.2753" height="68.5624" filterUnits="userSpaceOnUse" color-interpolation-filters="sRGB">
<feFlood flood-opacity="0" result="BackgroundImageFix"/>
<feBlend mode="normal" in="SourceGraphic" in2="BackgroundImageFix" result="shape"/>
<feGaussianBlur stdDeviation="1" result="effect1_foregroundBlur_426_865"/>
</filter>
<filter id="filter15_f_426_865" x="106.284" y="119.241" width="54.3686" height="60.6801" filterUnits="userSpaceOnUse" color-interpolation-filters="sRGB">
<feFlood flood-opacity="0" result="BackgroundImageFix"/>
<feBlend mode="normal" in="SourceGraphic" in2="BackgroundImageFix" result="shape"/>
<feGaussianBlur stdDeviation="1" result="effect1_foregroundBlur_426_865"/>
</filter>
<filter id="filter16_f_426_865" x="54.2737" y="200.175" width="55.3349" height="61.3927" filterUnits="userSpaceOnUse" color-interpolation-filters="sRGB">
<feFlood flood-opacity="0" result="BackgroundImageFix"/>
<feBlend mode="normal" in="SourceGraphic" in2="BackgroundImageFix" result="shape"/>
<feGaussianBlur stdDeviation="1" result="effect1_foregroundBlur_426_865"/>
</filter>
<filter id="filter17_f_426_865" x="197.723" y="48.9831" width="80.0419" height="65.4819" filterUnits="userSpaceOnUse" color-interpolation-filters="sRGB">
<feFlood flood-opacity="0" result="BackgroundImageFix"/>
<feBlend mode="normal" in="SourceGraphic" in2="BackgroundImageFix" result="shape"/>
<feGaussianBlur stdDeviation="1" result="effect1_foregroundBlur_426_865"/>
</filter>
<filter id="filter18_f_426_865" x="407.969" y="53.1859" width="80.0419" height="65.4819" filterUnits="userSpaceOnUse" color-interpolation-filters="sRGB">
<feFlood flood-opacity="0" result="BackgroundImageFix"/>
<feBlend mode="normal" in="SourceGraphic" in2="BackgroundImageFix" result="shape"/>
<feGaussianBlur stdDeviation="1" result="effect1_foregroundBlur_426_865"/>
</filter>
<filter id="filter19_f_426_865" x="48.7597" y="403.433" width="33.3758" height="56.4413" filterUnits="userSpaceOnUse" color-interpolation-filters="sRGB">
<feFlood flood-opacity="0" result="BackgroundImageFix"/>
<feBlend mode="normal" in="SourceGraphic" in2="BackgroundImageFix" result="shape"/>
<feGaussianBlur stdDeviation="1" result="effect1_foregroundBlur_426_865"/>
</filter>
<filter id="filter20_f_426_865" x="81.7579" y="451.563" width="33.3759" height="56.4413" filterUnits="userSpaceOnUse" color-interpolation-filters="sRGB">
<feFlood flood-opacity="0" result="BackgroundImageFix"/>
<feBlend mode="normal" in="SourceGraphic" in2="BackgroundImageFix" result="shape"/>
<feGaussianBlur stdDeviation="1" result="effect1_foregroundBlur_426_865"/>
</filter>
<filter id="filter21_f_426_865" x="29.1395" y="256.325" width="37.1686" height="42.6597" filterUnits="userSpaceOnUse" color-interpolation-filters="sRGB">
<feFlood flood-opacity="0" result="BackgroundImageFix"/>
<feBlend mode="normal" in="SourceGraphic" in2="BackgroundImageFix" result="shape"/>
<feGaussianBlur stdDeviation="1" result="effect1_foregroundBlur_426_865"/>
</filter>
<filter id="filter22_f_426_865" x="373.086" y="20.9333" width="33.3759" height="56.4412" filterUnits="userSpaceOnUse" color-interpolation-filters="sRGB">
<feFlood flood-opacity="0" result="BackgroundImageFix"/>
<feBlend mode="normal" in="SourceGraphic" in2="BackgroundImageFix" result="shape"/>
<feGaussianBlur stdDeviation="1" result="effect1_foregroundBlur_426_865"/>
</filter>
<filter id="filter23_f_426_865" x="197.723" y="15.1578" width="18.7614" height="37.2484" filterUnits="userSpaceOnUse" color-interpolation-filters="sRGB">
<feFlood flood-opacity="0" result="BackgroundImageFix"/>
<feBlend mode="normal" in="SourceGraphic" in2="BackgroundImageFix" result="shape"/>
<feGaussianBlur stdDeviation="1" result="effect1_foregroundBlur_426_865"/>
</filter>
<filter id="filter24_f_426_865" x="137.384" y="67.1237" width="40.3575" height="50.7384" filterUnits="userSpaceOnUse" color-interpolation-filters="sRGB">
<feFlood flood-opacity="0" result="BackgroundImageFix"/>
<feBlend mode="normal" in="SourceGraphic" in2="BackgroundImageFix" result="shape"/>
<feGaussianBlur stdDeviation="1" result="effect1_foregroundBlur_426_865"/>
</filter>
<filter id="filter25_f_426_865" x="-12.9445" y="-16.5713" width="650.343" height="641.424" filterUnits="userSpaceOnUse" color-interpolation-filters="sRGB">
<feFlood flood-opacity="0" result="BackgroundImageFix"/>
<feBlend mode="normal" in="SourceGraphic" in2="BackgroundImageFix" result="shape"/>
<feGaussianBlur stdDeviation="28" result="effect1_foregroundBlur_426_865"/>
</filter>
<filter id="filter26_i_426_865" x="138.837" y="135.644" width="356.364" height="368.018" filterUnits="userSpaceOnUse" color-interpolation-filters="sRGB">
<feFlood flood-opacity="0" result="BackgroundImageFix"/>
<feBlend mode="normal" in="SourceGraphic" in2="BackgroundImageFix" result="shape"/>
<feColorMatrix in="SourceAlpha" type="matrix" values="0 0 0 0 0 0 0 0 0 0 0 0 0 0 0 0 0 0 127 0" result="hardAlpha"/>
<feOffset dy="1"/>
<feGaussianBlur stdDeviation="6"/>
<feComposite in2="hardAlpha" operator="arithmetic" k2="-1" k3="1"/>
<feColorMatrix type="matrix" values="0 0 0 0 1 0 0 0 0 1 0 0 0 0 1 0 0 0 0.15 0"/>
<feBlend mode="normal" in2="shape" result="effect1_innerShadow_426_865"/>
</filter>
<filter id="filter27_i_426_865" x="235.261" y="246.745" width="137.473" height="144.985" filterUnits="userSpaceOnUse" color-interpolation-filters="sRGB">
<feFlood flood-opacity="0" result="BackgroundImageFix"/>
<feBlend mode="normal" in="SourceGraphic" in2="BackgroundImageFix" result="shape"/>
<feColorMatrix in="SourceAlpha" type="matrix" values="0 0 0 0 0 0 0 0 0 0 0 0 0 0 0 0 0 0 127 0" result="hardAlpha"/>
<feOffset dy="1"/>
<feGaussianBlur stdDeviation="6"/>
<feComposite in2="hardAlpha" operator="arithmetic" k2="-1" k3="1"/>
<feColorMatrix type="matrix" values="0 0 0 0 1 0 0 0 0 1 0 0 0 0 1 0 0 0 0.15 0"/>
<feBlend mode="normal" in2="shape" result="effect1_innerShadow_426_865"/>
</filter>
<filter id="filter28_i_426_865" x="210.875" y="427.574" width="138.24" height="108.676" filterUnits="userSpaceOnUse" color-interpolation-filters="sRGB">
<feFlood flood-opacity="0" result="BackgroundImageFix"/>
<feBlend mode="normal" in="SourceGraphic" in2="BackgroundImageFix" result="shape"/>
<feColorMatrix in="SourceAlpha" type="matrix" values="0 0 0 0 0 0 0 0 0 0 0 0 0 0 0 0 0 0 127 0" result="hardAlpha"/>
<feOffset dy="1"/>
<feGaussianBlur stdDeviation="6"/>
<feComposite in2="hardAlpha" operator="arithmetic" k2="-1" k3="1"/>
<feColorMatrix type="matrix" values="0 0 0 0 1 0 0 0 0 1 0 0 0 0 1 0 0 0 0.15 0"/>
<feBlend mode="normal" in2="shape" result="effect1_innerShadow_426_865"/>
</filter>
<filter id="filter29_i_426_865" x="97.3463" y="265.93" width="104.617" height="146.189" filterUnits="userSpaceOnUse" color-interpolation-filters="sRGB">
<feFlood flood-opacity="0" result="BackgroundImageFix"/>
<feBlend mode="normal" in="SourceGraphic" in2="BackgroundImageFix" result="shape"/>
<feColorMatrix in="SourceAlpha" type="matrix" values="0 0 0 0 0 0 0 0 0 0 0 0 0 0 0 0 0 0 127 0" result="hardAlpha"/>
<feOffset dy="1"/>
<feGaussianBlur stdDeviation="6"/>
<feComposite in2="hardAlpha" operator="arithmetic" k2="-1" k3="1"/>
<feColorMatrix type="matrix" values="0 0 0 0 1 0 0 0 0 1 0 0 0 0 1 0 0 0 0.15 0"/>
<feBlend mode="normal" in2="shape" result="effect1_innerShadow_426_865"/>
</filter>
<filter id="filter30_i_426_865" x="385.251" y="119.394" width="120.497" height="140.187" filterUnits="userSpaceOnUse" color-interpolation-filters="sRGB">
<feFlood flood-opacity="0" result="BackgroundImageFix"/>
<feBlend mode="normal" in="SourceGraphic" in2="BackgroundImageFix" result="shape"/>
<feColorMatrix in="SourceAlpha" type="matrix" values="0 0 0 0 0 0 0 0 0 0 0 0 0 0 0 0 0 0 127 0" result="hardAlpha"/>
<feOffset dy="1"/>
<feGaussianBlur stdDeviation="6"/>
<feComposite in2="hardAlpha" operator="arithmetic" k2="-1" k3="1"/>
<feColorMatrix type="matrix" values="0 0 0 0 1 0 0 0 0 1 0 0 0 0 1 0 0 0 0.15 0"/>
<feBlend mode="normal" in2="shape" result="effect1_innerShadow_426_865"/>
</filter>
<filter id="filter31_i_426_865" x="408.747" y="339.02" width="111.285" height="144.074" filterUnits="userSpaceOnUse" color-interpolation-filters="sRGB">
<feFlood flood-opacity="0" result="BackgroundImageFix"/>
<feBlend mode="normal" in="SourceGraphic" in2="BackgroundImageFix" result="shape"/>
<feColorMatrix in="SourceAlpha" type="matrix" values="0 0 0 0 0 0 0 0 0 0 0 0 0 0 0 0 0 0 127 0" result="hardAlpha"/>
<feOffset dy="1"/>
<feGaussianBlur stdDeviation="6"/>
<feComposite in2="hardAlpha" operator="arithmetic" k2="-1" k3="1"/>
<feColorMatrix type="matrix" values="0 0 0 0 1 0 0 0 0 1 0 0 0 0 1 0 0 0 0.15 0"/>
<feBlend mode="normal" in2="shape" result="effect1_innerShadow_426_865"/>
</filter>
<filter id="filter32_i_426_865" x="170.274" y="97.4983" width="143.626" height="119.447" filterUnits="userSpaceOnUse" color-interpolation-filters="sRGB">
<feFlood flood-opacity="0" result="BackgroundImageFix"/>
<feBlend mode="normal" in="SourceGraphic" in2="BackgroundImageFix" result="shape"/>
<feColorMatrix in="SourceAlpha" type="matrix" values="0 0 0 0 0 0 0 0 0 0 0 0 0 0 0 0 0 0 127 0" result="hardAlpha"/>
<feOffset dy="1"/>
<feGaussianBlur stdDeviation="6"/>
<feComposite in2="hardAlpha" operator="arithmetic" k2="-1" k3="1"/>
<feColorMatrix type="matrix" values="0 0 0 0 1 0 0 0 0 1 0 0 0 0 1 0 0 0 0.15 0"/>
<feBlend mode="normal" in2="shape" result="effect1_innerShadow_426_865"/>
</filter>
<filter id="filter33_i_426_865" x="76.5503" y="77.7452" width="466.506" height="476.972" filterUnits="userSpaceOnUse" color-interpolation-filters="sRGB">
<feFlood flood-opacity="0" result="BackgroundImageFix"/>
<feBlend mode="normal" in="SourceGraphic" in2="BackgroundImageFix" result="shape"/>
<feColorMatrix in="SourceAlpha" type="matrix" values="0 0 0 0 0 0 0 0 0 0 0 0 0 0 0 0 0 0 127 0" result="hardAlpha"/>
<feOffset dy="1"/>
<feGaussianBlur stdDeviation="6"/>
<feComposite in2="hardAlpha" operator="arithmetic" k2="-1" k3="1"/>
<feColorMatrix type="matrix" values="0 0 0 0 1 0 0 0 0 1 0 0 0 0 1 0 0 0 0.15 0"/>
<feBlend mode="normal" in2="shape" result="effect1_innerShadow_426_865"/>
</filter>
<filter id="filter34_i_426_865" x="60.5837" y="62.1396" width="499.002" height="508.944" filterUnits="userSpaceOnUse" color-interpolation-filters="sRGB">
<feFlood flood-opacity="0" result="BackgroundImageFix"/>
<feBlend mode="normal" in="SourceGraphic" in2="BackgroundImageFix" result="shape"/>
<feColorMatrix in="SourceAlpha" type="matrix" values="0 0 0 0 0 0 0 0 0 0 0 0 0 0 0 0 0 0 127 0" result="hardAlpha"/>
<feOffset dy="1"/>
<feGaussianBlur stdDeviation="6"/>
<feComposite in2="hardAlpha" operator="arithmetic" k2="-1" k3="1"/>
<feColorMatrix type="matrix" values="0 0 0 0 1 0 0 0 0 1 0 0 0 0 1 0 0 0 0.15 0"/>
<feBlend mode="normal" in2="shape" result="effect1_innerShadow_426_865"/>
</filter>
<linearGradient id="paint0_linear_426_865" x1="583.476" y1="359.876" x2="585.538" y2="362.785" gradientUnits="userSpaceOnUse">
<stop stop-color="#E500A4"/>
<stop offset="1" stop-color="#8900F2"/>
</linearGradient>
<radialGradient id="paint1_diamond_426_865" cx="0" cy="0" r="1" gradientUnits="userSpaceOnUse" gradientTransform="translate(534.043 119.498) rotate(86.8908) scale(21.7029 10.2723)">
<stop stop-color="#6A00F4"/>
<stop offset="1" stop-color="#B100E8"/>
</radialGradient>
<radialGradient id="paint2_diamond_426_865" cx="0" cy="0" r="1" gradientUnits="userSpaceOnUse" gradientTransform="translate(521.412 123.354) rotate(55.3689) scale(22.1117 14.1154)">
<stop stop-color="#6A00F4"/>
<stop offset="1" stop-color="#B100E8"/>
</radialGradient>
<radialGradient id="paint3_diamond_426_865" cx="0" cy="0" r="1" gradientUnits="userSpaceOnUse" gradientTransform="translate(517.415 102.043) rotate(28.6848) scale(21.89 14.2583)">
<stop stop-color="#6A00F4"/>
<stop offset="1" stop-color="#B100E8"/>
</radialGradient>
<radialGradient id="paint4_diamond_426_865" cx="0" cy="0" r="1" gradientUnits="userSpaceOnUse" gradientTransform="translate(556.008 287.448) rotate(-117.962) scale(21.6044 10.3192)">
<stop stop-color="#6A00F4"/>
<stop offset="1" stop-color="#B100E8"/>
</radialGradient>
<radialGradient id="paint5_diamond_426_865" cx="0" cy="0" r="1" gradientUnits="userSpaceOnUse" gradientTransform="translate(569.701 286.218) rotate(-140.54) scale(31.2904 10.5645)">
<stop stop-color="#6A00F4"/>
<stop offset="1" stop-color="#B100E8"/>
</radialGradient>
<radialGradient id="paint6_diamond_426_865" cx="0" cy="0" r="1" gradientUnits="userSpaceOnUse" gradientTransform="translate(566.406 270.111) rotate(173.237) scale(21.2245 10.5039)">
<stop stop-color="#6A00F4"/>
<stop offset="1" stop-color="#B100E8"/>
</radialGradient>
<radialGradient id="paint7_diamond_426_865" cx="0" cy="0" r="1" gradientUnits="userSpaceOnUse" gradientTransform="translate(323.042 589.71) rotate(86.8908) scale(21.7029 10.2723)">
<stop stop-color="#6A00F4"/>
<stop offset="1" stop-color="#B100E8"/>
</radialGradient>
<radialGradient id="paint8_diamond_426_865" cx="0" cy="0" r="1" gradientUnits="userSpaceOnUse" gradientTransform="translate(310.411 593.566) rotate(55.3689) scale(22.1117 14.1154)">
<stop stop-color="#6A00F4"/>
<stop offset="1" stop-color="#B100E8"/>
</radialGradient>
<radialGradient id="paint9_diamond_426_865" cx="0" cy="0" r="1" gradientUnits="userSpaceOnUse" gradientTransform="translate(306.414 572.255) rotate(28.6848) scale(21.89 14.2583)">
<stop stop-color="#6A00F4"/>
<stop offset="1" stop-color="#B100E8"/>
</radialGradient>
<radialGradient id="paint10_diamond_426_865" cx="0" cy="0" r="1" gradientUnits="userSpaceOnUse" gradientTransform="translate(485.071 546.015) rotate(86.8908) scale(21.7029 10.2723)">
<stop stop-color="#6A00F4"/>
<stop offset="1" stop-color="#B100E8"/>
</radialGradient>
<radialGradient id="paint11_diamond_426_865" cx="0" cy="0" r="1" gradientUnits="userSpaceOnUse" gradientTransform="translate(526.329 481.493) rotate(86.8908) scale(21.7029 10.2723)">
<stop stop-color="#6A00F4"/>
<stop offset="1" stop-color="#B100E8"/>
</radialGradient>
<radialGradient id="paint12_diamond_426_865" cx="0" cy="0" r="1" gradientUnits="userSpaceOnUse" gradientTransform="translate(513.433 476.612) rotate(64.6378) scale(31.5799 10.4676)">
<stop stop-color="#6A00F4"/>
<stop offset="1" stop-color="#B100E8"/>
</radialGradient>
<radialGradient id="paint13_diamond_426_865" cx="0" cy="0" r="1" gradientUnits="userSpaceOnUse" gradientTransform="translate(509.673 492.604) rotate(19.1079) scale(21.2782 10.4774)">
<stop stop-color="#6A00F4"/>
<stop offset="1" stop-color="#B100E8"/>
</radialGradient>
<radialGradient id="paint14_diamond_426_865" cx="0" cy="0" r="1" gradientUnits="userSpaceOnUse" gradientTransform="translate(398.886 550.209) rotate(86.8908) scale(21.7029 10.2723)">
<stop stop-color="#6A00F4"/>
<stop offset="1" stop-color="#B100E8"/>
</radialGradient>
<linearGradient id="paint15_linear_426_865" x1="52.6932" y1="194.405" x2="51.5529" y2="191.013" gradientUnits="userSpaceOnUse">
<stop stop-color="#E500A4"/>
<stop offset="1" stop-color="#8900F2"/>
</linearGradient>
<radialGradient id="paint16_diamond_426_865" cx="0" cy="0" r="1" gradientUnits="userSpaceOnUse" gradientTransform="translate(57.1033 426.384) rotate(-76.768) scale(22.6543 10.7647)">
<stop stop-color="#6A00F4"/>
<stop offset="1" stop-color="#B100E8"/>
</radialGradient>
<radialGradient id="paint17_diamond_426_865" cx="0" cy="0" r="1" gradientUnits="userSpaceOnUse" gradientTransform="translate(70.906 426.384) rotate(-108.221) scale(23.2171 14.7053)">
<stop stop-color="#6A00F4"/>
<stop offset="1" stop-color="#B100E8"/>
</radialGradient>
<radialGradient id="paint18_diamond_426_865" cx="0" cy="0" r="1" gradientUnits="userSpaceOnUse" gradientTransform="translate(68.6546 448.939) rotate(-134.63) scale(23.0255 14.8277)">
<stop stop-color="#6A00F4"/>
<stop offset="1" stop-color="#B100E8"/>
</radialGradient>
<radialGradient id="paint19_diamond_426_865" cx="0" cy="0" r="1" gradientUnits="userSpaceOnUse" gradientTransform="translate(90.1016 474.514) rotate(-76.768) scale(22.6543 10.7647)">
<stop stop-color="#6A00F4"/>
<stop offset="1" stop-color="#B100E8"/>
</radialGradient>
<radialGradient id="paint20_diamond_426_865" cx="0" cy="0" r="1" gradientUnits="userSpaceOnUse" gradientTransform="translate(103.904 474.514) rotate(-108.221) scale(23.2171 14.7053)">
<stop stop-color="#6A00F4"/>
<stop offset="1" stop-color="#B100E8"/>
</radialGradient>
<radialGradient id="paint21_diamond_426_865" cx="0" cy="0" r="1" gradientUnits="userSpaceOnUse" gradientTransform="translate(101.653 497.068) rotate(-134.63) scale(23.0255 14.8277)">
<stop stop-color="#6A00F4"/>
<stop offset="1" stop-color="#B100E8"/>
</radialGradient>
<radialGradient id="paint22_diamond_426_865" cx="0" cy="0" r="1" gradientUnits="userSpaceOnUse" gradientTransform="translate(58.9529 275.262) rotate(78.4028) scale(22.6601 10.762)">
<stop stop-color="#6A00F4"/>
<stop offset="1" stop-color="#B100E8"/>
</radialGradient>
<radialGradient id="paint23_diamond_426_865" cx="0" cy="0" r="1" gradientUnits="userSpaceOnUse" gradientTransform="translate(44.8575 272.309) rotate(56.0234) scale(32.9078 10.9882)">
<stop stop-color="#6A00F4"/>
<stop offset="1" stop-color="#B100E8"/>
</radialGradient>
<radialGradient id="paint24_diamond_426_865" cx="0" cy="0" r="1" gradientUnits="userSpaceOnUse" gradientTransform="translate(43.4305 289.44) rotate(10.2072) scale(22.2276 10.9714)">
<stop stop-color="#6A00F4"/>
<stop offset="1" stop-color="#B100E8"/>
</radialGradient>
<radialGradient id="paint25_diamond_426_865" cx="0" cy="0" r="1" gradientUnits="userSpaceOnUse" gradientTransform="translate(381.429 43.8843) rotate(-76.768) scale(22.6543 10.7647)">
<stop stop-color="#6A00F4"/>
<stop offset="1" stop-color="#B100E8"/>
</radialGradient>
<radialGradient id="paint26_diamond_426_865" cx="0" cy="0" r="1" gradientUnits="userSpaceOnUse" gradientTransform="translate(395.232 43.8843) rotate(-108.221) scale(23.2171 14.7053)">
<stop stop-color="#6A00F4"/>
<stop offset="1" stop-color="#B100E8"/>
</radialGradient>
<radialGradient id="paint27_diamond_426_865" cx="0" cy="0" r="1" gradientUnits="userSpaceOnUse" gradientTransform="translate(392.981 66.439) rotate(-134.63) scale(23.0255 14.8277)">
<stop stop-color="#6A00F4"/>
<stop offset="1" stop-color="#B100E8"/>
</radialGradient>
<radialGradient id="paint28_diamond_426_865" cx="0" cy="0" r="1" gradientUnits="userSpaceOnUse" gradientTransform="translate(206.067 38.1088) rotate(-76.768) scale(22.6543 10.7647)">
<stop stop-color="#6A00F4"/>
<stop offset="1" stop-color="#B100E8"/>
</radialGradient>
<radialGradient id="paint29_diamond_426_865" cx="0" cy="0" r="1" gradientUnits="userSpaceOnUse" gradientTransform="translate(145.727 90.0886) rotate(-76.768) scale(22.6543 10.7647)">
<stop stop-color="#6A00F4"/>
<stop offset="1" stop-color="#B100E8"/>
</radialGradient>
<radialGradient id="paint30_diamond_426_865" cx="0" cy="0" r="1" gradientUnits="userSpaceOnUse" gradientTransform="translate(157.229 98.9155) rotate(-99.011) scale(33.1077 10.9218)">
<stop stop-color="#6A00F4"/>
<stop offset="1" stop-color="#B100E8"/>
</radialGradient>
<radialGradient id="paint31_diamond_426_865" cx="0" cy="0" r="1" gradientUnits="userSpaceOnUse" gradientTransform="translate(165.699 84.0555) rotate(-144.102) scale(22.3704 10.9013)">
<stop stop-color="#6A00F4"/>
<stop offset="1" stop-color="#B100E8"/>
</radialGradient>
<radialGradient id="paint32_diamond_426_865" cx="0" cy="0" r="1" gradientUnits="userSpaceOnUse" gradientTransform="translate(293.748 60.2483) rotate(-76.768) scale(22.6543 10.7647)">
<stop stop-color="#6A00F4"/>
<stop offset="1" stop-color="#B100E8"/>
</radialGradient>
<linearGradient id="paint33_linear_426_865" x1="467.468" y1="431.783" x2="180.412" y2="481.165" gradientUnits="userSpaceOnUse">
<stop stop-color="#E500A4"/>
<stop offset="1" stop-color="#8900F2"/>
</linearGradient>
<clipPath id="clip0_426_865">
<rect width="628" height="608" fill="white"/>
</clipPath>
</defs>
</svg>
