<svg width="721" height="702" viewBox="0 0 721 702" fill="none" xmlns="http://www.w3.org/2000/svg">
<g filter="url(#filter0_f_423_808)">
<g filter="url(#filter1_f_423_808)">
<path d="M545.845 468.108C547.647 470.438 550.995 470.864 553.322 469.059C555.65 467.254 556.076 463.901 554.274 461.571C552.473 459.241 549.125 458.815 546.797 460.62C544.47 462.425 544.043 465.777 545.845 468.108ZM638.104 396.566C639.906 398.896 643.254 399.322 645.581 397.517C647.909 395.712 648.335 392.36 646.534 390.03C644.732 387.699 641.384 387.274 639.057 389.079C636.729 390.884 636.303 394.236 638.104 396.566ZM550.672 465.631L642.931 394.089L641.707 392.507L549.448 464.048L550.672 465.631Z" fill="url(#paint0_linear_423_808)"/>
</g>
<g filter="url(#filter2_f_423_808)">
<path d="M372.036 665.534C374.64 666.911 377.863 665.915 379.235 663.309C380.607 660.703 379.609 657.473 377.006 656.095C374.402 654.718 371.179 655.714 369.807 658.32C368.434 660.927 369.433 664.156 372.036 665.534ZM406.916 599.285C409.52 600.663 412.743 599.667 414.115 597.06C415.487 594.454 414.489 591.224 411.886 589.847C409.282 588.469 406.059 589.465 404.687 592.072C403.315 594.678 404.313 597.908 406.916 599.285ZM375.405 661.282L410.285 595.034L408.517 594.098L373.637 660.347L375.405 661.282Z" fill="#8900F2"/>
</g>
<path d="M612.213 263.3C611.791 261.888 610.305 261.087 608.894 261.509C607.483 261.93 606.681 263.416 607.103 264.827C607.525 266.238 609.011 267.04 610.422 266.618C611.833 266.196 612.635 264.711 612.213 263.3ZM616.71 224.993C616.288 223.582 614.802 222.78 613.391 223.202C611.98 223.624 611.178 225.11 611.6 226.521C612.022 227.932 613.508 228.733 614.919 228.312C616.33 227.89 617.132 226.404 616.71 224.993ZM610.155 264.122L614.651 225.815L613.658 225.698L609.161 264.005L610.155 264.122Z" fill="#6A00F4"/>
<path d="M607.103 264.827C606.681 263.416 607.483 261.93 608.894 261.509C610.305 261.087 611.791 261.888 612.213 263.3C612.635 264.711 611.833 266.196 610.422 266.618C609.011 267.04 607.525 266.238 607.103 264.827ZM586.162 228.133C585.74 226.722 586.542 225.236 587.953 224.814C589.364 224.392 590.85 225.194 591.271 226.605C591.693 228.016 590.892 229.502 589.481 229.924C588.069 230.346 586.584 229.544 586.162 228.133ZM609.224 264.311L588.282 227.617L589.151 227.121L610.092 263.816L609.224 264.311Z" fill="#6A00F4"/>
<path d="M560.91 296.378C562.243 295.752 562.818 294.164 562.193 292.83C561.569 291.497 559.982 290.922 558.648 291.547C557.315 292.173 556.74 293.761 557.364 295.095C557.989 296.428 559.576 297.003 560.91 296.378ZM588.843 229.76C590.176 229.134 590.751 227.546 590.127 226.212C589.502 224.879 587.915 224.304 586.582 224.929C585.248 225.555 584.673 227.143 585.298 228.477C585.922 229.811 587.51 230.385 588.843 229.76ZM560.24 294.156L588.173 227.538L587.251 227.151L559.318 293.769L560.24 294.156Z" fill="#6A00F4"/>
<path d="M610.154 261.331C608.687 261.197 607.391 262.277 607.259 263.744C607.127 265.21 608.209 266.508 609.676 266.643C611.142 266.777 612.438 265.697 612.57 264.23C612.702 262.763 611.621 261.465 610.154 261.331ZM579.695 280.428C578.228 280.294 576.932 281.374 576.8 282.841C576.668 284.308 577.75 285.606 579.216 285.74C580.683 285.874 581.979 284.794 582.111 283.327C582.243 281.86 581.162 280.562 579.695 280.428ZM609.649 263.563L579.19 282.66L579.722 283.508L610.181 264.41L609.649 263.563Z" fill="#6A00F4"/>
<g filter="url(#filter3_f_423_808)">
<path d="M602.277 471.061C601.855 469.65 600.369 468.848 598.958 469.27C597.547 469.692 596.745 471.178 597.167 472.589C597.589 474 599.075 474.802 600.486 474.38C601.897 473.958 602.699 472.472 602.277 471.061ZM552.13 461.723C551.708 460.312 550.222 459.51 548.811 459.932C547.4 460.354 546.598 461.84 547.02 463.251C547.442 464.662 548.928 465.464 550.339 465.042C551.75 464.62 552.552 463.134 552.13 461.723ZM599.814 471.333L549.667 461.995L549.484 462.978L599.63 472.316L599.814 471.333Z" fill="#6A00F4"/>
<path d="M597.167 472.589C596.745 471.178 597.547 469.692 598.958 469.27C600.369 468.848 601.855 469.65 602.277 471.061C602.699 472.472 601.897 473.958 600.486 474.38C599.075 474.802 597.589 474 597.167 472.589ZM576.226 435.895C575.804 434.483 576.606 432.998 578.017 432.576C579.428 432.154 580.914 432.956 581.335 434.367C581.757 435.778 580.956 437.264 579.545 437.685C578.133 438.107 576.648 437.306 576.226 435.895ZM599.288 472.073L578.346 435.378L579.215 434.883L600.156 471.577L599.288 472.073Z" fill="#6A00F4"/>
<path d="M569.043 492.885C570.376 492.26 570.951 490.671 570.326 489.338C569.702 488.004 568.115 487.429 566.781 488.055C565.448 488.68 564.873 490.268 565.497 491.602C566.122 492.936 567.709 493.51 569.043 492.885ZM578.907 437.521C580.24 436.896 580.815 435.308 580.191 433.974C579.566 432.64 577.979 432.066 576.646 432.691C575.312 433.316 574.737 434.904 575.362 436.238C575.986 437.572 577.574 438.146 578.907 437.521ZM568.404 490.557L578.268 435.194L577.284 435.018L567.42 490.382L568.404 490.557Z" fill="#6A00F4"/>
<path d="M600.218 469.092C598.751 468.958 597.455 470.038 597.323 471.505C597.191 472.972 598.273 474.27 599.739 474.404C601.206 474.538 602.502 473.458 602.634 471.991C602.766 470.524 601.685 469.226 600.218 469.092ZM569.759 488.19C568.292 488.055 566.996 489.136 566.864 490.602C566.732 492.069 567.814 493.367 569.28 493.501C570.747 493.636 572.043 492.555 572.175 491.088C572.307 489.622 571.225 488.324 569.759 488.19ZM599.713 471.324L569.254 490.422L569.785 491.269L600.245 472.172L599.713 471.324Z" fill="#6A00F4"/>
</g>
<g filter="url(#filter4_f_423_808)">
<path d="M579.403 387.056C580.768 387.609 582.321 386.949 582.87 385.582C583.42 384.216 582.759 382.66 581.393 382.108C580.028 381.556 578.476 382.216 577.926 383.582C577.377 384.948 578.038 386.504 579.403 387.056ZM617.939 353.644C619.305 354.196 620.857 353.536 621.407 352.17C621.956 350.803 621.295 349.248 619.93 348.695C618.565 348.143 617.012 348.803 616.463 350.169C615.913 351.536 616.574 353.091 617.939 353.644ZM580.726 384.961L619.262 351.548L618.607 350.791L580.071 384.204L580.726 384.961Z" fill="#6A00F4"/>
<path d="M581.393 382.108C582.759 382.66 583.42 384.216 582.87 385.582C582.321 386.949 580.768 387.609 579.403 387.056C578.038 386.504 577.377 384.948 577.926 383.582C578.476 382.216 580.028 381.556 581.393 382.108ZM623.066 388.651C624.432 389.203 625.093 390.759 624.543 392.125C623.994 393.491 622.441 394.151 621.076 393.599C619.711 393.047 619.05 391.491 619.599 390.125C620.149 388.759 621.701 388.099 623.066 388.651ZM580.475 384.088L622.148 390.631L621.995 391.619L580.321 385.076L580.475 384.088Z" fill="#6A00F4"/>
<path d="M583.088 347.407C582.745 348.84 583.628 350.281 585.059 350.627C586.49 350.972 587.929 350.09 588.271 348.657C588.614 347.225 587.732 345.783 586.301 345.438C584.87 345.093 583.431 345.975 583.088 347.407ZM620.125 389.729C619.782 391.162 620.664 392.603 622.096 392.949C623.527 393.294 624.965 392.412 625.308 390.979C625.651 389.547 624.769 388.105 623.337 387.76C621.906 387.415 620.468 388.297 620.125 389.729ZM585.304 348.362L622.341 390.684L623.092 390.025L586.056 347.703L585.304 348.362Z" fill="#6A00F4"/>
<path d="M582.222 386.68C583.24 385.617 583.204 383.927 582.141 382.906C581.078 381.885 579.392 381.919 578.374 382.982C577.356 384.045 577.392 385.735 578.455 386.756C579.518 387.777 581.204 387.743 582.222 386.68ZM586.309 350.905C587.327 349.842 587.29 348.152 586.228 347.131C585.165 346.11 583.478 346.144 582.461 347.207C581.443 348.27 581.479 349.96 582.542 350.981C583.605 352.002 585.291 351.968 586.309 350.905ZM580.794 384.889L584.881 349.114L583.888 348.998L579.802 384.774L580.794 384.889Z" fill="#6A00F4"/>
</g>
<g filter="url(#filter5_f_423_808)">
<path d="M517.77 564.26C517.348 562.849 515.862 562.047 514.451 562.469C513.04 562.891 512.238 564.377 512.66 565.788C513.082 567.199 514.568 568.001 515.979 567.579C517.39 567.157 518.192 565.671 517.77 564.26ZM522.267 525.953C521.845 524.542 520.359 523.74 518.948 524.162C517.537 524.584 516.735 526.07 517.157 527.481C517.579 528.892 519.065 529.694 520.476 529.272C521.887 528.85 522.689 527.364 522.267 525.953ZM515.712 565.082L520.209 526.775L519.215 526.659L514.719 564.966L515.712 565.082Z" fill="#6A00F4"/>
<path d="M512.66 565.788C512.238 564.377 513.04 562.891 514.451 562.469C515.862 562.047 517.348 562.849 517.77 564.26C518.192 565.671 517.39 567.157 515.979 567.579C514.568 568.001 513.082 567.199 512.66 565.788ZM491.719 529.093C491.297 527.682 492.099 526.197 493.51 525.775C494.921 525.353 496.407 526.155 496.829 527.566C497.251 528.977 496.449 530.463 495.038 530.884C493.627 531.306 492.141 530.505 491.719 529.093ZM514.781 565.272L493.84 528.577L494.708 528.082L515.65 564.776L514.781 565.272Z" fill="#6A00F4"/>
<path d="M466.467 597.338C467.8 596.713 468.375 595.125 467.75 593.791C467.126 592.457 465.539 591.883 464.205 592.508C462.872 593.133 462.297 594.721 462.922 596.055C463.546 597.389 465.133 597.963 466.467 597.338ZM494.4 530.72C495.734 530.095 496.308 528.507 495.684 527.173C495.059 525.839 493.472 525.265 492.139 525.89C490.805 526.515 490.231 528.103 490.855 529.437C491.48 530.771 493.067 531.345 494.4 530.72ZM465.797 595.116L493.73 528.498L492.809 528.112L464.875 594.73L465.797 595.116Z" fill="#6A00F4"/>
<path d="M515.711 562.291C514.245 562.157 512.949 563.237 512.816 564.704C512.684 566.171 513.766 567.469 515.233 567.603C516.699 567.737 517.995 566.657 518.128 565.19C518.26 563.723 517.178 562.425 515.711 562.291ZM485.252 581.389C483.786 581.254 482.489 582.335 482.357 583.801C482.225 585.268 483.307 586.566 484.774 586.7C486.24 586.835 487.536 585.754 487.668 584.287C487.801 582.821 486.719 581.523 485.252 581.389ZM515.206 564.523L484.747 583.621L485.279 584.468L515.738 565.371L515.206 564.523Z" fill="#6A00F4"/>
</g>
<g filter="url(#filter6_f_423_808)">
<path d="M301.647 634.511C301.225 633.1 299.739 632.298 298.328 632.72C296.917 633.142 296.116 634.628 296.537 636.039C296.959 637.45 298.445 638.252 299.856 637.83C301.267 637.408 302.069 635.922 301.647 634.511ZM306.144 596.204C305.722 594.793 304.236 593.991 302.825 594.413C301.414 594.835 300.612 596.321 301.034 597.732C301.456 599.143 302.942 599.945 304.353 599.523C305.764 599.101 306.566 597.615 306.144 596.204ZM299.589 635.333L304.086 597.027L303.093 596.91L298.596 635.217L299.589 635.333Z" fill="#6A00F4"/>
<path d="M296.538 636.039C296.116 634.628 296.917 633.142 298.328 632.72C299.739 632.298 301.225 633.1 301.647 634.511C302.069 635.922 301.267 637.408 299.856 637.83C298.445 638.252 296.959 637.45 296.538 636.039ZM275.596 599.345C275.174 597.934 275.976 596.448 277.387 596.026C278.798 595.604 280.284 596.406 280.706 597.817C281.128 599.228 280.326 600.714 278.915 601.136C277.504 601.558 276.018 600.756 275.596 599.345ZM298.658 635.523L277.717 598.829L278.585 598.333L299.527 635.027L298.658 635.523Z" fill="#6A00F4"/>
<path d="M250.344 667.589C251.677 666.964 252.252 665.376 251.628 664.042C251.003 662.708 249.416 662.134 248.083 662.759C246.749 663.384 246.174 664.973 246.799 666.306C247.423 667.64 249.011 668.215 250.344 667.589ZM278.277 600.971C279.611 600.346 280.186 598.758 279.561 597.424C278.937 596.09 277.349 595.516 276.016 596.141C274.683 596.766 274.108 598.355 274.732 599.688C275.357 601.022 276.944 601.597 278.277 600.971ZM249.674 665.367L277.608 598.75L276.686 598.363L248.752 664.981L249.674 665.367Z" fill="#6A00F4"/>
<path d="M299.588 632.542C298.122 632.408 296.826 633.489 296.694 634.955C296.561 636.422 297.643 637.72 299.11 637.854C300.577 637.988 301.873 636.908 302.005 635.441C302.137 633.975 301.055 632.677 299.588 632.542ZM269.129 651.64C267.663 651.506 266.367 652.586 266.234 654.053C266.102 655.52 267.184 656.817 268.651 656.952C270.117 657.086 271.413 656.006 271.546 654.539C271.678 653.072 270.596 651.774 269.129 651.64ZM299.083 634.775L268.624 653.872L269.156 654.72L299.615 635.622L299.083 634.775Z" fill="#6A00F4"/>
</g>
<g filter="url(#filter7_f_423_808)">
<path d="M588.953 165.505C588.531 164.094 587.045 163.292 585.634 163.714C584.223 164.136 583.421 165.621 583.843 167.032C584.265 168.443 585.751 169.245 587.162 168.823C588.573 168.401 589.374 166.916 588.953 165.505ZM590.152 136.175C589.73 134.764 588.244 133.963 586.833 134.385C585.422 134.806 584.621 136.292 585.042 137.703C585.464 139.114 586.95 139.916 588.361 139.494C589.772 139.072 590.574 137.587 590.152 136.175ZM586.897 166.289L588.097 136.96L587.098 136.919L585.898 166.248L586.897 166.289Z" fill="url(#paint1_diamond_423_808)"/>
<path d="M583.843 167.032C583.421 165.621 584.223 164.135 585.634 163.714C587.045 163.292 588.531 164.094 588.953 165.505C589.374 166.916 588.573 168.401 587.162 168.823C585.751 169.245 584.265 168.443 583.843 167.032ZM563.08 144.271C562.658 142.859 563.459 141.374 564.871 140.952C566.282 140.53 567.767 141.332 568.189 142.743C568.611 144.154 567.809 145.64 566.398 146.061C564.987 146.483 563.501 145.682 563.08 144.271ZM586.028 166.605L565.265 143.844L566.004 143.17L586.767 165.932L586.028 166.605Z" fill="url(#paint2_diamond_423_808)"/>
<path d="M585.581 138.514C584.572 137.441 584.623 135.752 585.694 134.741C586.765 133.73 588.451 133.781 589.46 134.853C590.469 135.926 590.419 137.615 589.348 138.626C588.277 139.637 586.591 139.587 585.581 138.514ZM556.843 127.486C555.834 126.414 555.884 124.724 556.955 123.714C558.026 122.703 559.713 122.753 560.722 123.826C561.731 124.899 561.68 126.588 560.609 127.598C559.538 128.609 557.852 128.559 556.843 127.486ZM587.342 137.151L558.604 126.123L558.961 125.189L587.7 136.216L587.342 137.151Z" fill="url(#paint3_diamond_423_808)"/>
</g>
<g filter="url(#filter8_f_423_808)">
<path d="M600.273 306.023C601.257 307.118 602.942 307.207 604.036 306.221C605.13 305.235 605.219 303.548 604.235 302.452C603.251 301.357 601.566 301.268 600.472 302.254C599.378 303.24 599.289 304.927 600.273 306.023ZM611.717 333.06C612.702 334.155 614.386 334.244 615.48 333.258C616.574 332.272 616.663 330.585 615.679 329.489C614.695 328.394 613.01 328.305 611.916 329.291C610.822 330.277 610.733 331.964 611.717 333.06ZM601.794 304.433L613.238 331.47L614.158 331.079L602.714 304.042L601.794 304.433Z" fill="url(#paint4_diamond_423_808)"/>
<path d="M604.235 302.452C605.219 303.548 605.13 305.235 604.036 306.221C602.942 307.207 601.257 307.118 600.273 306.023C599.289 304.927 599.378 303.24 600.472 302.254C601.566 301.268 603.251 301.357 604.235 302.452ZM638.827 326.66C639.811 327.755 639.722 329.443 638.628 330.429C637.534 331.415 635.849 331.326 634.865 330.23C633.88 329.135 633.969 327.447 635.064 326.461C636.158 325.475 637.842 325.564 638.827 326.66ZM602.54 303.827L637.132 328.035L636.559 328.855L601.968 304.648L602.54 303.827Z" fill="url(#paint5_diamond_423_808)"/>
<path d="M602.973 306.922C604.355 306.415 605.064 304.882 604.557 303.499C604.05 302.115 602.518 301.405 601.136 301.912C599.754 302.419 599.045 303.952 599.553 305.335C600.06 306.719 601.592 307.429 602.973 306.922ZM632.272 306.365C633.654 305.858 634.363 304.325 633.856 302.942C633.349 301.558 631.817 300.848 630.435 301.355C629.053 301.862 628.344 303.395 628.852 304.778C629.359 306.162 630.891 306.872 632.272 306.365ZM602.065 304.917L631.364 304.36L631.344 303.36L602.045 303.917L602.065 304.917Z" fill="url(#paint6_diamond_423_808)"/>
</g>
<g filter="url(#filter9_f_423_808)">
<path d="M365.152 653.992C364.73 652.581 363.244 651.779 361.833 652.201C360.422 652.623 359.621 654.109 360.042 655.52C360.464 656.931 361.95 657.733 363.361 657.311C364.772 656.889 365.574 655.403 365.152 653.992ZM366.352 624.663C365.93 623.252 364.444 622.45 363.033 622.872C361.622 623.294 360.82 624.78 361.242 626.191C361.664 627.602 363.15 628.404 364.561 627.982C365.972 627.56 366.774 626.074 366.352 624.663ZM363.097 654.776L364.297 625.447L363.297 625.407L362.098 654.736L363.097 654.776Z" fill="url(#paint7_diamond_423_808)"/>
<path d="M360.043 655.52C359.621 654.109 360.422 652.623 361.833 652.201C363.245 651.779 364.73 652.581 365.152 653.992C365.574 655.403 364.772 656.889 363.361 657.311C361.95 657.733 360.464 656.931 360.043 655.52ZM339.279 632.758C338.857 631.347 339.659 629.861 341.07 629.439C342.481 629.017 343.967 629.819 344.389 631.23C344.811 632.641 344.009 634.127 342.598 634.549C341.187 634.971 339.701 634.169 339.279 632.758ZM362.228 655.093L341.465 632.331L342.204 631.657L362.967 654.419L362.228 655.093Z" fill="url(#paint8_diamond_423_808)"/>
<path d="M361.781 627.001C360.772 625.929 360.822 624.24 361.894 623.229C362.965 622.218 364.651 622.268 365.66 623.341C366.669 624.414 366.619 626.103 365.548 627.114C364.477 628.124 362.79 628.074 361.781 627.001ZM333.043 615.974C332.034 614.901 332.084 613.212 333.155 612.201C334.226 611.19 335.912 611.241 336.921 612.313C337.931 613.386 337.88 615.075 336.809 616.086C335.738 617.097 334.052 617.047 333.043 615.974ZM363.542 625.638L334.803 614.611L335.161 613.676L363.899 624.704L363.542 625.638Z" fill="url(#paint9_diamond_423_808)"/>
</g>
<g filter="url(#filter10_f_423_808)">
<path d="M537.01 608.598C536.588 607.187 535.102 606.386 533.691 606.808C532.28 607.229 531.478 608.715 531.9 610.126C532.322 611.537 533.808 612.339 535.219 611.917C536.63 611.495 537.431 610.01 537.01 608.598ZM538.209 579.269C537.787 577.858 536.301 577.057 534.89 577.478C533.479 577.9 532.678 579.386 533.099 580.797C533.521 582.208 535.007 583.01 536.418 582.588C537.829 582.166 538.631 580.68 538.209 579.269ZM534.954 609.383L536.154 580.054L535.155 580.013L533.955 609.342L534.954 609.383Z" fill="url(#paint10_diamond_423_808)"/>
</g>
<g filter="url(#filter11_f_423_808)">
<path d="M580.771 541.569C580.349 540.158 578.863 539.356 577.452 539.778C576.041 540.2 575.239 541.685 575.661 543.096C576.083 544.507 577.569 545.309 578.98 544.887C580.391 544.465 581.193 542.98 580.771 541.569ZM581.97 512.24C581.549 510.828 580.063 510.027 578.652 510.449C577.241 510.87 576.439 512.356 576.861 513.767C577.283 515.178 578.769 515.98 580.18 515.558C581.591 515.136 582.392 513.651 581.97 512.24ZM578.716 542.353L579.915 513.024L578.916 512.983L577.716 542.312L578.716 542.353Z" fill="url(#paint11_diamond_423_808)"/>
<path d="M575.661 543.096C575.239 541.685 576.041 540.2 577.452 539.778C578.863 539.356 580.349 540.158 580.771 541.569C581.193 542.98 580.391 544.465 578.98 544.887C577.569 545.309 576.083 544.507 575.661 543.096ZM554.72 506.402C554.298 504.991 555.1 503.505 556.511 503.083C557.922 502.661 559.408 503.463 559.829 504.874C560.251 506.285 559.45 507.771 558.038 508.193C556.627 508.615 555.142 507.813 554.72 506.402ZM577.782 542.58L556.84 505.886L557.709 505.39L578.65 542.085L577.782 542.58Z" fill="url(#paint12_diamond_423_808)"/>
<path d="M578.712 539.6C577.245 539.466 575.949 540.546 575.817 542.013C575.685 543.48 576.767 544.777 578.233 544.912C579.7 545.046 580.996 543.966 581.128 542.499C581.26 541.032 580.179 539.734 578.712 539.6ZM551.979 527.545C550.512 527.411 549.216 528.491 549.084 529.958C548.952 531.425 550.033 532.723 551.5 532.857C552.967 532.991 554.263 531.911 554.395 530.444C554.527 528.977 553.445 527.679 551.979 527.545ZM578.678 541.8L551.944 529.745L551.534 530.657L578.268 542.712L578.678 541.8Z" fill="url(#paint13_diamond_423_808)"/>
</g>
<path d="M445.597 612.955C445.175 611.544 443.689 610.743 442.278 611.164C440.867 611.586 440.065 613.072 440.487 614.483C440.909 615.894 442.395 616.696 443.806 616.274C445.217 615.852 446.019 614.366 445.597 612.955ZM446.797 583.626C446.375 582.215 444.889 581.413 443.478 581.835C442.067 582.257 441.265 583.743 441.687 585.154C442.109 586.565 443.595 587.367 445.006 586.945C446.417 586.523 447.219 585.037 446.797 583.626ZM443.542 613.74L444.742 584.411L443.742 584.37L442.543 613.699L443.542 613.74Z" fill="url(#paint14_diamond_423_808)"/>
</g>
<g filter="url(#filter12_f_423_808)">
<g filter="url(#filter13_f_423_808)">
<path d="M186.975 179.713C185.915 176.965 182.827 175.598 180.079 176.658C177.331 177.719 175.963 180.806 177.024 183.554C178.085 186.302 181.172 187.67 183.92 186.609C186.668 185.549 188.036 182.461 186.975 179.713ZM72.9752 223.713C71.9146 220.965 68.8271 219.598 66.0792 220.658C63.3312 221.719 61.9634 224.806 63.024 227.554C64.0846 230.302 67.172 231.67 69.92 230.609C72.6679 229.549 74.0358 226.461 72.9752 223.713ZM181.639 180.701L67.6395 224.701L68.3597 226.567L182.36 182.567L181.639 180.701Z" fill="url(#paint15_linear_423_808)"/>
</g>
<g filter="url(#filter14_f_423_808)">
<path d="M420.593 34.1942C418.491 32.1307 415.115 32.1617 413.051 34.2636C410.987 36.3655 411.018 39.7422 413.12 41.8058C415.222 43.8693 418.599 43.8383 420.663 41.7364C422.726 39.6345 422.695 36.2578 420.593 34.1942ZM365.736 90.0703C363.634 88.0068 360.257 88.0378 358.194 90.1397C356.13 92.2416 356.161 95.6183 358.263 97.6818C360.365 99.7454 363.742 99.7143 365.805 97.6125C367.869 95.5106 367.838 92.1338 365.736 90.0703ZM416.143 37.2994L361.286 93.1755L362.713 94.5766L417.57 38.7006L416.143 37.2994Z" fill="#8900F2"/>
</g>
<path d="M59.3329 364.776C59.3329 366.249 60.5268 367.443 61.9996 367.443C63.4723 367.443 64.6662 366.249 64.6662 364.776C64.6662 363.304 63.4723 362.11 61.9996 362.11C60.5268 362.11 59.3329 363.304 59.3329 364.776ZM43.3329 401.777C43.3329 403.249 44.5268 404.443 45.9996 404.443C47.4723 404.443 48.6662 403.249 48.6662 401.777C48.6662 400.304 47.4723 399.11 45.9996 399.11C44.5268 399.11 43.3329 400.304 43.3329 401.777ZM61.5406 364.578L45.5406 401.578L46.4585 401.975L62.4585 364.975L61.5406 364.578Z" fill="#6A00F4"/>
<path d="M64.6662 364.776C64.6662 366.249 63.4723 367.443 61.9996 367.443C60.5268 367.443 59.3329 366.249 59.3329 364.776C59.3329 363.304 60.5268 362.11 61.9996 362.11C63.4723 362.11 64.6662 363.304 64.6662 364.776ZM74.6662 407.776C74.6662 409.249 73.4723 410.443 71.9996 410.443C70.5268 410.443 69.3329 409.249 69.3329 407.776C69.3329 406.304 70.5268 405.11 71.9996 405.11C73.4723 405.11 74.6662 406.304 74.6662 407.776ZM62.4866 364.663L72.4866 407.663L71.5126 407.89L61.5126 364.89L62.4866 364.663Z" fill="#6A00F4"/>
<path d="M120.607 347.139C119.151 347.356 118.145 348.712 118.362 350.169C118.579 351.626 119.935 352.631 121.392 352.414C122.849 352.198 123.854 350.841 123.637 349.384C123.421 347.928 122.064 346.922 120.607 347.139ZM72.6073 405.464C71.1506 405.681 70.1453 407.037 70.3619 408.494C70.5785 409.951 71.9351 410.956 73.3918 410.739C74.8486 410.523 75.8539 409.166 75.6372 407.709C75.4206 406.253 74.064 405.247 72.6073 405.464ZM120.614 349.459L72.6135 407.784L73.3856 408.419L121.386 350.094L120.614 349.459Z" fill="#6A00F4"/>
<path d="M60.7271 367.252C62.0942 367.8 63.6466 367.135 64.1943 365.768C64.7421 364.401 64.0779 362.849 62.7108 362.301C61.3437 361.753 59.7914 362.418 59.2436 363.785C58.6959 365.152 59.3601 366.704 60.7271 367.252ZM97.0077 357.252C98.3748 357.8 99.9271 357.135 100.475 355.768C101.023 354.401 100.359 352.849 98.9914 352.301C97.6243 351.753 96.072 352.418 95.5242 353.785C94.9764 355.152 95.6406 356.704 97.0077 357.252ZM61.8519 365.259L98.1324 355.259L97.8667 354.295L61.5861 364.294L61.8519 365.259Z" fill="#6A00F4"/>
<path d="M157.333 565.143C157.333 566.616 158.527 567.809 160 567.809C161.472 567.809 162.666 566.616 162.666 565.143C162.666 563.67 161.472 562.476 160 562.476C158.527 562.476 157.333 563.67 157.333 565.143ZM141.333 602.143C141.333 603.616 142.527 604.81 144 604.81C145.472 604.81 146.666 603.616 146.666 602.143C146.666 600.67 145.472 599.476 144 599.476C142.527 599.476 141.333 600.67 141.333 602.143ZM159.541 564.944L143.541 601.944L144.459 602.341L160.459 565.341L159.541 564.944Z" fill="#6A00F4"/>
<path d="M162.666 565.143C162.666 566.616 161.472 567.809 160 567.809C158.527 567.809 157.333 566.616 157.333 565.143C157.333 563.67 158.527 562.476 160 562.476C161.472 562.476 162.666 563.67 162.666 565.143ZM172.666 608.143C172.666 609.616 171.472 610.809 170 610.809C168.527 610.809 167.333 609.616 167.333 608.143C167.333 606.67 168.527 605.476 170 605.476C171.472 605.476 172.666 606.67 172.666 608.143ZM160.487 565.03L170.487 608.03L169.513 608.256L159.513 565.256L160.487 565.03Z" fill="#6A00F4"/>
<path d="M218.607 547.505C217.151 547.722 216.145 549.078 216.362 550.535C216.579 551.992 217.935 552.997 219.392 552.781C220.849 552.564 221.854 551.207 221.637 549.751C221.421 548.294 220.064 547.289 218.607 547.505ZM170.607 605.83C169.151 606.047 168.145 607.404 168.362 608.86C168.579 610.317 169.935 611.322 171.392 611.106C172.849 610.889 173.854 609.533 173.637 608.076C173.421 606.619 172.064 605.614 170.607 605.83ZM218.614 549.825L170.614 608.15L171.386 608.786L219.386 550.461L218.614 549.825Z" fill="#6A00F4"/>
<path d="M158.727 567.618C160.094 568.166 161.647 567.502 162.194 566.135C162.742 564.768 162.078 563.215 160.711 562.667C159.344 562.12 157.792 562.784 157.244 564.151C156.696 565.518 157.36 567.07 158.727 567.618ZM195.008 557.618C196.375 558.166 197.927 557.502 198.475 556.135C199.023 554.768 198.359 553.215 196.992 552.668C195.624 552.12 194.072 552.784 193.524 554.151C192.977 555.518 193.641 557.07 195.008 557.618ZM159.852 565.625L196.133 555.625L195.867 554.661L159.586 564.661L159.852 565.625Z" fill="#6A00F4"/>
<g filter="url(#filter15_f_423_808)">
<path d="M131.613 159.776C131.613 161.249 132.807 162.443 134.28 162.443C135.753 162.443 136.947 161.249 136.947 159.776C136.947 158.304 135.753 157.11 134.28 157.11C132.807 157.11 131.613 158.304 131.613 159.776ZM179.113 184.134C179.113 185.607 180.307 186.8 181.78 186.8C183.253 186.8 184.447 185.607 184.447 184.134C184.447 182.661 183.253 181.467 181.78 181.467C180.307 181.467 179.113 182.661 179.113 184.134ZM134.052 160.221L181.552 184.579L182.008 183.689L134.508 159.332L134.052 160.221Z" fill="#6A00F4"/>
<path d="M136.947 159.776C136.947 161.249 135.753 162.443 134.28 162.443C132.807 162.443 131.613 161.249 131.613 159.776C131.613 158.304 132.807 157.11 134.28 157.11C135.753 157.11 136.947 158.304 136.947 159.776ZM146.947 202.776C146.947 204.249 145.753 205.443 144.28 205.443C142.807 205.443 141.613 204.249 141.613 202.776C141.613 201.304 142.807 200.11 144.28 200.11C145.753 200.11 146.947 201.304 146.947 202.776ZM134.767 159.663L144.767 202.663L143.793 202.89L133.793 159.89L134.767 159.663Z" fill="#6A00F4"/>
<path d="M171.388 147.996C169.931 148.213 168.926 149.569 169.142 151.026C169.359 152.483 170.716 153.488 172.172 153.271C173.629 153.055 174.634 151.698 174.418 150.242C174.201 148.785 172.845 147.779 171.388 147.996ZM144.888 200.464C143.431 200.681 142.426 202.037 142.642 203.494C142.859 204.951 144.216 205.956 145.672 205.739C147.129 205.523 148.134 204.166 147.918 202.709C147.701 201.253 146.345 200.247 144.888 200.464ZM171.334 150.408L144.834 202.876L145.726 203.327L172.226 150.859L171.334 150.408Z" fill="#6A00F4"/>
<path d="M133.008 162.252C134.375 162.8 135.927 162.135 136.475 160.768C137.023 159.401 136.359 157.849 134.991 157.301C133.624 156.753 132.072 157.418 131.524 158.785C130.976 160.152 131.641 161.704 133.008 162.252ZM169.288 152.252C170.655 152.8 172.208 152.135 172.755 150.768C173.303 149.401 172.639 147.849 171.272 147.301C169.905 146.753 168.353 147.418 167.805 148.785C167.257 150.152 167.921 151.704 169.288 152.252ZM134.132 160.259L170.413 150.259L170.147 149.295L133.867 159.294L134.132 160.259Z" fill="#6A00F4"/>
</g>
<g filter="url(#filter16_f_423_808)">
<path d="M129.161 250.809C128.01 249.89 126.332 250.077 125.413 251.228C124.494 252.379 124.681 254.057 125.832 254.976C126.983 255.895 128.661 255.707 129.58 254.557C130.499 253.406 130.311 251.728 129.161 250.809ZM80.4844 272.721C79.3337 271.802 77.6557 271.99 76.7366 273.14C75.8174 274.291 76.0051 275.969 77.1559 276.888C78.3066 277.807 79.9846 277.62 80.9037 276.469C81.8229 275.318 81.6351 273.64 80.4844 272.721ZM127.291 252.436L78.6149 274.349L79.0254 275.261L127.702 253.348L127.291 252.436Z" fill="#6A00F4"/>
<path d="M125.832 254.976C124.681 254.057 124.494 252.379 125.413 251.228C126.332 250.077 128.01 249.89 129.161 250.809C130.311 251.728 130.499 253.406 129.58 254.557C128.661 255.707 126.983 255.895 125.832 254.976ZM85.9935 235.953C84.8427 235.034 84.655 233.356 85.5742 232.205C86.4933 231.054 88.1713 230.867 89.322 231.786C90.4728 232.705 90.6605 234.383 89.7413 235.534C88.8222 236.684 87.1442 236.872 85.9935 235.953ZM127.281 253.344L87.4423 234.321L87.8732 233.418L127.712 252.441L127.281 253.344Z" fill="#6A00F4"/>
<path d="M113.542 289.238C114.282 287.965 113.849 286.333 112.576 285.593C111.302 284.853 109.67 285.286 108.93 286.559C108.191 287.832 108.623 289.465 109.896 290.204C111.17 290.944 112.802 290.512 113.542 289.238ZM89.0853 235.787C89.8252 234.514 89.3926 232.882 88.1192 232.142C86.8458 231.402 85.2137 231.835 84.4738 233.108C83.7339 234.381 84.1664 236.014 85.4399 236.753C86.7133 237.493 88.3454 237.061 89.0853 235.787ZM111.691 287.691L87.2342 234.24L86.3249 234.656L110.781 288.107L111.691 287.691Z" fill="#6A00F4"/>
<path d="M126.356 250.353C125.075 251.08 124.625 252.707 125.352 253.988C126.078 255.269 127.705 255.719 128.987 254.993C130.268 254.267 130.718 252.639 129.991 251.358C129.265 250.077 127.638 249.627 126.356 250.353ZM111.527 284.942C110.246 285.668 109.796 287.296 110.522 288.577C111.249 289.858 112.876 290.308 114.157 289.582C115.438 288.855 115.888 287.228 115.162 285.947C114.436 284.665 112.808 284.216 111.527 284.942ZM127.212 252.476L112.383 287.065L113.302 287.459L128.131 252.87L127.212 252.476Z" fill="#6A00F4"/>
</g>
<g filter="url(#filter17_f_423_808)">
<path d="M244.333 91.7765C244.333 93.2492 245.527 94.4431 247 94.4431C248.472 94.4431 249.666 93.2492 249.666 91.7765C249.666 90.3037 248.472 89.1098 247 89.1098C245.527 89.1098 244.333 90.3037 244.333 91.7765ZM228.333 128.777C228.333 130.249 229.527 131.443 231 131.443C232.472 131.443 233.666 130.249 233.666 128.777C233.666 127.304 232.472 126.11 231 126.11C229.527 126.11 228.333 127.304 228.333 128.777ZM246.541 91.578L230.541 128.578L231.459 128.975L247.459 91.9749L246.541 91.578Z" fill="#6A00F4"/>
<path d="M249.666 91.7765C249.666 93.2492 248.472 94.4431 247 94.4431C245.527 94.4431 244.333 93.2492 244.333 91.7765C244.333 90.3037 245.527 89.1098 247 89.1098C248.472 89.1098 249.666 90.3037 249.666 91.7765ZM259.666 134.776C259.666 136.249 258.472 137.443 257 137.443C255.527 137.443 254.333 136.249 254.333 134.776C254.333 133.304 255.527 132.11 257 132.11C258.472 132.11 259.666 133.304 259.666 134.776ZM247.487 91.6632L257.487 134.663L256.513 134.89L246.513 91.8897L247.487 91.6632Z" fill="#6A00F4"/>
<path d="M305.607 74.1389C304.151 74.3555 303.145 75.7121 303.362 77.1688C303.579 78.6256 304.935 79.6308 306.392 79.4142C307.849 79.1976 308.854 77.841 308.637 76.3843C308.421 74.9275 307.064 73.9223 305.607 74.1389ZM257.607 132.464C256.151 132.681 255.145 134.037 255.362 135.494C255.579 136.951 256.935 137.956 258.392 137.739C259.849 137.523 260.854 136.166 260.637 134.709C260.421 133.253 259.064 132.247 257.607 132.464ZM305.614 76.4588L257.613 134.784L258.386 135.419L306.386 77.0943L305.614 76.4588Z" fill="#6A00F4"/>
<path d="M245.727 94.2518C247.094 94.7996 248.647 94.1354 249.194 92.7683C249.742 91.4012 249.078 89.8489 247.711 89.3011C246.344 88.7534 244.791 89.4175 244.244 90.7846C243.696 92.1517 244.36 93.7041 245.727 94.2518ZM282.008 84.2519C283.375 84.7997 284.927 84.1355 285.475 82.7684C286.023 81.4013 285.359 79.849 283.991 79.3012C282.624 78.7534 281.072 79.4176 280.524 80.7847C279.976 82.1518 280.641 83.7041 282.008 84.2519ZM246.852 92.2585L283.132 82.2585L282.867 81.2945L246.586 91.2945L246.852 92.2585Z" fill="#6A00F4"/>
</g>
<g filter="url(#filter18_f_423_808)">
<path d="M482.19 86.1428C482.19 87.6156 483.384 88.8095 484.857 88.8095C486.33 88.8095 487.523 87.6156 487.523 86.1428C487.523 84.67 486.33 83.4761 484.857 83.4761C483.384 83.4761 482.19 84.67 482.19 86.1428ZM466.19 123.143C466.19 124.616 467.384 125.81 468.857 125.81C470.33 125.81 471.523 124.616 471.523 123.143C471.523 121.67 470.33 120.476 468.857 120.476C467.384 120.476 466.19 121.67 466.19 123.143ZM484.398 85.9443L468.398 122.944L469.316 123.341L485.316 86.3412L484.398 85.9443Z" fill="#6A00F4"/>
<path d="M487.523 86.1428C487.523 87.6156 486.33 88.8095 484.857 88.8095C483.384 88.8095 482.19 87.6156 482.19 86.1428C482.19 84.67 483.384 83.4761 484.857 83.4761C486.33 83.4761 487.523 84.67 487.523 86.1428ZM497.523 129.143C497.523 130.616 496.33 131.809 494.857 131.809C493.384 131.809 492.19 130.616 492.19 129.143C492.19 127.67 493.384 126.476 494.857 126.476C496.33 126.476 497.523 127.67 497.523 129.143ZM485.344 86.0295L495.344 129.03L494.37 129.256L484.37 86.256L485.344 86.0295Z" fill="#6A00F4"/>
<path d="M543.465 68.5052C542.008 68.7219 541.003 70.0784 541.219 71.5351C541.436 72.9919 542.792 73.9972 544.249 73.7805C545.706 73.5639 546.711 72.2074 546.494 70.7506C546.278 69.2939 544.921 68.2886 543.465 68.5052ZM495.465 126.83C494.008 127.047 493.003 128.404 493.219 129.86C493.436 131.317 494.792 132.322 496.249 132.106C497.706 131.889 498.711 130.533 498.494 129.076C498.278 127.619 496.921 126.614 495.465 126.83ZM543.471 70.8252L495.471 129.15L496.243 129.786L544.243 71.4606L543.471 70.8252Z" fill="#6A00F4"/>
<path d="M483.584 88.6182C484.951 89.166 486.504 88.5018 487.052 87.1347C487.599 85.7676 486.935 84.2153 485.568 83.6675C484.201 83.1197 482.649 83.7839 482.101 85.151C481.553 86.5181 482.217 88.0704 483.584 88.6182ZM519.865 78.6182C521.232 79.166 522.784 78.5018 523.332 77.1347C523.88 75.7676 523.216 74.2153 521.849 73.6675C520.482 73.1197 518.929 73.7839 518.381 75.151C517.834 76.5181 518.498 78.0704 519.865 78.6182ZM484.709 86.6248L520.99 76.6249L520.724 75.6608L484.443 85.6608L484.709 86.6248Z" fill="#6A00F4"/>
</g>
<g filter="url(#filter19_f_423_808)">
<path d="M53.333 469.634C53.333 471.107 54.5269 472.301 55.9996 472.301C57.4724 472.301 58.6663 471.107 58.6663 469.634C58.6663 468.161 57.4724 466.967 55.9996 466.967C54.5269 466.967 53.333 468.161 53.333 469.634ZM43.333 498.634C43.333 500.107 44.5269 501.301 45.9996 501.301C47.4724 501.301 48.6663 500.107 48.6663 498.634C48.6663 497.161 47.4724 495.967 45.9996 495.967C44.5269 495.967 43.333 497.161 43.333 498.634ZM55.5269 469.471L45.5269 498.471L46.4723 498.797L56.4723 469.797L55.5269 469.471Z" fill="url(#paint16_diamond_423_808)"/>
<path d="M58.6663 469.634C58.6663 471.107 57.4724 472.301 55.9996 472.301C54.5269 472.301 53.333 471.107 53.333 469.634C53.333 468.161 54.5269 466.967 55.9996 466.967C57.4724 466.967 58.6663 468.161 58.6663 469.634ZM72.6663 498.634C72.6663 500.107 71.4724 501.301 69.9996 501.301C68.5269 501.301 67.333 500.107 67.333 498.634C67.333 497.161 68.5269 495.967 69.9996 495.967C71.4724 495.967 72.6663 497.161 72.6663 498.634ZM56.4499 469.417L70.4499 498.417L69.5494 498.851L55.5494 469.851L56.4499 469.417Z" fill="url(#paint17_diamond_423_808)"/>
<path d="M48.383 497.717C49.0435 499.033 48.5119 500.636 47.1956 501.296C45.8792 501.957 44.2767 501.425 43.6161 500.109C42.9556 498.792 43.4873 497.19 44.8036 496.529C46.1199 495.869 47.7225 496.401 48.383 497.717ZM73.9024 517.358C74.5629 518.674 74.0312 520.277 72.7149 520.937C71.3986 521.598 69.796 521.066 69.1355 519.75C68.475 518.433 69.0066 516.831 70.3229 516.17C71.6393 515.51 73.2418 516.041 73.9024 517.358ZM46.3045 498.517L71.8239 518.157L71.214 518.95L45.6946 499.309L46.3045 498.517Z" fill="url(#paint18_diamond_423_808)"/>
</g>
<g filter="url(#filter20_f_423_808)">
<path d="M134.333 531C134.333 532.473 135.527 533.667 137 533.667C138.473 533.667 139.666 532.473 139.666 531C139.666 529.527 138.473 528.333 137 528.333C135.527 528.333 134.333 529.527 134.333 531ZM124.333 560C124.333 561.473 125.527 562.667 127 562.667C128.473 562.667 129.666 561.473 129.666 560C129.666 558.527 128.473 557.333 127 557.333C125.527 557.333 124.333 558.527 124.333 560ZM136.527 530.837L126.527 559.837L127.472 560.163L137.472 531.163L136.527 530.837Z" fill="url(#paint19_diamond_423_808)"/>
<path d="M139.666 531C139.666 532.473 138.473 533.667 137 533.667C135.527 533.667 134.333 532.473 134.333 531C134.333 529.527 135.527 528.333 137 528.333C138.473 528.333 139.666 529.527 139.666 531ZM153.666 560C153.666 561.473 152.473 562.667 151 562.667C149.527 562.667 148.333 561.473 148.333 560C148.333 558.527 149.527 557.333 151 557.333C152.473 557.333 153.666 558.527 153.666 560ZM137.45 530.783L151.45 559.783L150.549 560.217L136.549 531.217L137.45 530.783Z" fill="url(#paint20_diamond_423_808)"/>
<path d="M129.383 559.083C130.044 560.399 129.512 562.002 128.196 562.662C126.879 563.323 125.277 562.791 124.616 561.475C123.956 560.159 124.487 558.556 125.804 557.896C127.12 557.235 128.723 557.767 129.383 559.083ZM154.902 578.724C155.563 580.04 155.031 581.643 153.715 582.303C152.399 582.964 150.796 582.432 150.136 581.116C149.475 579.8 150.007 578.197 151.323 577.536C152.639 576.876 154.242 577.408 154.902 578.724ZM127.305 559.883L152.824 579.524L152.214 580.316L126.695 560.675L127.305 559.883Z" fill="url(#paint21_diamond_423_808)"/>
</g>
<g filter="url(#filter21_f_423_808)">
<path d="M83.8859 325.636C83.2557 324.305 81.6657 323.737 80.3346 324.367C79.0035 324.997 78.4352 326.587 79.0654 327.919C79.6956 329.25 81.2855 329.818 82.6167 329.188C83.9478 328.558 84.516 326.968 83.8859 325.636ZM80.5156 295.146C79.8854 293.815 78.2955 293.247 76.9644 293.877C75.6332 294.507 75.065 296.097 75.6952 297.428C76.3253 298.76 77.9153 299.328 79.2464 298.698C80.5775 298.068 81.1458 296.478 80.5156 295.146ZM81.9726 326.723L78.6024 296.233L77.6084 296.342L80.9787 326.832L81.9726 326.723Z" fill="url(#paint22_diamond_423_808)"/>
<path d="M79.0654 327.919C78.4353 326.587 79.0035 324.997 80.3346 324.367C81.6658 323.737 83.2557 324.305 83.8859 325.636C84.5161 326.968 83.9478 328.558 82.6167 329.188C81.2856 329.818 79.6956 329.25 79.0654 327.919ZM51.6281 293.332C50.998 292.001 51.5662 290.411 52.8973 289.781C54.2285 289.151 55.8184 289.719 56.4486 291.05C57.0788 292.382 56.5105 293.971 55.1794 294.602C53.8483 295.232 52.2583 294.664 51.6281 293.332ZM81.084 327.088L53.6467 292.502L54.4301 291.881L81.8674 326.467L81.084 327.088Z" fill="url(#paint23_diamond_423_808)"/>
<path d="M81.5665 323.996C80.0965 324.086 78.9777 325.35 79.0675 326.82C79.1574 328.29 80.4219 329.409 81.8919 329.319C83.3619 329.229 84.4808 327.965 84.3909 326.495C84.3011 325.025 83.0366 323.906 81.5665 323.996ZM52.0105 315.784C50.5405 315.873 49.4216 317.138 49.5115 318.608C49.6013 320.078 50.8658 321.197 52.3359 321.107C53.8059 321.017 54.9247 319.753 54.8349 318.283C54.745 316.813 53.4805 315.694 52.0105 315.784ZM81.8631 326.176L52.307 317.964L52.0393 318.927L81.5954 327.139L81.8631 326.176Z" fill="url(#paint24_diamond_423_808)"/>
</g>
<g filter="url(#filter22_f_423_808)">
<path d="M424.333 47.6338C424.333 49.1065 425.527 50.3005 427 50.3005C428.472 50.3005 429.666 49.1065 429.666 47.6338C429.666 46.161 428.472 44.9671 427 44.9671C425.527 44.9671 424.333 46.161 424.333 47.6338ZM414.333 76.6338C414.333 78.1065 415.527 79.3005 417 79.3005C418.472 79.3005 419.666 78.1065 419.666 76.6338C419.666 75.161 418.472 73.9671 417 73.9671C415.527 73.9671 414.333 75.161 414.333 76.6338ZM426.527 47.4708L416.527 76.4708L417.472 76.7968L427.472 47.7968L426.527 47.4708Z" fill="url(#paint25_diamond_423_808)"/>
<path d="M429.666 47.6338C429.666 49.1065 428.472 50.3005 427 50.3005C425.527 50.3005 424.333 49.1065 424.333 47.6338C424.333 46.161 425.527 44.9671 427 44.9671C428.472 44.9671 429.666 46.161 429.666 47.6338ZM443.666 76.6338C443.666 78.1065 442.472 79.3005 441 79.3005C439.527 79.3005 438.333 78.1065 438.333 76.6338C438.333 75.161 439.527 73.9671 441 73.9671C442.472 73.9671 443.666 75.161 443.666 76.6338ZM427.45 47.4164L441.45 76.4164L440.549 76.8512L426.549 47.8512L427.45 47.4164Z" fill="url(#paint26_diamond_423_808)"/>
<path d="M419.383 75.7167C420.044 77.0331 419.512 78.6356 418.196 79.2961C416.879 79.9567 415.277 79.425 414.616 78.1087C413.956 76.7924 414.487 75.1898 415.804 74.5293C417.12 73.8688 418.722 74.4004 419.383 75.7167ZM444.902 95.3576C445.563 96.6739 445.031 98.2765 443.715 98.937C442.399 99.5975 440.796 99.0659 440.135 97.7496C439.475 96.4332 440.007 94.8307 441.323 94.1701C442.639 93.5096 444.242 94.0412 444.902 95.3576ZM417.305 76.5165L442.824 96.1573L442.214 96.9498L416.695 77.3089L417.305 76.5165Z" fill="url(#paint27_diamond_423_808)"/>
</g>
<g filter="url(#filter23_f_423_808)">
<path d="M238.333 41.6338C238.333 43.1065 239.527 44.3005 241 44.3005C242.472 44.3005 243.666 43.1065 243.666 41.6338C243.666 40.161 242.472 38.9671 241 38.9671C239.527 38.9671 238.333 40.161 238.333 41.6338ZM228.333 70.6338C228.333 72.1065 229.527 73.3005 231 73.3005C232.472 73.3005 233.666 72.1065 233.666 70.6338C233.666 69.161 232.472 67.9671 231 67.9671C229.527 67.9671 228.333 69.161 228.333 70.6338ZM240.527 41.4708L230.527 70.4708L231.472 70.7968L241.472 41.7968L240.527 41.4708Z" fill="url(#paint28_diamond_423_808)"/>
</g>
<g filter="url(#filter24_f_423_808)">
<path d="M174.333 95.6338C174.333 97.1065 175.527 98.3005 177 98.3005C178.472 98.3005 179.666 97.1065 179.666 95.6338C179.666 94.161 178.472 92.9671 177 92.9671C175.527 92.9671 174.333 94.161 174.333 95.6338ZM164.333 124.634C164.333 126.107 165.527 127.3 167 127.3C168.472 127.3 169.666 126.107 169.666 124.634C169.666 123.161 168.472 121.967 167 121.967C165.527 121.967 164.333 123.161 164.333 124.634ZM176.527 95.4708L166.527 124.471L167.472 124.797L177.472 95.7968L176.527 95.4708Z" fill="url(#paint29_diamond_423_808)"/>
<path d="M179.666 95.6338C179.666 97.1065 178.472 98.3005 177 98.3005C175.527 98.3005 174.333 97.1065 174.333 95.6338C174.333 94.161 175.527 92.9671 177 92.9671C178.472 92.9671 179.666 94.161 179.666 95.6338ZM189.666 138.634C189.666 140.107 188.472 141.3 187 141.3C185.527 141.3 184.333 140.107 184.333 138.634C184.333 137.161 185.527 135.967 187 135.967C188.472 135.967 189.666 137.161 189.666 138.634ZM177.487 95.5205L187.487 138.521L186.513 138.747L176.513 95.747L177.487 95.5205Z" fill="url(#paint30_diamond_423_808)"/>
<path d="M175.727 98.1092C177.094 98.657 178.647 97.9928 179.194 96.6257C179.742 95.2586 179.078 93.7063 177.711 93.1585C176.344 92.6107 174.791 93.2749 174.244 94.642C173.696 96.0091 174.36 97.5614 175.727 98.1092ZM198.927 118.178C200.294 118.726 201.847 118.062 202.394 116.695C202.942 115.327 202.278 113.775 200.911 113.227C199.544 112.68 197.991 113.344 197.444 114.711C196.896 116.078 197.56 117.63 198.927 118.178ZM176.392 96.012L199.592 116.081L200.246 115.325L177.046 95.2557L176.392 96.012Z" fill="url(#paint31_diamond_423_808)"/>
</g>
<path d="M331.333 64.6338C331.333 66.1065 332.527 67.3005 334 67.3005C335.472 67.3005 336.666 66.1065 336.666 64.6338C336.666 63.161 335.472 61.9671 334 61.9671C332.527 61.9671 331.333 63.161 331.333 64.6338ZM321.333 93.6338C321.333 95.1065 322.527 96.3005 324 96.3005C325.472 96.3005 326.666 95.1065 326.666 93.6338C326.666 92.161 325.472 90.9671 324 90.9671C322.527 90.9671 321.333 92.161 321.333 93.6338ZM333.527 64.4708L323.527 93.4708L324.472 93.7968L334.472 64.7968L333.527 64.4708Z" fill="url(#paint32_diamond_423_808)"/>
</g>
<g filter="url(#filter25_f_423_808)">
<rect x="55.9998" y="56.0001" width="577" height="590" rx="288.5" fill="#E500A4"/>
</g>
<g filter="url(#filter26_i_423_808)">
<path d="M438.736 278.608L375.015 329.574M334.091 181.559L429.077 203.467M291.753 256.256L305.077 304.447M208.046 234.936L158.236 322.814M268.672 373.798L216.087 384.632M447.729 431.747L402.838 403.399M519.001 300.88L530.929 397.627M456.801 518.166L367.668 557.632M322.128 433.125L316.702 493.911M173.748 459.328L242.29 533.011" stroke="white" stroke-width="5" stroke-linecap="round"/>
</g>
<g filter="url(#filter27_i_423_808)">
<path d="M394.768 312.293C395.648 312.466 396.305 313.203 396.376 314.096L403.678 405.445C403.745 406.283 403.28 407.074 402.515 407.423L322.876 443.793C322.081 444.156 321.143 443.962 320.559 443.313L258.358 374.281C257.782 373.642 257.68 372.705 258.104 371.956L301.511 295.374C301.936 294.625 302.792 294.232 303.637 294.398L394.768 312.293Z" fill="white"/>
</g>
<g filter="url(#filter28_i_423_808)">
<path d="M378.226 557.27C378.67 557.854 378.759 558.635 378.456 559.304L363.259 592.915C362.935 593.631 362.222 594.091 361.436 594.091L333.285 594.091L294.795 588.896L233.922 586.552C232.849 586.51 231.999 585.628 231.999 584.553L231.999 526.043C231.999 525.277 232.437 524.578 233.125 524.244L319.258 482.396C320.115 481.98 321.147 482.226 321.724 482.984L378.226 557.27Z" fill="white"/>
</g>
<g filter="url(#filter29_i_423_808)">
<path d="M179.72 464.083C179.341 464.796 178.571 465.211 177.767 465.136L130.208 460.674C129.498 460.608 128.878 460.168 128.579 459.521L111.768 423.071C111.647 422.809 111.584 422.523 111.584 422.234L111.584 382.727L111.584 329.823C111.584 328.924 112.184 328.135 113.051 327.896L162.002 314.361C162.745 314.156 163.539 314.395 164.045 314.976L222.069 381.69C222.612 382.315 222.714 383.21 222.326 383.941L179.72 464.083Z" fill="white"/>
</g>
<g filter="url(#filter30_i_423_808)">
<path d="M426.532 289.326C425.651 289.159 424.989 288.427 424.912 287.534L416.957 195.902C416.899 195.239 417.175 194.591 417.692 194.173L456.896 162.482C457.714 161.821 458.904 161.906 459.619 162.677L510.739 217.75C510.833 217.851 510.917 217.962 510.988 218.081L544.498 273.896C544.933 274.62 544.866 275.539 544.33 276.193L519.953 305.947C519.489 306.514 518.753 306.781 518.034 306.645L426.532 289.326Z" fill="white"/>
</g>
<g filter="url(#filter31_i_423_808)">
<path d="M441.876 428.343C441.81 427.478 442.309 426.669 443.113 426.34L531.067 390.363C531.896 390.024 532.849 390.277 533.4 390.983L559.502 424.381C559.952 424.958 560.052 425.734 559.762 426.406L532.604 489.294C532.514 489.502 532.389 489.693 532.236 489.859L487.474 538.248C486.89 538.879 485.968 539.067 485.184 538.714L450.139 522.931C449.472 522.63 449.022 521.989 448.967 521.259L441.876 428.343Z" fill="white"/>
</g>
<g filter="url(#filter32_i_423_808)">
<path d="M298.963 139.374C299.672 139.192 300.425 139.412 300.924 139.948L340.755 182.73C341.348 183.367 341.461 184.313 341.035 185.072L298.218 261.371C297.791 262.133 296.919 262.529 296.064 262.35L204.897 243.263C204.165 243.109 203.579 242.559 203.38 241.838L188.998 189.822C188.768 188.992 189.095 188.109 189.809 187.629L238.133 155.125C238.322 154.998 238.531 154.904 238.752 154.848L298.963 139.374Z" fill="white"/>
</g>
<g filter="url(#filter33_i_423_808)">
<circle cx="336.929" cy="366.041" r="235.709" transform="rotate(74.5447 336.929 366.041)" stroke="white" stroke-width="22"/>
</g>
<g filter="url(#filter34_i_423_808)">
<ellipse cx="337.228" cy="366.436" rx="253.302" ry="254.049" transform="rotate(74.5447 337.228 366.436)" stroke="url(#paint33_linear_423_808)" stroke-width="20"/>
</g>
<defs>
<filter id="filter0_f_423_808" x="244.547" y="120.987" width="405.102" height="548.855" filterUnits="userSpaceOnUse" color-interpolation-filters="sRGB">
<feFlood flood-opacity="0" result="BackgroundImageFix"/>
<feBlend mode="normal" in="SourceGraphic" in2="BackgroundImageFix" result="shape"/>
<feGaussianBlur stdDeviation="1" result="effect1_foregroundBlur_423_808"/>
</filter>
<filter id="filter1_f_423_808" x="542.73" y="385.961" width="106.919" height="86.2158" filterUnits="userSpaceOnUse" color-interpolation-filters="sRGB">
<feFlood flood-opacity="0" result="BackgroundImageFix"/>
<feBlend mode="normal" in="SourceGraphic" in2="BackgroundImageFix" result="shape"/>
<feGaussianBlur stdDeviation="1" result="effect1_foregroundBlur_423_808"/>
</filter>
<filter id="filter2_f_423_808" x="367.191" y="587.227" width="49.54" height="80.9263" filterUnits="userSpaceOnUse" color-interpolation-filters="sRGB">
<feFlood flood-opacity="0" result="BackgroundImageFix"/>
<feBlend mode="normal" in="SourceGraphic" in2="BackgroundImageFix" result="shape"/>
<feGaussianBlur stdDeviation="1" result="effect1_foregroundBlur_423_808"/>
</filter>
<filter id="filter3_f_423_808" x="544.908" y="430.438" width="59.7372" height="65.0746" filterUnits="userSpaceOnUse" color-interpolation-filters="sRGB">
<feFlood flood-opacity="0" result="BackgroundImageFix"/>
<feBlend mode="normal" in="SourceGraphic" in2="BackgroundImageFix" result="shape"/>
<feGaussianBlur stdDeviation="1" result="effect1_foregroundBlur_423_808"/>
</filter>
<filter id="filter4_f_423_808" x="575.634" y="343.363" width="51.7483" height="52.4309" filterUnits="userSpaceOnUse" color-interpolation-filters="sRGB">
<feFlood flood-opacity="0" result="BackgroundImageFix"/>
<feBlend mode="normal" in="SourceGraphic" in2="BackgroundImageFix" result="shape"/>
<feGaussianBlur stdDeviation="1" result="effect1_foregroundBlur_423_808"/>
</filter>
<filter id="filter5_f_423_808" x="460.669" y="522.05" width="63.7101" height="77.5412" filterUnits="userSpaceOnUse" color-interpolation-filters="sRGB">
<feFlood flood-opacity="0" result="BackgroundImageFix"/>
<feBlend mode="normal" in="SourceGraphic" in2="BackgroundImageFix" result="shape"/>
<feGaussianBlur stdDeviation="1" result="effect1_foregroundBlur_423_808"/>
</filter>
<filter id="filter6_f_423_808" x="244.547" y="592.301" width="63.7099" height="77.5411" filterUnits="userSpaceOnUse" color-interpolation-filters="sRGB">
<feFlood flood-opacity="0" result="BackgroundImageFix"/>
<feBlend mode="normal" in="SourceGraphic" in2="BackgroundImageFix" result="shape"/>
<feGaussianBlur stdDeviation="1" result="effect1_foregroundBlur_423_808"/>
</filter>
<filter id="filter7_f_423_808" x="554.118" y="120.987" width="38.1469" height="49.9487" filterUnits="userSpaceOnUse" color-interpolation-filters="sRGB">
<feFlood flood-opacity="0" result="BackgroundImageFix"/>
<feBlend mode="normal" in="SourceGraphic" in2="BackgroundImageFix" result="shape"/>
<feGaussianBlur stdDeviation="1" result="effect1_foregroundBlur_423_808"/>
</filter>
<filter id="filter8_f_423_808" x="597.389" y="299.191" width="44.1214" height="36.7519" filterUnits="userSpaceOnUse" color-interpolation-filters="sRGB">
<feFlood flood-opacity="0" result="BackgroundImageFix"/>
<feBlend mode="normal" in="SourceGraphic" in2="BackgroundImageFix" result="shape"/>
<feGaussianBlur stdDeviation="1" result="effect1_foregroundBlur_423_808"/>
</filter>
<filter id="filter9_f_423_808" x="330.318" y="609.475" width="38.1468" height="49.9487" filterUnits="userSpaceOnUse" color-interpolation-filters="sRGB">
<feFlood flood-opacity="0" result="BackgroundImageFix"/>
<feBlend mode="normal" in="SourceGraphic" in2="BackgroundImageFix" result="shape"/>
<feGaussianBlur stdDeviation="1" result="effect1_foregroundBlur_423_808"/>
</filter>
<filter id="filter10_f_423_808" x="529.787" y="575.366" width="10.5344" height="38.6638" filterUnits="userSpaceOnUse" color-interpolation-filters="sRGB">
<feFlood flood-opacity="0" result="BackgroundImageFix"/>
<feBlend mode="normal" in="SourceGraphic" in2="BackgroundImageFix" result="shape"/>
<feGaussianBlur stdDeviation="1" result="effect1_foregroundBlur_423_808"/>
</filter>
<filter id="filter11_f_423_808" x="547.073" y="500.971" width="37.0102" height="46.029" filterUnits="userSpaceOnUse" color-interpolation-filters="sRGB">
<feFlood flood-opacity="0" result="BackgroundImageFix"/>
<feBlend mode="normal" in="SourceGraphic" in2="BackgroundImageFix" result="shape"/>
<feGaussianBlur stdDeviation="1" result="effect1_foregroundBlur_423_808"/>
</filter>
<filter id="filter12_f_423_808" x="41.3323" y="30.6667" width="507.191" height="582.468" filterUnits="userSpaceOnUse" color-interpolation-filters="sRGB">
<feFlood flood-opacity="0" result="BackgroundImageFix"/>
<feBlend mode="normal" in="SourceGraphic" in2="BackgroundImageFix" result="shape"/>
<feGaussianBlur stdDeviation="1" result="effect1_foregroundBlur_423_808"/>
</filter>
<filter id="filter13_f_423_808" x="60.6648" y="174.299" width="128.67" height="58.6695" filterUnits="userSpaceOnUse" color-interpolation-filters="sRGB">
<feFlood flood-opacity="0" result="BackgroundImageFix"/>
<feBlend mode="normal" in="SourceGraphic" in2="BackgroundImageFix" result="shape"/>
<feGaussianBlur stdDeviation="1" result="effect1_foregroundBlur_423_808"/>
</filter>
<filter id="filter14_f_423_808" x="354.666" y="30.6667" width="69.524" height="70.5428" filterUnits="userSpaceOnUse" color-interpolation-filters="sRGB">
<feFlood flood-opacity="0" result="BackgroundImageFix"/>
<feBlend mode="normal" in="SourceGraphic" in2="BackgroundImageFix" result="shape"/>
<feGaussianBlur stdDeviation="1" result="effect1_foregroundBlur_423_808"/>
</filter>
<filter id="filter15_f_423_808" x="129.332" y="145.109" width="57.1145" height="62.6596" filterUnits="userSpaceOnUse" color-interpolation-filters="sRGB">
<feFlood flood-opacity="0" result="BackgroundImageFix"/>
<feBlend mode="normal" in="SourceGraphic" in2="BackgroundImageFix" result="shape"/>
<feGaussianBlur stdDeviation="1" result="effect1_foregroundBlur_423_808"/>
</filter>
<filter id="filter16_f_423_808" x="74.1534" y="229.203" width="58.1853" height="63.3632" filterUnits="userSpaceOnUse" color-interpolation-filters="sRGB">
<feFlood flood-opacity="0" result="BackgroundImageFix"/>
<feBlend mode="normal" in="SourceGraphic" in2="BackgroundImageFix" result="shape"/>
<feGaussianBlur stdDeviation="1" result="effect1_foregroundBlur_423_808"/>
</filter>
<filter id="filter17_f_423_808" x="226.333" y="72.1095" width="84.3337" height="67.6592" filterUnits="userSpaceOnUse" color-interpolation-filters="sRGB">
<feFlood flood-opacity="0" result="BackgroundImageFix"/>
<feBlend mode="normal" in="SourceGraphic" in2="BackgroundImageFix" result="shape"/>
<feGaussianBlur stdDeviation="1" result="effect1_foregroundBlur_423_808"/>
</filter>
<filter id="filter18_f_423_808" x="464.19" y="66.4759" width="84.3337" height="67.6592" filterUnits="userSpaceOnUse" color-interpolation-filters="sRGB">
<feFlood flood-opacity="0" result="BackgroundImageFix"/>
<feBlend mode="normal" in="SourceGraphic" in2="BackgroundImageFix" result="shape"/>
<feGaussianBlur stdDeviation="1" result="effect1_foregroundBlur_423_808"/>
</filter>
<filter id="filter19_f_423_808" x="41.3323" y="464.967" width="34.8538" height="58.2537" filterUnits="userSpaceOnUse" color-interpolation-filters="sRGB">
<feFlood flood-opacity="0" result="BackgroundImageFix"/>
<feBlend mode="normal" in="SourceGraphic" in2="BackgroundImageFix" result="shape"/>
<feGaussianBlur stdDeviation="1" result="effect1_foregroundBlur_423_808"/>
</filter>
<filter id="filter20_f_423_808" x="122.332" y="526.333" width="34.8538" height="58.2537" filterUnits="userSpaceOnUse" color-interpolation-filters="sRGB">
<feFlood flood-opacity="0" result="BackgroundImageFix"/>
<feBlend mode="normal" in="SourceGraphic" in2="BackgroundImageFix" result="shape"/>
<feGaussianBlur stdDeviation="1" result="effect1_foregroundBlur_423_808"/>
</filter>
<filter id="filter21_f_423_808" x="47.5064" y="287.524" width="38.8896" height="43.9206" filterUnits="userSpaceOnUse" color-interpolation-filters="sRGB">
<feFlood flood-opacity="0" result="BackgroundImageFix"/>
<feBlend mode="normal" in="SourceGraphic" in2="BackgroundImageFix" result="shape"/>
<feGaussianBlur stdDeviation="1" result="effect1_foregroundBlur_423_808"/>
</filter>
<filter id="filter22_f_423_808" x="412.332" y="42.9671" width="34.8538" height="58.2537" filterUnits="userSpaceOnUse" color-interpolation-filters="sRGB">
<feFlood flood-opacity="0" result="BackgroundImageFix"/>
<feBlend mode="normal" in="SourceGraphic" in2="BackgroundImageFix" result="shape"/>
<feGaussianBlur stdDeviation="1" result="effect1_foregroundBlur_423_808"/>
</filter>
<filter id="filter23_f_423_808" x="226.333" y="36.9671" width="19.3333" height="38.3333" filterUnits="userSpaceOnUse" color-interpolation-filters="sRGB">
<feFlood flood-opacity="0" result="BackgroundImageFix"/>
<feBlend mode="normal" in="SourceGraphic" in2="BackgroundImageFix" result="shape"/>
<feGaussianBlur stdDeviation="1" result="effect1_foregroundBlur_423_808"/>
</filter>
<filter id="filter24_f_423_808" x="162.333" y="90.9665" width="42.2535" height="52.334" filterUnits="userSpaceOnUse" color-interpolation-filters="sRGB">
<feFlood flood-opacity="0" result="BackgroundImageFix"/>
<feBlend mode="normal" in="SourceGraphic" in2="BackgroundImageFix" result="shape"/>
<feGaussianBlur stdDeviation="1" result="effect1_foregroundBlur_423_808"/>
</filter>
<filter id="filter25_f_423_808" x="-0.000244141" y="0.00012207" width="689" height="702" filterUnits="userSpaceOnUse" color-interpolation-filters="sRGB">
<feFlood flood-opacity="0" result="BackgroundImageFix"/>
<feBlend mode="normal" in="SourceGraphic" in2="BackgroundImageFix" result="shape"/>
<feGaussianBlur stdDeviation="28" result="effect1_foregroundBlur_423_808"/>
</filter>
<filter id="filter26_i_423_808" x="155.736" y="179.059" width="377.693" height="382.074" filterUnits="userSpaceOnUse" color-interpolation-filters="sRGB">
<feFlood flood-opacity="0" result="BackgroundImageFix"/>
<feBlend mode="normal" in="SourceGraphic" in2="BackgroundImageFix" result="shape"/>
<feColorMatrix in="SourceAlpha" type="matrix" values="0 0 0 0 0 0 0 0 0 0 0 0 0 0 0 0 0 0 127 0" result="hardAlpha"/>
<feOffset dy="1"/>
<feGaussianBlur stdDeviation="6"/>
<feComposite in2="hardAlpha" operator="arithmetic" k2="-1" k3="1"/>
<feColorMatrix type="matrix" values="0 0 0 0 1 0 0 0 0 1 0 0 0 0 1 0 0 0 0.15 0"/>
<feBlend mode="normal" in2="shape" result="effect1_innerShadow_423_808"/>
</filter>
<filter id="filter27_i_423_808" x="257.844" y="294.36" width="145.84" height="150.614" filterUnits="userSpaceOnUse" color-interpolation-filters="sRGB">
<feFlood flood-opacity="0" result="BackgroundImageFix"/>
<feBlend mode="normal" in="SourceGraphic" in2="BackgroundImageFix" result="shape"/>
<feColorMatrix in="SourceAlpha" type="matrix" values="0 0 0 0 0 0 0 0 0 0 0 0 0 0 0 0 0 0 127 0" result="hardAlpha"/>
<feOffset dy="1"/>
<feGaussianBlur stdDeviation="6"/>
<feComposite in2="hardAlpha" operator="arithmetic" k2="-1" k3="1"/>
<feColorMatrix type="matrix" values="0 0 0 0 1 0 0 0 0 1 0 0 0 0 1 0 0 0 0.15 0"/>
<feBlend mode="normal" in2="shape" result="effect1_innerShadow_423_808"/>
</filter>
<filter id="filter28_i_423_808" x="231.999" y="482.195" width="146.634" height="112.896" filterUnits="userSpaceOnUse" color-interpolation-filters="sRGB">
<feFlood flood-opacity="0" result="BackgroundImageFix"/>
<feBlend mode="normal" in="SourceGraphic" in2="BackgroundImageFix" result="shape"/>
<feColorMatrix in="SourceAlpha" type="matrix" values="0 0 0 0 0 0 0 0 0 0 0 0 0 0 0 0 0 0 127 0" result="hardAlpha"/>
<feOffset dy="1"/>
<feGaussianBlur stdDeviation="6"/>
<feComposite in2="hardAlpha" operator="arithmetic" k2="-1" k3="1"/>
<feColorMatrix type="matrix" values="0 0 0 0 1 0 0 0 0 1 0 0 0 0 1 0 0 0 0.15 0"/>
<feBlend mode="normal" in2="shape" result="effect1_innerShadow_423_808"/>
</filter>
<filter id="filter29_i_423_808" x="111.584" y="314.289" width="110.976" height="151.856" filterUnits="userSpaceOnUse" color-interpolation-filters="sRGB">
<feFlood flood-opacity="0" result="BackgroundImageFix"/>
<feBlend mode="normal" in="SourceGraphic" in2="BackgroundImageFix" result="shape"/>
<feColorMatrix in="SourceAlpha" type="matrix" values="0 0 0 0 0 0 0 0 0 0 0 0 0 0 0 0 0 0 127 0" result="hardAlpha"/>
<feOffset dy="1"/>
<feGaussianBlur stdDeviation="6"/>
<feComposite in2="hardAlpha" operator="arithmetic" k2="-1" k3="1"/>
<feColorMatrix type="matrix" values="0 0 0 0 1 0 0 0 0 1 0 0 0 0 1 0 0 0 0.15 0"/>
<feBlend mode="normal" in2="shape" result="effect1_innerShadow_423_808"/>
</filter>
<filter id="filter30_i_423_808" x="416.949" y="162.038" width="127.834" height="145.643" filterUnits="userSpaceOnUse" color-interpolation-filters="sRGB">
<feFlood flood-opacity="0" result="BackgroundImageFix"/>
<feBlend mode="normal" in="SourceGraphic" in2="BackgroundImageFix" result="shape"/>
<feColorMatrix in="SourceAlpha" type="matrix" values="0 0 0 0 0 0 0 0 0 0 0 0 0 0 0 0 0 0 127 0" result="hardAlpha"/>
<feOffset dy="1"/>
<feGaussianBlur stdDeviation="6"/>
<feComposite in2="hardAlpha" operator="arithmetic" k2="-1" k3="1"/>
<feColorMatrix type="matrix" values="0 0 0 0 1 0 0 0 0 1 0 0 0 0 1 0 0 0 0.15 0"/>
<feBlend mode="normal" in2="shape" result="effect1_innerShadow_423_808"/>
</filter>
<filter id="filter31_i_423_808" x="441.87" y="390.214" width="118.056" height="149.676" filterUnits="userSpaceOnUse" color-interpolation-filters="sRGB">
<feFlood flood-opacity="0" result="BackgroundImageFix"/>
<feBlend mode="normal" in="SourceGraphic" in2="BackgroundImageFix" result="shape"/>
<feColorMatrix in="SourceAlpha" type="matrix" values="0 0 0 0 0 0 0 0 0 0 0 0 0 0 0 0 0 0 127 0" result="hardAlpha"/>
<feOffset dy="1"/>
<feGaussianBlur stdDeviation="6"/>
<feComposite in2="hardAlpha" operator="arithmetic" k2="-1" k3="1"/>
<feColorMatrix type="matrix" values="0 0 0 0 1 0 0 0 0 1 0 0 0 0 1 0 0 0 0.15 0"/>
<feBlend mode="normal" in2="shape" result="effect1_innerShadow_423_808"/>
</filter>
<filter id="filter32_i_423_808" x="188.925" y="139.311" width="152.366" height="124.081" filterUnits="userSpaceOnUse" color-interpolation-filters="sRGB">
<feFlood flood-opacity="0" result="BackgroundImageFix"/>
<feBlend mode="normal" in="SourceGraphic" in2="BackgroundImageFix" result="shape"/>
<feColorMatrix in="SourceAlpha" type="matrix" values="0 0 0 0 0 0 0 0 0 0 0 0 0 0 0 0 0 0 127 0" result="hardAlpha"/>
<feOffset dy="1"/>
<feGaussianBlur stdDeviation="6"/>
<feComposite in2="hardAlpha" operator="arithmetic" k2="-1" k3="1"/>
<feColorMatrix type="matrix" values="0 0 0 0 1 0 0 0 0 1 0 0 0 0 1 0 0 0 0.15 0"/>
<feBlend mode="normal" in2="shape" result="effect1_innerShadow_423_808"/>
</filter>
<filter id="filter33_i_423_808" x="90.1572" y="119.27" width="493.544" height="494.544" filterUnits="userSpaceOnUse" color-interpolation-filters="sRGB">
<feFlood flood-opacity="0" result="BackgroundImageFix"/>
<feBlend mode="normal" in="SourceGraphic" in2="BackgroundImageFix" result="shape"/>
<feColorMatrix in="SourceAlpha" type="matrix" values="0 0 0 0 0 0 0 0 0 0 0 0 0 0 0 0 0 0 127 0" result="hardAlpha"/>
<feOffset dy="1"/>
<feGaussianBlur stdDeviation="6"/>
<feComposite in2="hardAlpha" operator="arithmetic" k2="-1" k3="1"/>
<feColorMatrix type="matrix" values="0 0 0 0 1 0 0 0 0 1 0 0 0 0 1 0 0 0 0.15 0"/>
<feBlend mode="normal" in2="shape" result="effect1_innerShadow_423_808"/>
</filter>
<filter id="filter34_i_423_808" x="73.1648" y="103.015" width="528.126" height="527.842" filterUnits="userSpaceOnUse" color-interpolation-filters="sRGB">
<feFlood flood-opacity="0" result="BackgroundImageFix"/>
<feBlend mode="normal" in="SourceGraphic" in2="BackgroundImageFix" result="shape"/>
<feColorMatrix in="SourceAlpha" type="matrix" values="0 0 0 0 0 0 0 0 0 0 0 0 0 0 0 0 0 0 127 0" result="hardAlpha"/>
<feOffset dy="1"/>
<feGaussianBlur stdDeviation="6"/>
<feComposite in2="hardAlpha" operator="arithmetic" k2="-1" k3="1"/>
<feColorMatrix type="matrix" values="0 0 0 0 1 0 0 0 0 1 0 0 0 0 1 0 0 0 0.15 0"/>
<feBlend mode="normal" in2="shape" result="effect1_innerShadow_423_808"/>
</filter>
<linearGradient id="paint0_linear_423_808" x1="639.179" y1="396.872" x2="641.225" y2="399.805" gradientUnits="userSpaceOnUse">
<stop stop-color="#E500A4"/>
<stop offset="1" stop-color="#8900F2"/>
</linearGradient>
<radialGradient id="paint1_diamond_423_808" cx="0" cy="0" r="1" gradientUnits="userSpaceOnUse" gradientTransform="translate(586.772 147.181) rotate(86.8257) scale(22.5478 10.8948)">
<stop stop-color="#6A00F4"/>
<stop offset="1" stop-color="#B100E8"/>
</radialGradient>
<radialGradient id="paint2_diamond_423_808" cx="0" cy="0" r="1" gradientUnits="userSpaceOnUse" gradientTransform="translate(573.374 151.187) rotate(54.8106) scale(23.1279 14.8702)">
<stop stop-color="#6A00F4"/>
<stop offset="1" stop-color="#B100E8"/>
</radialGradient>
<radialGradient id="paint3_diamond_423_808" cx="0" cy="0" r="1" gradientUnits="userSpaceOnUse" gradientTransform="translate(569.135 129.047) rotate(28.1867) scale(23.1089 14.8824)">
<stop stop-color="#6A00F4"/>
<stop offset="1" stop-color="#B100E8"/>
</radialGradient>
<radialGradient id="paint4_diamond_423_808" cx="0" cy="0" r="1" gradientUnits="userSpaceOnUse" gradientTransform="translate(610.069 321.659) rotate(-118.458) scale(22.5484 10.8945)">
<stop stop-color="#6A00F4"/>
<stop offset="1" stop-color="#B100E8"/>
</radialGradient>
<radialGradient id="paint5_diamond_423_808" cx="0" cy="0" r="1" gradientUnits="userSpaceOnUse" gradientTransform="translate(624.592 320.381) rotate(-141.123) scale(32.9147 11.0663)">
<stop stop-color="#6A00F4"/>
<stop offset="1" stop-color="#B100E8"/>
</radialGradient>
<radialGradient id="paint6_diamond_423_808" cx="0" cy="0" r="1" gradientUnits="userSpaceOnUse" gradientTransform="translate(621.097 303.648) rotate(173.374) scale(22.5057 10.9152)">
<stop stop-color="#6A00F4"/>
<stop offset="1" stop-color="#B100E8"/>
</radialGradient>
<radialGradient id="paint7_diamond_423_808" cx="0" cy="0" r="1" gradientUnits="userSpaceOnUse" gradientTransform="translate(362.971 635.669) rotate(86.8257) scale(22.5478 10.8948)">
<stop stop-color="#6A00F4"/>
<stop offset="1" stop-color="#B100E8"/>
</radialGradient>
<radialGradient id="paint8_diamond_423_808" cx="0" cy="0" r="1" gradientUnits="userSpaceOnUse" gradientTransform="translate(349.574 639.675) rotate(54.8106) scale(23.1279 14.8702)">
<stop stop-color="#6A00F4"/>
<stop offset="1" stop-color="#B100E8"/>
</radialGradient>
<radialGradient id="paint9_diamond_423_808" cx="0" cy="0" r="1" gradientUnits="userSpaceOnUse" gradientTransform="translate(345.335 617.535) rotate(28.1867) scale(23.1089 14.8824)">
<stop stop-color="#6A00F4"/>
<stop offset="1" stop-color="#B100E8"/>
</radialGradient>
<radialGradient id="paint10_diamond_423_808" cx="0" cy="0" r="1" gradientUnits="userSpaceOnUse" gradientTransform="translate(534.829 590.275) rotate(86.8257) scale(22.5478 10.8948)">
<stop stop-color="#6A00F4"/>
<stop offset="1" stop-color="#B100E8"/>
</radialGradient>
<radialGradient id="paint11_diamond_423_808" cx="0" cy="0" r="1" gradientUnits="userSpaceOnUse" gradientTransform="translate(578.59 523.245) rotate(86.8257) scale(22.5478 10.8948)">
<stop stop-color="#6A00F4"/>
<stop offset="1" stop-color="#B100E8"/>
</radialGradient>
<radialGradient id="paint12_diamond_423_808" cx="0" cy="0" r="1" gradientUnits="userSpaceOnUse" gradientTransform="translate(564.911 518.175) rotate(64.1743) scale(32.9346 11.0597)">
<stop stop-color="#6A00F4"/>
<stop offset="1" stop-color="#B100E8"/>
</radialGradient>
<radialGradient id="paint13_diamond_423_808" cx="0" cy="0" r="1" gradientUnits="userSpaceOnUse" gradientTransform="translate(560.924 534.789) rotate(18.743) scale(22.5197 10.9084)">
<stop stop-color="#6A00F4"/>
<stop offset="1" stop-color="#B100E8"/>
</radialGradient>
<radialGradient id="paint14_diamond_423_808" cx="0" cy="0" r="1" gradientUnits="userSpaceOnUse" gradientTransform="translate(443.416 594.632) rotate(86.8257) scale(22.5478 10.8948)">
<stop stop-color="#6A00F4"/>
<stop offset="1" stop-color="#B100E8"/>
</radialGradient>
<linearGradient id="paint15_linear_423_808" x1="72.2355" y1="223.034" x2="71.11" y2="219.639" gradientUnits="userSpaceOnUse">
<stop stop-color="#E500A4"/>
<stop offset="1" stop-color="#8900F2"/>
</linearGradient>
<radialGradient id="paint16_diamond_423_808" cx="0" cy="0" r="1" gradientUnits="userSpaceOnUse" gradientTransform="translate(49.8996 488.629) rotate(-76.5005) scale(23.5609 11.4051)">
<stop stop-color="#6A00F4"/>
<stop offset="1" stop-color="#B100E8"/>
</radialGradient>
<radialGradient id="paint17_diamond_423_808" cx="0" cy="0" r="1" gradientUnits="userSpaceOnUse" gradientTransform="translate(64.5396 488.629) rotate(-108.577) scale(24.1694 15.5651)">
<stop stop-color="#6A00F4"/>
<stop offset="1" stop-color="#B100E8"/>
</radialGradient>
<radialGradient id="paint18_diamond_423_808" cx="0" cy="0" r="1" gradientUnits="userSpaceOnUse" gradientTransform="translate(62.1517 512.06) rotate(-135.225) scale(24.1694 15.5651)">
<stop stop-color="#6A00F4"/>
<stop offset="1" stop-color="#B100E8"/>
</radialGradient>
<radialGradient id="paint19_diamond_423_808" cx="0" cy="0" r="1" gradientUnits="userSpaceOnUse" gradientTransform="translate(130.9 549.995) rotate(-76.5005) scale(23.5609 11.4051)">
<stop stop-color="#6A00F4"/>
<stop offset="1" stop-color="#B100E8"/>
</radialGradient>
<radialGradient id="paint20_diamond_423_808" cx="0" cy="0" r="1" gradientUnits="userSpaceOnUse" gradientTransform="translate(145.54 549.995) rotate(-108.577) scale(24.1694 15.5651)">
<stop stop-color="#6A00F4"/>
<stop offset="1" stop-color="#B100E8"/>
</radialGradient>
<radialGradient id="paint21_diamond_423_808" cx="0" cy="0" r="1" gradientUnits="userSpaceOnUse" gradientTransform="translate(143.152 573.426) rotate(-135.225) scale(24.1694 15.5651)">
<stop stop-color="#6A00F4"/>
<stop offset="1" stop-color="#B100E8"/>
</radialGradient>
<radialGradient id="paint22_diamond_423_808" cx="0" cy="0" r="1" gradientUnits="userSpaceOnUse" gradientTransform="translate(78.8614 306.999) rotate(78.1663) scale(23.5609 11.4051)">
<stop stop-color="#6A00F4"/>
<stop offset="1" stop-color="#B100E8"/>
</radialGradient>
<radialGradient id="paint23_diamond_423_808" cx="0" cy="0" r="1" gradientUnits="userSpaceOnUse" gradientTransform="translate(63.911 303.931) rotate(55.4699) scale(34.4124 11.5783)">
<stop stop-color="#6A00F4"/>
<stop offset="1" stop-color="#B100E8"/>
</radialGradient>
<radialGradient id="paint24_diamond_423_808" cx="0" cy="0" r="1" gradientUnits="userSpaceOnUse" gradientTransform="translate(62.3975 321.728) rotate(10.0017) scale(23.5609 11.4051)">
<stop stop-color="#6A00F4"/>
<stop offset="1" stop-color="#B100E8"/>
</radialGradient>
<radialGradient id="paint25_diamond_423_808" cx="0" cy="0" r="1" gradientUnits="userSpaceOnUse" gradientTransform="translate(420.9 66.6288) rotate(-76.5005) scale(23.5609 11.4051)">
<stop stop-color="#6A00F4"/>
<stop offset="1" stop-color="#B100E8"/>
</radialGradient>
<radialGradient id="paint26_diamond_423_808" cx="0" cy="0" r="1" gradientUnits="userSpaceOnUse" gradientTransform="translate(435.54 66.6288) rotate(-108.577) scale(24.1694 15.5651)">
<stop stop-color="#6A00F4"/>
<stop offset="1" stop-color="#B100E8"/>
</radialGradient>
<radialGradient id="paint27_diamond_423_808" cx="0" cy="0" r="1" gradientUnits="userSpaceOnUse" gradientTransform="translate(433.152 90.06) rotate(-135.225) scale(24.1694 15.5651)">
<stop stop-color="#6A00F4"/>
<stop offset="1" stop-color="#B100E8"/>
</radialGradient>
<radialGradient id="paint28_diamond_423_808" cx="0" cy="0" r="1" gradientUnits="userSpaceOnUse" gradientTransform="translate(234.9 60.6288) rotate(-76.5005) scale(23.5609 11.4051)">
<stop stop-color="#6A00F4"/>
<stop offset="1" stop-color="#B100E8"/>
</radialGradient>
<radialGradient id="paint29_diamond_423_808" cx="0" cy="0" r="1" gradientUnits="userSpaceOnUse" gradientTransform="translate(170.9 114.629) rotate(-76.5005) scale(23.5609 11.4051)">
<stop stop-color="#6A00F4"/>
<stop offset="1" stop-color="#B100E8"/>
</radialGradient>
<radialGradient id="paint30_diamond_423_808" cx="0" cy="0" r="1" gradientUnits="userSpaceOnUse" gradientTransform="translate(183.1 123.799) rotate(-99.1968) scale(34.4124 11.5783)">
<stop stop-color="#6A00F4"/>
<stop offset="1" stop-color="#B100E8"/>
</radialGradient>
<radialGradient id="paint31_diamond_423_808" cx="0" cy="0" r="1" gradientUnits="userSpaceOnUse" gradientTransform="translate(192.082 108.361) rotate(-144.665) scale(23.5609 11.4051)">
<stop stop-color="#6A00F4"/>
<stop offset="1" stop-color="#B100E8"/>
</radialGradient>
<radialGradient id="paint32_diamond_423_808" cx="0" cy="0" r="1" gradientUnits="userSpaceOnUse" gradientTransform="translate(327.9 83.6288) rotate(-76.5005) scale(23.5609 11.4051)">
<stop stop-color="#6A00F4"/>
<stop offset="1" stop-color="#B100E8"/>
</radialGradient>
<linearGradient id="paint33_linear_423_808" x1="570.265" y1="569.675" x2="271.32" y2="620.195" gradientUnits="userSpaceOnUse">
<stop stop-color="#E500A4"/>
<stop offset="1" stop-color="#8900F2"/>
</linearGradient>
</defs>
</svg>
