<svg width="481" height="485" viewBox="0 0 481 485" fill="none" xmlns="http://www.w3.org/2000/svg">
<g filter="url(#filter0_i_73_43)">
<path d="M291.742 202.678L256.97 230.49M234.638 149.719L286.471 161.674M211.534 190.481L218.805 216.778M165.856 178.846L138.675 226.801M198.939 254.623L170.243 260.535M296.649 286.245L272.153 270.776M335.542 214.832L342.051 267.626M301.6 333.404L252.961 354.94M228.11 286.997L225.149 320.168M147.14 301.296L184.542 341.505" stroke="white" stroke-width="5" stroke-linecap="round"/>
</g>
<g filter="url(#filter1_f_73_43)">
<rect x="82.8846" y="81.2019" width="314.866" height="321.96" rx="157.433" fill="#E500A4"/>
</g>
<g filter="url(#filter2_i_73_43)">
<path d="M267.073 220.927C267.953 221.1 268.61 221.837 268.681 222.73L272.56 271.258C272.627 272.096 272.162 272.887 271.397 273.236L229.124 292.542C228.33 292.905 227.392 292.71 226.807 292.062L193.749 255.373C193.173 254.734 193.07 253.797 193.495 253.048L216.536 212.397C216.961 211.648 217.817 211.255 218.662 211.421L267.073 220.927Z" fill="white"/>
</g>
<g filter="url(#filter3_i_73_43)">
<path d="M258.394 354.311C258.838 354.896 258.927 355.677 258.624 356.346L250.796 373.66C250.472 374.376 249.759 374.836 248.974 374.836L234.198 374.836L213.194 372.001L180.85 370.755C179.776 370.714 178.927 369.831 178.927 368.757L178.927 338.271C178.927 337.505 179.364 336.806 180.053 336.472L225.874 314.21C226.731 313.793 227.763 314.039 228.34 314.798L258.394 354.311Z" fill="white"/>
</g>
<g filter="url(#filter4_i_73_43)">
<path d="M150.682 303.356C150.303 304.069 149.533 304.484 148.73 304.409L123.901 302.08C123.191 302.013 122.57 301.574 122.272 300.926L113.401 281.692C113.279 281.43 113.217 281.144 113.217 280.855L113.217 259.495L113.217 231.317C113.217 230.418 113.817 229.629 114.684 229.39L140.178 222.341C140.92 222.136 141.714 222.375 142.22 222.956L173.098 258.458C173.641 259.083 173.743 259.978 173.355 260.709L150.682 303.356Z" fill="white"/>
</g>
<g filter="url(#filter5_i_73_43)">
<path d="M285.759 208.655C284.878 208.488 284.216 207.756 284.139 206.863L279.899 158.027C279.841 157.364 280.117 156.717 280.634 156.299L300.992 139.842C301.81 139.181 303 139.266 303.715 140.037L330.97 169.399C331.064 169.5 331.147 169.611 331.218 169.73L349.127 199.558C349.561 200.282 349.494 201.202 348.959 201.855L336.404 217.18C335.94 217.746 335.204 218.014 334.485 217.877L285.759 208.655Z" fill="white"/>
</g>
<g filter="url(#filter6_i_73_43)">
<path d="M293.506 285.048C293.44 284.182 293.939 283.373 294.743 283.044L341.49 263.923C342.319 263.584 343.272 263.837 343.823 264.542L357.311 281.801C357.762 282.378 357.862 283.154 357.572 283.826L343.027 317.506C342.937 317.714 342.813 317.905 342.659 318.071L318.782 343.883C318.198 344.514 317.276 344.701 316.492 344.348L298.457 336.225C297.789 335.925 297.339 335.284 297.284 334.554L293.506 285.048Z" fill="white"/>
</g>
<g filter="url(#filter7_i_73_43)">
<path d="M214.945 126.833C215.655 126.651 216.407 126.871 216.907 127.407L237.822 149.872C238.415 150.509 238.528 151.456 238.102 152.214L215.388 192.691C214.961 193.452 214.089 193.848 213.234 193.669L164.679 183.504C163.947 183.35 163.361 182.801 163.161 182.079L155.635 154.858C155.406 154.029 155.733 153.146 156.447 152.666L182.144 135.381C182.333 135.254 182.542 135.16 182.763 135.104L214.945 126.833Z" fill="white"/>
</g>
<g filter="url(#filter8_i_73_43)">
<circle cx="236.186" cy="250.39" r="128.626" transform="rotate(74.5447 236.186 250.39)" stroke="white" stroke-width="22"/>
</g>
<g filter="url(#filter9_i_73_43)">
<ellipse cx="236.349" cy="250.605" rx="138.226" ry="138.633" transform="rotate(74.5447 236.349 250.605)" stroke="url(#paint0_linear_73_43)" stroke-width="20"/>
</g>
<g filter="url(#filter10_f_73_43)">
<g filter="url(#filter11_f_73_43)">
<path d="M348.276 307.572C350.078 309.902 353.426 310.328 355.753 308.523C358.081 306.718 358.507 303.366 356.706 301.035C354.904 298.705 351.556 298.28 349.229 300.084C346.901 301.889 346.475 305.242 348.276 307.572ZM398.622 268.532C400.423 270.862 403.771 271.288 406.099 269.483C408.426 267.678 408.853 264.326 407.051 261.996C405.249 259.665 401.902 259.24 399.574 261.045C397.246 262.85 396.82 266.202 398.622 268.532ZM353.103 305.095L403.448 266.055L402.225 264.473L351.879 303.513L353.103 305.095Z" fill="url(#paint1_linear_73_43)"/>
</g>
<g filter="url(#filter12_f_73_43)">
<path d="M254.215 415.966C256.819 417.343 260.042 416.347 261.414 413.741C262.786 411.134 261.788 407.905 259.185 406.527C256.581 405.15 253.358 406.146 251.986 408.752C250.614 411.358 251.612 414.588 254.215 415.966ZM273.249 379.814C275.853 381.192 279.076 380.196 280.448 377.589C281.82 374.983 280.822 371.753 278.219 370.376C275.615 368.998 272.392 369.994 271.02 372.601C269.648 375.207 270.646 378.436 273.249 379.814ZM257.584 411.714L276.618 375.563L274.85 374.627L255.816 410.779L257.584 411.714Z" fill="#8900F2"/>
</g>
<path d="M387.568 193.977C387.146 192.566 385.66 191.764 384.249 192.186C382.838 192.608 382.037 194.094 382.458 195.505C382.88 196.916 384.366 197.718 385.777 197.296C387.188 196.874 387.99 195.388 387.568 193.977ZM390.022 173.073C389.6 171.662 388.114 170.86 386.703 171.282C385.292 171.704 384.49 173.19 384.912 174.601C385.334 176.012 386.82 176.814 388.231 176.392C389.642 175.97 390.444 174.484 390.022 173.073ZM385.51 194.799L387.964 173.896L386.971 173.779L384.517 194.683L385.51 194.799Z" fill="#6A00F4"/>
<path d="M382.458 195.505C382.037 194.094 382.838 192.608 384.249 192.186C385.66 191.764 387.146 192.566 387.568 193.977C387.99 195.388 387.188 196.874 385.777 197.296C384.366 197.718 382.88 196.916 382.458 195.505ZM371.031 175.481C370.609 174.07 371.411 172.584 372.822 172.162C374.233 171.74 375.719 172.542 376.141 173.953C376.563 175.364 375.761 176.85 374.35 177.272C372.939 177.694 371.453 176.892 371.031 175.481ZM384.579 194.989L373.151 174.965L374.02 174.469L385.448 194.493L384.579 194.989Z" fill="#6A00F4"/>
<path d="M358.925 213.472C360.259 212.847 360.833 211.259 360.209 209.925C359.584 208.591 357.997 208.017 356.664 208.642C355.33 209.267 354.756 210.855 355.38 212.189C356.005 213.523 357.592 214.097 358.925 213.472ZM374.168 177.119C375.502 176.494 376.077 174.905 375.452 173.572C374.828 172.238 373.24 171.663 371.907 172.289C370.574 172.914 369.999 174.502 370.623 175.836C371.248 177.17 372.835 177.744 374.168 177.119ZM358.256 211.25L373.499 174.897L372.577 174.51L357.334 210.864L358.256 211.25Z" fill="#6A00F4"/>
<path d="M385.393 192.043C383.926 191.909 382.63 192.989 382.498 194.456C382.366 195.923 383.448 197.221 384.914 197.355C386.381 197.489 387.677 196.409 387.809 194.942C387.941 193.475 386.859 192.177 385.393 192.043ZM368.771 202.465C367.305 202.33 366.009 203.411 365.877 204.878C365.744 206.344 366.826 207.642 368.293 207.776C369.759 207.911 371.056 206.83 371.188 205.364C371.32 203.897 370.238 202.599 368.771 202.465ZM384.888 194.275L368.266 204.697L368.798 205.544L385.419 195.123L384.888 194.275Z" fill="#6A00F4"/>
<g filter="url(#filter13_f_73_43)">
<path d="M382.146 307.352C381.724 305.941 380.238 305.139 378.827 305.561C377.416 305.983 376.614 307.468 377.036 308.879C377.458 310.291 378.944 311.092 380.355 310.67C381.766 310.249 382.568 308.763 382.146 307.352ZM354.781 302.256C354.359 300.845 352.874 300.043 351.463 300.465C350.052 300.887 349.25 302.373 349.672 303.784C350.094 305.195 351.579 305.997 352.99 305.575C354.401 305.153 355.203 303.667 354.781 302.256ZM379.683 307.624L352.318 302.528L352.135 303.511L379.5 308.607L379.683 307.624Z" fill="#6A00F4"/>
<path d="M377.036 308.879C376.615 307.468 377.416 305.983 378.827 305.561C380.238 305.139 381.724 305.941 382.146 307.352C382.568 308.763 381.766 310.249 380.355 310.67C378.944 311.092 377.458 310.291 377.036 308.879ZM365.609 288.856C365.187 287.445 365.989 285.959 367.4 285.537C368.811 285.115 370.297 285.917 370.719 287.328C371.141 288.739 370.339 290.225 368.928 290.647C367.517 291.068 366.031 290.267 365.609 288.856ZM379.157 308.363L367.729 288.339L368.598 287.844L380.026 307.868L379.157 308.363Z" fill="#6A00F4"/>
<path d="M363.363 320.705C364.697 320.08 365.272 318.492 364.647 317.158C364.023 315.824 362.435 315.25 361.102 315.875C359.768 316.5 359.194 318.088 359.818 319.422C360.443 320.756 362.03 321.33 363.363 320.705ZM368.746 290.493C370.08 289.868 370.655 288.28 370.03 286.946C369.406 285.612 367.818 285.038 366.485 285.663C365.151 286.288 364.577 287.877 365.201 289.21C365.826 290.544 367.413 291.119 368.746 290.493ZM362.725 318.378L368.108 288.166L367.123 287.991L361.741 318.202L362.725 318.378Z" fill="#6A00F4"/>
<path d="M379.971 305.418C378.504 305.284 377.208 306.364 377.076 307.831C376.944 309.297 378.025 310.595 379.492 310.73C380.959 310.864 382.255 309.783 382.387 308.317C382.519 306.85 381.437 305.552 379.971 305.418ZM363.349 315.839C361.883 315.705 360.587 316.785 360.454 318.252C360.322 319.719 361.404 321.017 362.871 321.151C364.337 321.285 365.633 320.205 365.766 318.738C365.898 317.271 364.816 315.973 363.349 315.839ZM379.465 307.65L362.844 318.071L363.376 318.919L379.997 308.497L379.465 307.65Z" fill="#6A00F4"/>
</g>
<g filter="url(#filter14_f_73_43)">
<path d="M368.051 262.982C369.416 263.534 370.969 262.874 371.518 261.508C372.068 260.141 371.407 258.586 370.042 258.034C368.676 257.481 367.124 258.141 366.574 259.508C366.025 260.874 366.686 262.429 368.051 262.982ZM389.08 244.748C390.446 245.301 391.998 244.641 392.548 243.275C393.097 241.908 392.436 240.353 391.071 239.8C389.705 239.248 388.153 239.908 387.604 241.274C387.054 242.641 387.715 244.196 389.08 244.748ZM369.374 260.886L390.403 242.653L389.748 241.896L368.719 260.129L369.374 260.886Z" fill="#6A00F4"/>
<path d="M370.042 258.034C371.407 258.586 372.068 260.141 371.518 261.508C370.969 262.874 369.417 263.534 368.051 262.982C366.686 262.429 366.025 260.874 366.574 259.508C367.124 258.141 368.676 257.481 370.042 258.034ZM392.782 261.604C394.148 262.156 394.809 263.712 394.259 265.078C393.71 266.444 392.157 267.104 390.792 266.552C389.427 266 388.766 264.444 389.315 263.078C389.865 261.712 391.417 261.052 392.782 261.604ZM369.123 260.013L391.864 263.584L391.711 264.572L368.97 261.002L369.123 260.013Z" fill="#6A00F4"/>
<path d="M369.337 239.937C368.994 241.37 369.877 242.811 371.308 243.157C372.739 243.502 374.177 242.62 374.52 241.188C374.863 239.755 373.981 238.314 372.55 237.968C371.118 237.623 369.68 238.505 369.337 239.937ZM389.548 263.032C389.205 264.465 390.087 265.906 391.518 266.252C392.95 266.597 394.388 265.715 394.731 264.283C395.074 262.85 394.191 261.409 392.76 261.063C391.329 260.718 389.891 261.6 389.548 263.032ZM371.553 240.892L391.764 263.987L392.515 263.328L372.304 240.233L371.553 240.892Z" fill="#6A00F4"/>
<path d="M370.916 262.492C371.934 261.429 371.897 259.74 370.835 258.719C369.772 257.698 368.085 257.732 367.068 258.795C366.05 259.858 366.086 261.547 367.149 262.568C368.212 263.589 369.898 263.555 370.916 262.492ZM373.146 242.97C374.164 241.907 374.128 240.217 373.065 239.196C372.002 238.175 370.315 238.209 369.298 239.272C368.28 240.335 368.316 242.025 369.379 243.046C370.442 244.067 372.128 244.033 373.146 242.97ZM369.488 260.701L371.718 241.179L370.726 241.064L368.495 260.586L369.488 260.701Z" fill="#6A00F4"/>
</g>
<g filter="url(#filter15_f_73_43)">
<path d="M336.031 358.21C335.609 356.799 334.123 355.997 332.712 356.419C331.301 356.841 330.5 358.327 330.922 359.738C331.343 361.149 332.829 361.951 334.24 361.529C335.651 361.107 336.453 359.621 336.031 358.21ZM338.485 337.306C338.063 335.895 336.577 335.093 335.166 335.515C333.755 335.937 332.953 337.423 333.375 338.834C333.797 340.245 335.283 341.047 336.694 340.625C338.105 340.203 338.907 338.717 338.485 337.306ZM333.973 359.032L336.427 338.128L335.434 338.012L332.98 358.915L333.973 359.032Z" fill="#6A00F4"/>
<path d="M330.921 359.738C330.5 358.327 331.301 356.841 332.712 356.419C334.123 355.997 335.609 356.799 336.031 358.21C336.453 359.621 335.651 361.107 334.24 361.529C332.829 361.951 331.343 361.149 330.921 359.738ZM319.494 339.714C319.072 338.303 319.874 336.817 321.285 336.395C322.696 335.973 324.182 336.775 324.604 338.186C325.026 339.597 324.224 341.083 322.813 341.505C321.402 341.927 319.916 341.125 319.494 339.714ZM333.042 359.222L321.614 339.198L322.483 338.702L333.911 358.726L333.042 359.222Z" fill="#6A00F4"/>
<path d="M307.388 377.705C308.722 377.079 309.296 375.491 308.672 374.157C308.047 372.824 306.46 372.249 305.127 372.875C303.793 373.5 303.219 375.088 303.843 376.422C304.468 377.756 306.055 378.33 307.388 377.705ZM322.631 341.352C323.965 340.726 324.54 339.138 323.915 337.804C323.291 336.47 321.703 335.896 320.37 336.521C319.037 337.147 318.462 338.735 319.086 340.069C319.711 341.402 321.298 341.977 322.631 341.352ZM306.719 375.483L321.962 339.13L321.04 338.743L305.797 375.096L306.719 375.483Z" fill="#6A00F4"/>
<path d="M333.856 356.276C332.389 356.142 331.093 357.222 330.961 358.689C330.829 360.156 331.911 361.454 333.377 361.588C334.844 361.722 336.14 360.642 336.272 359.175C336.404 357.708 335.322 356.41 333.856 356.276ZM317.234 366.697C315.768 366.563 314.472 367.643 314.34 369.11C314.207 370.577 315.289 371.875 316.756 372.009C318.223 372.143 319.519 371.063 319.651 369.596C319.783 368.129 318.701 366.832 317.234 366.697ZM333.351 358.508L316.729 368.929L317.261 369.777L333.883 359.356L333.351 358.508Z" fill="#6A00F4"/>
</g>
<g filter="url(#filter16_f_73_43)">
<path d="M218.094 396.546C217.672 395.135 216.186 394.333 214.775 394.755C213.364 395.177 212.562 396.662 212.984 398.074C213.406 399.485 214.892 400.286 216.303 399.864C217.714 399.443 218.516 397.957 218.094 396.546ZM220.548 375.642C220.126 374.231 218.64 373.429 217.229 373.851C215.818 374.273 215.016 375.759 215.438 377.17C215.86 378.581 217.346 379.383 218.757 378.961C220.168 378.539 220.97 377.053 220.548 375.642ZM216.036 397.368L218.49 376.464L217.496 376.347L215.043 397.251L216.036 397.368Z" fill="#6A00F4"/>
<path d="M212.984 398.074C212.562 396.663 213.364 395.177 214.775 394.755C216.186 394.333 217.672 395.135 218.094 396.546C218.516 397.957 217.714 399.443 216.303 399.864C214.892 400.286 213.406 399.485 212.984 398.074ZM201.557 378.05C201.135 376.639 201.937 375.153 203.348 374.731C204.759 374.309 206.245 375.111 206.666 376.522C207.088 377.933 206.287 379.419 204.875 379.841C203.464 380.262 201.979 379.461 201.557 378.05ZM215.105 397.557L203.677 377.534L204.546 377.038L215.973 397.062L215.105 397.557Z" fill="#6A00F4"/>
<path d="M189.451 416.04C190.785 415.415 191.359 413.827 190.735 412.493C190.11 411.159 188.523 410.585 187.19 411.21C185.856 411.836 185.282 413.424 185.906 414.758C186.531 416.091 188.118 416.666 189.451 416.04ZM204.694 379.687C206.028 379.062 206.602 377.474 205.978 376.14C205.353 374.806 203.766 374.232 202.433 374.857C201.099 375.482 200.525 377.071 201.149 378.404C201.774 379.738 203.361 380.313 204.694 379.687ZM188.781 413.819L204.025 377.466L203.103 377.079L187.859 413.432L188.781 413.819Z" fill="#6A00F4"/>
<path d="M215.919 394.612C214.452 394.478 213.156 395.558 213.024 397.025C212.892 398.491 213.973 399.789 215.44 399.924C216.907 400.058 218.203 398.978 218.335 397.511C218.467 396.044 217.385 394.746 215.919 394.612ZM199.297 405.033C197.831 404.899 196.534 405.979 196.402 407.446C196.27 408.913 197.352 410.211 198.819 410.345C200.285 410.479 201.581 409.399 201.713 407.932C201.846 406.465 200.764 405.167 199.297 405.033ZM215.413 396.844L198.792 407.265L199.324 408.113L215.945 397.691L215.413 396.844Z" fill="#6A00F4"/>
</g>
<g filter="url(#filter17_f_73_43)">
<path d="M374.875 140.611C374.453 139.2 372.967 138.398 371.556 138.82C370.145 139.242 369.343 140.728 369.765 142.139C370.187 143.55 371.673 144.352 373.084 143.93C374.495 143.508 375.297 142.022 374.875 140.611ZM375.53 124.606C375.108 123.195 373.622 122.393 372.211 122.815C370.8 123.237 369.998 124.723 370.42 126.134C370.842 127.545 372.328 128.347 373.739 127.925C375.15 127.503 375.952 126.017 375.53 124.606ZM372.82 141.395L373.474 125.391L372.475 125.35L371.821 141.354L372.82 141.395Z" fill="url(#paint2_diamond_73_43)"/>
<path d="M369.765 142.139C369.343 140.728 370.145 139.242 371.556 138.82C372.967 138.398 374.453 139.2 374.875 140.611C375.297 142.022 374.495 143.508 373.084 143.93C371.673 144.352 370.187 143.55 369.765 142.139ZM358.435 129.718C358.013 128.307 358.815 126.821 360.226 126.399C361.637 125.977 363.123 126.779 363.545 128.19C363.967 129.601 363.165 131.087 361.754 131.509C360.343 131.931 358.857 131.129 358.435 129.718ZM371.951 141.712L360.621 129.291L361.359 128.617L372.69 141.038L371.951 141.712Z" fill="url(#paint3_diamond_73_43)"/>
<path d="M370.994 127.061C369.985 125.988 370.035 124.299 371.106 123.288C372.177 122.277 373.864 122.328 374.873 123.4C375.882 124.473 375.831 126.162 374.76 127.173C373.689 128.184 372.003 128.134 370.994 127.061ZM355.311 121.043C354.302 119.97 354.353 118.281 355.424 117.27C356.495 116.26 358.181 116.31 359.19 117.383C360.199 118.455 360.149 120.144 359.078 121.155C358.007 122.166 356.32 122.116 355.311 121.043ZM372.754 125.698L357.072 119.68L357.429 118.746L373.112 124.763L372.754 125.698Z" fill="url(#paint4_diamond_73_43)"/>
</g>
<g filter="url(#filter18_f_73_43)">
<path d="M378.992 218.449C379.976 219.545 381.661 219.634 382.755 218.648C383.849 217.662 383.938 215.974 382.954 214.879C381.97 213.783 380.285 213.694 379.191 214.68C378.097 215.666 378.008 217.354 378.992 218.449ZM385.237 233.203C386.222 234.299 387.906 234.387 389 233.402C390.094 232.416 390.183 230.728 389.199 229.633C388.215 228.537 386.53 228.448 385.436 229.434C384.342 230.42 384.253 232.107 385.237 233.203ZM380.513 216.859L386.758 231.613L387.678 231.222L381.433 216.469L380.513 216.859Z" fill="url(#paint5_diamond_73_43)"/>
<path d="M382.954 214.879C383.938 215.974 383.849 217.662 382.755 218.648C381.661 219.634 379.976 219.545 378.992 218.449C378.008 217.354 378.097 215.666 379.191 214.68C380.285 213.694 381.97 213.783 382.954 214.879ZM401.83 228.088C402.815 229.184 402.726 230.872 401.632 231.857C400.538 232.843 398.853 232.755 397.869 231.659C396.884 230.563 396.973 228.876 398.067 227.89C399.161 226.904 400.846 226.993 401.83 228.088ZM381.259 216.254L400.136 229.464L399.563 230.284L380.687 217.074L381.259 216.254Z" fill="url(#paint6_diamond_73_43)"/>
<path d="M381.783 219.267C383.165 218.76 383.874 217.227 383.366 215.844C382.859 214.46 381.328 213.75 379.946 214.257C378.564 214.764 377.855 216.297 378.362 217.68C378.87 219.064 380.401 219.774 381.783 219.267ZM397.771 218.963C399.153 218.456 399.862 216.923 399.355 215.54C398.847 214.156 397.316 213.446 395.934 213.953C394.552 214.46 393.843 215.993 394.351 217.376C394.858 218.76 396.389 219.47 397.771 218.963ZM380.874 217.262L396.862 216.958L396.843 215.958L380.855 216.262L380.874 217.262Z" fill="url(#paint7_diamond_73_43)"/>
</g>
<g filter="url(#filter19_f_73_43)">
<path d="M252.748 407.176C252.326 405.765 250.841 404.963 249.43 405.385C248.019 405.807 247.217 407.293 247.639 408.704C248.061 410.115 249.546 410.917 250.957 410.495C252.368 410.073 253.17 408.587 252.748 407.176ZM253.403 391.172C252.981 389.761 251.495 388.959 250.084 389.381C248.673 389.803 247.871 391.288 248.293 392.699C248.715 394.11 250.201 394.912 251.612 394.49C253.023 394.068 253.825 392.583 253.403 391.172ZM250.693 407.961L251.348 391.956L250.349 391.915L249.694 407.92L250.693 407.961Z" fill="url(#paint8_diamond_73_43)"/>
<path d="M247.639 408.704C247.217 407.293 248.019 405.807 249.43 405.385C250.841 404.963 252.327 405.765 252.748 407.176C253.17 408.587 252.369 410.073 250.957 410.495C249.546 410.917 248.061 410.115 247.639 408.704ZM236.308 396.283C235.886 394.872 236.688 393.386 238.099 392.964C239.51 392.542 240.996 393.344 241.418 394.755C241.84 396.166 241.038 397.652 239.627 398.074C238.216 398.496 236.73 397.694 236.308 396.283ZM249.824 408.277L238.494 395.856L239.233 395.182L250.563 407.603L249.824 408.277Z" fill="url(#paint9_diamond_73_43)"/>
<path d="M248.867 393.626C247.858 392.553 247.908 390.864 248.979 389.854C250.051 388.843 251.737 388.893 252.746 389.966C253.755 391.038 253.705 392.727 252.634 393.738C251.562 394.749 249.876 394.699 248.867 393.626ZM233.185 387.608C232.176 386.536 232.226 384.847 233.297 383.836C234.368 382.825 236.054 382.875 237.063 383.948C238.072 385.021 238.022 386.71 236.951 387.721C235.88 388.731 234.194 388.681 233.185 387.608ZM250.628 392.263L234.945 386.245L235.303 385.311L250.985 391.329L250.628 392.263Z" fill="url(#paint10_diamond_73_43)"/>
</g>
<g filter="url(#filter20_f_73_43)">
<path d="M346.53 382.405C346.108 380.994 344.622 380.192 343.211 380.614C341.8 381.036 340.998 382.522 341.42 383.933C341.842 385.344 343.328 386.146 344.739 385.724C346.15 385.302 346.952 383.816 346.53 382.405ZM347.185 366.4C346.763 364.989 345.277 364.188 343.866 364.61C342.455 365.031 341.653 366.517 342.075 367.928C342.497 369.339 343.983 370.141 345.394 369.719C346.805 369.297 347.607 367.812 347.185 366.4ZM344.475 383.19L345.129 367.185L344.13 367.144L343.476 383.149L344.475 383.19Z" fill="url(#paint11_diamond_73_43)"/>
</g>
<g filter="url(#filter21_f_73_43)">
<path d="M370.411 345.827C369.989 344.416 368.503 343.614 367.092 344.036C365.681 344.458 364.879 345.944 365.301 347.355C365.723 348.766 367.209 349.568 368.62 349.146C370.031 348.724 370.832 347.238 370.411 345.827ZM371.065 329.823C370.643 328.412 369.157 327.61 367.746 328.032C366.335 328.454 365.533 329.939 365.955 331.35C366.377 332.761 367.863 333.563 369.274 333.141C370.685 332.719 371.487 331.234 371.065 329.823ZM368.355 346.612L369.01 330.607L368.011 330.566L367.356 346.571L368.355 346.612Z" fill="url(#paint12_diamond_73_43)"/>
<path d="M365.301 347.355C364.879 345.944 365.681 344.458 367.092 344.036C368.503 343.614 369.989 344.416 370.41 345.827C370.832 347.238 370.031 348.724 368.62 349.146C367.208 349.568 365.723 348.766 365.301 347.355ZM353.873 327.331C353.451 325.92 354.253 324.434 355.664 324.012C357.075 323.591 358.561 324.392 358.983 325.803C359.405 327.214 358.603 328.7 357.192 329.122C355.781 329.544 354.295 328.742 353.873 327.331ZM367.421 346.839L355.994 326.815L356.862 326.32L368.29 346.343L367.421 346.839Z" fill="url(#paint13_diamond_73_43)"/>
<path d="M368.235 343.893C366.768 343.759 365.472 344.84 365.34 346.306C365.208 347.773 366.29 349.071 367.756 349.205C369.223 349.339 370.519 348.259 370.651 346.792C370.783 345.326 369.702 344.028 368.235 343.893ZM353.647 337.315C352.18 337.181 350.884 338.261 350.752 339.728C350.62 341.195 351.701 342.493 353.168 342.627C354.635 342.761 355.931 341.681 356.063 340.214C356.195 338.747 355.113 337.449 353.647 337.315ZM368.201 346.094L353.612 339.515L353.202 340.427L367.791 347.005L368.201 346.094Z" fill="url(#paint14_diamond_73_43)"/>
<g filter="url(#filter22_f_73_43)">
<path d="M156.618 147.839C155.557 145.091 152.47 143.723 149.722 144.784C146.974 145.845 145.606 148.932 146.667 151.68C147.727 154.428 150.815 155.796 153.563 154.735C156.311 153.675 157.679 150.587 156.618 147.839ZM94.4087 171.85C93.348 169.102 90.2606 167.734 87.5127 168.795C84.7647 169.855 83.3969 172.943 84.4575 175.691C85.5181 178.439 88.6055 179.806 91.3535 178.746C94.1014 177.685 95.4693 174.598 94.4087 171.85ZM151.282 148.827L89.073 172.837L89.7931 174.703L152.002 150.693L151.282 148.827Z" fill="url(#paint15_linear_73_43)"/>
</g>
<g filter="url(#filter23_f_73_43)">
<path d="M283.539 67.5736C281.437 65.51 278.061 65.5411 275.997 67.643C273.934 69.7448 273.965 73.1216 276.066 75.1851C278.168 77.2487 281.545 77.2176 283.609 75.1157C285.672 73.0138 285.641 69.6371 283.539 67.5736ZM253.604 98.0649C251.502 96.0013 248.125 96.0324 246.062 98.1343C243.998 100.236 244.029 103.613 246.131 105.676C248.233 107.74 251.61 107.709 253.673 105.607C255.737 103.505 255.706 100.128 253.604 98.0649ZM279.089 70.6788L249.154 101.17L250.581 102.571L280.516 72.0799L279.089 70.6788Z" fill="#8900F2"/>
</g>
<path d="M83.4922 249.7C83.4922 251.173 84.6861 252.366 86.1589 252.366C87.6316 252.366 88.8255 251.173 88.8255 249.7C88.8255 248.227 87.6316 247.033 86.1589 247.033C84.6861 247.033 83.4922 248.227 83.4922 249.7ZM74.7611 269.891C74.7611 271.363 75.955 272.557 77.4277 272.557C78.9005 272.557 80.0944 271.363 80.0944 269.891C80.0944 268.418 78.9005 267.224 77.4277 267.224C75.955 267.224 74.7611 268.418 74.7611 269.891ZM85.6999 249.501L76.9688 269.692L77.8867 270.089L86.6178 249.898L85.6999 249.501Z" fill="#6A00F4"/>
<path d="M88.8254 249.7C88.8254 251.173 87.6315 252.366 86.1588 252.366C84.686 252.366 83.4921 251.173 83.4921 249.7C83.4921 248.227 84.686 247.033 86.1588 247.033C87.6315 247.033 88.8254 248.227 88.8254 249.7ZM94.2824 273.165C94.2824 274.637 93.0885 275.831 91.6157 275.831C90.143 275.831 88.9491 274.637 88.9491 273.165C88.9491 271.692 90.143 270.498 91.6157 270.498C93.0885 270.498 94.2824 271.692 94.2824 273.165ZM86.6458 249.586L92.1027 273.051L91.1287 273.278L85.6718 249.813L86.6458 249.586Z" fill="#6A00F4"/>
<path d="M117.963 238.877C116.506 239.093 115.501 240.45 115.717 241.907C115.934 243.363 117.29 244.369 118.747 244.152C120.204 243.935 121.209 242.579 120.993 241.122C120.776 239.665 119.419 238.66 117.963 238.877ZM91.7692 270.704C90.3125 270.921 89.3072 272.278 89.5238 273.734C89.7405 275.191 91.097 276.196 92.5537 275.98C94.0105 275.763 95.0158 274.407 94.7991 272.95C94.5825 271.493 93.226 270.488 91.7692 270.704ZM117.969 241.197L91.7754 273.024L92.5475 273.66L118.741 241.832L117.969 241.197Z" fill="#6A00F4"/>
<path d="M85.0139 252.175C86.381 252.723 87.9333 252.059 88.4811 250.692C89.0289 249.325 88.3647 247.772 86.9976 247.224C85.6305 246.677 84.0782 247.341 83.5304 248.708C82.9826 250.075 83.6468 251.627 85.0139 252.175ZM104.812 246.718C106.179 247.266 107.731 246.602 108.279 245.235C108.827 243.868 108.163 242.315 106.796 241.767C105.429 241.22 103.876 241.884 103.329 243.251C102.781 244.618 103.445 246.17 104.812 246.718ZM86.1386 250.182L105.937 244.725L105.671 243.761L85.8729 249.218L86.1386 250.182Z" fill="#6A00F4"/>
<path d="M136.97 359.039C136.97 360.511 138.164 361.705 139.637 361.705C141.11 361.705 142.304 360.511 142.304 359.039C142.304 357.566 141.11 356.372 139.637 356.372C138.164 356.372 136.97 357.566 136.97 359.039ZM128.239 379.229C128.239 380.702 129.433 381.896 130.906 381.896C132.379 381.896 133.573 380.702 133.573 379.229C133.573 377.757 132.379 376.563 130.906 376.563C129.433 376.563 128.239 377.757 128.239 379.229ZM139.178 358.84L130.447 379.031L131.365 379.428L140.096 359.237L139.178 358.84Z" fill="#6A00F4"/>
<path d="M142.304 359.039C142.304 360.511 141.11 361.705 139.637 361.705C138.164 361.705 136.97 360.511 136.97 359.039C136.97 357.566 138.164 356.372 139.637 356.372C141.11 356.372 142.304 357.566 142.304 359.039ZM147.761 382.504C147.761 383.976 146.567 385.17 145.094 385.17C143.621 385.17 142.427 383.976 142.427 382.504C142.427 381.031 143.621 379.837 145.094 379.837C146.567 379.837 147.761 381.031 147.761 382.504ZM140.124 358.925L145.581 382.39L144.607 382.617L139.15 359.152L140.124 358.925Z" fill="#6A00F4"/>
<path d="M171.441 348.216C169.984 348.432 168.979 349.789 169.195 351.246C169.412 352.702 170.769 353.708 172.225 353.491C173.682 353.274 174.687 351.918 174.471 350.461C174.254 349.004 172.898 347.999 171.441 348.216ZM145.247 380.043C143.791 380.26 142.785 381.617 143.002 383.073C143.219 384.53 144.575 385.535 146.032 385.319C147.489 385.102 148.494 383.746 148.277 382.289C148.061 380.832 146.704 379.827 145.247 380.043ZM171.447 350.536L145.254 382.363L146.026 382.999L172.219 351.171L171.447 350.536Z" fill="#6A00F4"/>
<path d="M138.492 361.514C139.859 362.062 141.412 361.398 141.959 360.031C142.507 358.663 141.843 357.111 140.476 356.563C139.109 356.016 137.556 356.68 137.009 358.047C136.461 359.414 137.125 360.966 138.492 361.514ZM158.29 356.057C159.657 356.605 161.21 355.941 161.758 354.574C162.305 353.207 161.641 351.654 160.274 351.106C158.907 350.559 157.355 351.223 156.807 352.59C156.259 353.957 156.923 355.509 158.29 356.057ZM139.617 359.521L159.415 354.064L159.149 353.1L139.351 358.557L139.617 359.521Z" fill="#6A00F4"/>
<g filter="url(#filter24_f_73_43)">
<path d="M122.935 137.832C122.935 139.305 124.129 140.499 125.602 140.499C127.075 140.499 128.269 139.305 128.269 137.832C128.269 136.359 127.075 135.166 125.602 135.166C124.129 135.166 122.935 136.359 122.935 137.832ZM148.856 151.124C148.856 152.597 150.05 153.791 151.523 153.791C152.995 153.791 154.189 152.597 154.189 151.124C154.189 149.651 152.995 148.457 151.523 148.457C150.05 148.457 148.856 149.651 148.856 151.124ZM125.374 138.277L151.294 151.569L151.751 150.679L125.83 137.387L125.374 138.277Z" fill="#6A00F4"/>
<path d="M128.269 137.832C128.269 139.305 127.075 140.499 125.602 140.499C124.129 140.499 122.935 139.305 122.935 137.832C122.935 136.359 124.129 135.166 125.602 135.166C127.075 135.166 128.269 136.359 128.269 137.832ZM133.726 161.297C133.726 162.77 132.532 163.964 131.059 163.964C129.586 163.964 128.392 162.77 128.392 161.297C128.392 159.824 129.586 158.63 131.059 158.63C132.532 158.63 133.726 159.824 133.726 161.297ZM126.089 137.719L131.546 161.184L130.572 161.41L125.115 137.945L126.089 137.719Z" fill="#6A00F4"/>
<path d="M145.673 130.205C144.217 130.422 143.211 131.779 143.428 133.235C143.645 134.692 145.001 135.697 146.458 135.481C147.915 135.264 148.92 133.908 148.703 132.451C148.487 130.994 147.13 129.989 145.673 130.205ZM131.212 158.837C129.756 159.054 128.75 160.41 128.967 161.867C129.184 163.324 130.54 164.329 131.997 164.112C133.454 163.896 134.459 162.539 134.242 161.082C134.026 159.626 132.669 158.62 131.212 158.837ZM145.619 132.618L131.158 161.249L132.051 161.7L146.512 133.068L145.619 132.618Z" fill="#6A00F4"/>
<path d="M124.457 140.308C125.824 140.855 127.377 140.191 127.924 138.824C128.472 137.457 127.808 135.905 126.441 135.357C125.074 134.809 123.521 135.473 122.974 136.84C122.426 138.207 123.09 139.76 124.457 140.308ZM144.255 134.851C145.622 135.398 147.175 134.734 147.722 133.367C148.27 132 147.606 130.448 146.239 129.9C144.872 129.352 143.32 130.016 142.772 131.383C142.224 132.751 142.888 134.303 144.255 134.851ZM125.582 138.314L145.38 132.857L145.114 131.893L125.316 137.35L125.582 138.314Z" fill="#6A00F4"/>
</g>
<g filter="url(#filter25_f_73_43)">
<path d="M123.565 186.562C122.414 185.642 120.736 185.83 119.817 186.981C118.898 188.132 119.085 189.81 120.236 190.729C121.387 191.648 123.065 191.46 123.984 190.309C124.903 189.159 124.715 187.481 123.565 186.562ZM97.0021 198.519C95.8514 197.6 94.1734 197.788 93.2542 198.938C92.3351 200.089 92.5228 201.767 93.6735 202.686C94.8243 203.605 96.5022 203.418 97.4214 202.267C98.3406 201.116 98.1528 199.438 97.0021 198.519ZM121.695 188.189L95.1326 200.147L95.5431 201.058L122.106 189.101L121.695 188.189Z" fill="#6A00F4"/>
<path d="M120.236 190.729C119.085 189.81 118.897 188.132 119.817 186.981C120.736 185.83 122.414 185.642 123.564 186.562C124.715 187.481 124.903 189.159 123.984 190.309C123.065 191.46 121.387 191.648 120.236 190.729ZM98.4961 180.348C97.3454 179.429 97.1577 177.751 98.0768 176.6C98.996 175.449 100.674 175.262 101.825 176.181C102.975 177.1 103.163 178.778 102.244 179.929C101.325 181.079 99.6469 181.267 98.4961 180.348ZM121.685 189.096L99.945 178.716L100.376 177.813L122.116 188.194L121.685 189.096Z" fill="#6A00F4"/>
<path d="M115.333 209.088C116.073 207.814 115.64 206.182 114.367 205.442C113.093 204.702 111.461 205.135 110.721 206.408C109.981 207.682 110.414 209.314 111.687 210.054C112.961 210.794 114.593 210.361 115.333 209.088ZM101.987 179.92C102.727 178.646 102.294 177.014 101.021 176.274C99.7474 175.534 98.1153 175.967 97.3754 177.24C96.6355 178.514 97.068 180.146 98.3414 180.886C99.6149 181.626 101.247 181.193 101.987 179.92ZM113.482 207.54L100.136 178.372L99.2265 178.788L112.572 207.956L113.482 207.54Z" fill="#6A00F4"/>
<path d="M120.681 186.206C119.399 186.932 118.95 188.559 119.676 189.841C120.402 191.122 122.03 191.572 123.311 190.845C124.592 190.119 125.042 188.492 124.316 187.21C123.589 185.929 121.962 185.479 120.681 186.206ZM112.588 205.08C111.307 205.807 110.857 207.434 111.584 208.715C112.31 209.997 113.937 210.446 115.218 209.72C116.5 208.994 116.95 207.366 116.223 206.085C115.497 204.804 113.869 204.354 112.588 205.08ZM121.536 188.328L113.444 207.203L114.363 207.597L122.455 188.723L121.536 188.328Z" fill="#6A00F4"/>
</g>
<g filter="url(#filter26_f_73_43)">
<path d="M184.446 100.725C184.446 102.198 185.64 103.392 187.112 103.392C188.585 103.392 189.779 102.198 189.779 100.725C189.779 99.2521 188.585 98.0582 187.112 98.0582C185.64 98.0582 184.446 99.2521 184.446 100.725ZM175.715 120.916C175.715 122.388 176.909 123.582 178.381 123.582C179.854 123.582 181.048 122.388 181.048 120.916C181.048 119.443 179.854 118.249 178.381 118.249C176.909 118.249 175.715 119.443 175.715 120.916ZM186.654 100.526L177.922 120.717L178.84 121.114L187.571 100.923L186.654 100.526Z" fill="#6A00F4"/>
<path d="M189.779 100.725C189.779 102.198 188.585 103.392 187.113 103.392C185.64 103.392 184.446 102.198 184.446 100.725C184.446 99.2521 185.64 98.0582 187.113 98.0582C188.585 98.0582 189.779 99.2521 189.779 100.725ZM195.236 124.19C195.236 125.663 194.042 126.856 192.569 126.856C191.097 126.856 189.903 125.663 189.903 124.19C189.903 122.717 191.097 121.523 192.569 121.523C194.042 121.523 195.236 122.717 195.236 124.19ZM187.6 100.612L193.056 124.076L192.082 124.303L186.625 100.838L187.6 100.612Z" fill="#6A00F4"/>
<path d="M218.916 89.9018C217.459 90.1185 216.454 91.475 216.671 92.9318C216.887 94.3885 218.244 95.3938 219.701 95.1771C221.157 94.9605 222.163 93.604 221.946 92.1472C221.729 90.6905 220.373 89.6852 218.916 89.9018ZM192.723 121.73C191.266 121.946 190.261 123.303 190.477 124.76C190.694 126.216 192.051 127.222 193.507 127.005C194.964 126.788 195.969 125.432 195.753 123.975C195.536 122.518 194.18 121.513 192.723 121.73ZM218.922 92.2218L192.729 124.05L193.501 124.685L219.695 92.8572L218.922 92.2218Z" fill="#6A00F4"/>
<path d="M185.968 103.2C187.335 103.748 188.887 103.084 189.435 101.717C189.983 100.35 189.318 98.7973 187.951 98.2495C186.584 97.7018 185.032 98.3659 184.484 99.733C183.936 101.1 184.601 102.652 185.968 103.2ZM205.766 97.7433C207.133 98.2911 208.685 97.6269 209.233 96.2598C209.781 94.8927 209.117 93.3404 207.749 92.7926C206.382 92.2448 204.83 92.909 204.282 94.2761C203.734 95.6432 204.399 97.1955 205.766 97.7433ZM187.092 101.207L206.89 95.75L206.625 94.7859L186.827 100.243L187.092 101.207Z" fill="#6A00F4"/>
</g>
<g filter="url(#filter27_f_73_43)">
<path d="M314.243 97.6506C314.243 99.1234 315.437 100.317 316.91 100.317C318.383 100.317 319.577 99.1234 319.577 97.6506C319.577 96.1778 318.383 94.9839 316.91 94.9839C315.437 94.9839 314.243 96.1778 314.243 97.6506ZM305.512 117.841C305.512 119.314 306.706 120.508 308.179 120.508C309.652 120.508 310.846 119.314 310.846 117.841C310.846 116.369 309.652 115.175 308.179 115.175C306.706 115.175 305.512 116.369 305.512 117.841ZM316.451 97.4521L307.72 117.643L308.638 118.04L317.369 97.8491L316.451 97.4521Z" fill="#6A00F4"/>
<path d="M319.577 97.6506C319.577 99.1234 318.383 100.317 316.91 100.317C315.437 100.317 314.243 99.1234 314.243 97.6506C314.243 96.1778 315.437 94.9839 316.91 94.9839C318.383 94.9839 319.577 96.1778 319.577 97.6506ZM325.034 121.116C325.034 122.588 323.84 123.782 322.367 123.782C320.894 123.782 319.7 122.588 319.7 121.116C319.7 119.643 320.894 118.449 322.367 118.449C323.84 118.449 325.034 119.643 325.034 121.116ZM317.397 97.5373L322.854 121.002L321.88 121.229L316.423 97.7639L317.397 97.5373Z" fill="#6A00F4"/>
<path d="M348.714 86.8276C347.257 87.0442 346.252 88.4007 346.468 89.8575C346.685 91.3142 348.042 92.3195 349.498 92.1029C350.955 91.8862 351.96 90.5297 351.744 89.0729C351.527 87.6162 350.171 86.6109 348.714 86.8276ZM322.52 118.655C321.064 118.872 320.058 120.229 320.275 121.685C320.492 123.142 321.848 124.147 323.305 123.931C324.762 123.714 325.767 122.357 325.55 120.901C325.334 119.444 323.977 118.439 322.52 118.655ZM348.72 89.1475L322.527 120.975L323.299 121.611L349.492 89.7829L348.72 89.1475Z" fill="#6A00F4"/>
<path d="M315.765 100.126C317.132 100.674 318.685 100.01 319.232 98.6425C319.78 97.2754 319.116 95.7231 317.749 95.1753C316.382 94.6275 314.829 95.2917 314.282 96.6588C313.734 98.0259 314.398 99.5782 315.765 100.126ZM335.563 94.669C336.93 95.2168 338.483 94.5526 339.031 93.1855C339.578 91.8184 338.914 90.2661 337.547 89.7183C336.18 89.1706 334.628 89.8347 334.08 91.2018C333.532 92.5689 334.196 94.1212 335.563 94.669ZM316.89 98.1326L336.688 92.6757L336.422 91.7117L316.624 97.1686L316.89 98.1326Z" fill="#6A00F4"/>
</g>
<g filter="url(#filter28_f_73_43)">
<path d="M80.218 306.92C80.218 308.393 81.4119 309.587 82.8847 309.587C84.3574 309.587 85.5514 308.393 85.5514 306.92C85.5514 305.447 84.3574 304.253 82.8847 304.253C81.4119 304.253 80.218 305.447 80.218 306.92ZM74.7611 322.745C74.7611 324.218 75.955 325.412 77.4277 325.412C78.9005 325.412 80.0944 324.218 80.0944 322.745C80.0944 321.272 78.9005 320.078 77.4277 320.078C75.955 320.078 74.7611 321.272 74.7611 322.745ZM82.412 306.757L76.955 322.582L77.9004 322.908L83.3574 307.083L82.412 306.757Z" fill="url(#paint16_diamond_73_43)"/>
<path d="M85.5513 306.92C85.5513 308.393 84.3574 309.587 82.8847 309.587C81.4119 309.587 80.218 308.393 80.218 306.92C80.218 305.447 81.4119 304.253 82.8847 304.253C84.3574 304.253 85.5513 305.447 85.5513 306.92ZM93.1911 322.745C93.1911 324.218 91.9972 325.412 90.5244 325.412C89.0517 325.412 87.8577 324.218 87.8577 322.745C87.8577 321.272 89.0517 320.078 90.5244 320.078C91.9972 320.078 93.1911 321.272 93.1911 322.745ZM83.335 306.703L90.9747 322.528L90.0741 322.962L82.4344 307.137L83.335 306.703Z" fill="url(#paint17_diamond_73_43)"/>
<path d="M79.8111 321.701C80.4717 323.018 79.94 324.62 78.6237 325.281C77.3074 325.941 75.7048 325.41 75.0443 324.093C74.3837 322.777 74.9154 321.174 76.2317 320.514C77.548 319.853 79.1506 320.385 79.8111 321.701ZM93.7369 332.419C94.3974 333.736 93.8658 335.338 92.5495 335.999C91.2331 336.659 89.6306 336.127 88.9701 334.811C88.3095 333.495 88.8412 331.892 90.1575 331.232C91.4738 330.571 93.0764 331.103 93.7369 332.419ZM77.7327 322.501L91.6584 333.219L91.0485 334.011L77.1227 323.293L77.7327 322.501Z" fill="url(#paint18_diamond_73_43)"/>
</g>
<g filter="url(#filter29_f_73_43)">
<path d="M124.419 340.407C124.419 341.88 125.613 343.074 127.086 343.074C128.559 343.074 129.753 341.88 129.753 340.407C129.753 338.934 128.559 337.741 127.086 337.741C125.613 337.741 124.419 338.934 124.419 340.407ZM118.962 356.232C118.962 357.705 120.156 358.899 121.629 358.899C123.102 358.899 124.296 357.705 124.296 356.232C124.296 354.76 123.102 353.566 121.629 353.566C120.156 353.566 118.962 354.76 118.962 356.232ZM126.613 340.244L121.156 356.069L122.102 356.395L127.559 340.57L126.613 340.244Z" fill="url(#paint19_diamond_73_43)"/>
<path d="M129.753 340.407C129.753 341.88 128.559 343.074 127.086 343.074C125.613 343.074 124.419 341.88 124.419 340.407C124.419 338.934 125.613 337.741 127.086 337.741C128.559 337.741 129.753 338.934 129.753 340.407ZM137.392 356.232C137.392 357.705 136.199 358.899 134.726 358.899C133.253 358.899 132.059 357.705 132.059 356.232C132.059 354.76 133.253 353.566 134.726 353.566C136.199 353.566 137.392 354.76 137.392 356.232ZM127.536 340.19L135.176 356.015L134.276 356.45L126.636 340.625L127.536 340.19Z" fill="url(#paint20_diamond_73_43)"/>
<path d="M124.013 355.189C124.673 356.505 124.141 358.107 122.825 358.768C121.509 359.429 119.906 358.897 119.246 357.581C118.585 356.264 119.117 354.662 120.433 354.001C121.749 353.341 123.352 353.872 124.013 355.189ZM137.938 365.907C138.599 367.223 138.067 368.825 136.751 369.486C135.435 370.146 133.832 369.615 133.171 368.298C132.511 366.982 133.043 365.38 134.359 364.719C135.675 364.059 137.278 364.59 137.938 365.907ZM121.934 355.988L135.86 366.706L135.25 367.499L121.324 356.781L121.934 355.988Z" fill="url(#paint21_diamond_73_43)"/>
</g>
<g filter="url(#filter30_f_73_43)">
<path d="M99.197 227.823C98.5669 226.492 96.9769 225.923 95.6458 226.554C94.3147 227.184 93.7464 228.774 94.3766 230.105C95.0068 231.436 96.5967 232.004 97.9278 231.374C99.259 230.744 99.8272 229.154 99.197 227.823ZM97.3579 211.185C96.7277 209.853 95.1378 209.285 93.8067 209.915C92.4755 210.546 91.9073 212.136 92.5375 213.467C93.1676 214.798 94.7576 215.366 96.0887 214.736C97.4198 214.106 97.9881 212.516 97.3579 211.185ZM97.2838 228.909L95.4447 212.271L94.4507 212.381L96.2898 229.019L97.2838 228.909Z" fill="url(#paint22_diamond_73_43)"/>
<path d="M94.3767 230.105C93.7465 228.774 94.3148 227.184 95.6459 226.554C96.977 225.923 98.567 226.492 99.1971 227.823C99.8273 229.154 99.2591 230.744 97.9279 231.374C96.5968 232.004 95.0069 231.436 94.3767 230.105ZM79.4043 211.231C78.7741 209.9 79.3424 208.31 80.6735 207.68C82.0046 207.05 83.5946 207.618 84.2247 208.949C84.8549 210.281 84.2867 211.87 82.9555 212.501C81.6244 213.131 80.0345 212.563 79.4043 211.231ZM96.3952 229.275L81.4228 210.401L82.2062 209.78L97.1786 228.653L96.3952 229.275Z" fill="url(#paint23_diamond_73_43)"/>
<path d="M96.7626 226.237C95.2926 226.326 94.1738 227.591 94.2636 229.061C94.3535 230.531 95.618 231.65 97.088 231.56C98.558 231.47 99.6769 230.206 99.587 228.736C99.4972 227.266 98.2327 226.147 96.7626 226.237ZM80.634 221.755C79.164 221.845 78.0452 223.11 78.135 224.58C78.2249 226.05 79.4894 227.169 80.9594 227.079C82.4294 226.989 83.5483 225.724 83.4584 224.254C83.3686 222.784 82.104 221.665 80.634 221.755ZM97.0592 228.417L80.9306 223.935L80.6629 224.899L96.7915 229.38L97.0592 228.417Z" fill="url(#paint24_diamond_73_43)"/>
</g>
<g filter="url(#filter31_f_73_43)">
<path d="M282.671 76.6364C282.671 78.1092 283.865 79.3031 285.338 79.3031C286.81 79.3031 288.004 78.1092 288.004 76.6364C288.004 75.1637 286.81 73.9698 285.338 73.9698C283.865 73.9698 282.671 75.1637 282.671 76.6364ZM277.214 92.4616C277.214 93.9344 278.408 95.1283 279.881 95.1283C281.353 95.1283 282.547 93.9344 282.547 92.4616C282.547 90.9888 281.353 89.7949 279.881 89.7949C278.408 89.7949 277.214 90.9888 277.214 92.4616ZM284.865 76.4734L279.408 92.2986L280.353 92.6246L285.81 76.7994L284.865 76.4734Z" fill="url(#paint25_diamond_73_43)"/>
<path d="M288.004 76.6364C288.004 78.1092 286.81 79.3031 285.338 79.3031C283.865 79.3031 282.671 78.1092 282.671 76.6364C282.671 75.1637 283.865 73.9698 285.338 73.9698C286.81 73.9698 288.004 75.1637 288.004 76.6364ZM295.644 92.4616C295.644 93.9344 294.45 95.1283 292.977 95.1283C291.505 95.1283 290.311 93.9344 290.311 92.4616C290.311 90.9888 291.505 89.7949 292.977 89.7949C294.45 89.7949 295.644 90.9888 295.644 92.4616ZM285.788 76.4191L293.428 92.2442L292.527 92.679L284.887 76.8538L285.788 76.4191Z" fill="url(#paint26_diamond_73_43)"/>
<path d="M282.264 91.4178C282.925 92.7341 282.393 94.3367 281.077 94.9972C279.76 95.6577 278.158 95.1261 277.497 93.8098C276.837 92.4934 277.368 90.8909 278.685 90.2304C280.001 89.5698 281.604 90.1015 282.264 91.4178ZM296.19 102.136C296.85 103.452 296.319 105.055 295.002 105.715C293.686 106.376 292.084 105.844 291.423 104.528C290.763 103.211 291.294 101.609 292.611 100.948C293.927 100.288 295.529 100.819 296.19 102.136ZM280.186 92.2176L294.111 102.935L293.502 103.728L279.576 93.01L280.186 92.2176Z" fill="url(#paint27_diamond_73_43)"/>
</g>
<g filter="url(#filter32_f_73_43)">
<path d="M181.172 73.3623C181.172 74.835 182.366 76.029 183.838 76.029C185.311 76.029 186.505 74.835 186.505 73.3623C186.505 71.8895 185.311 70.6956 183.838 70.6956C182.366 70.6956 181.172 71.8895 181.172 73.3623ZM175.715 89.1875C175.715 90.6602 176.909 91.8541 178.381 91.8541C179.854 91.8541 181.048 90.6602 181.048 89.1875C181.048 87.7147 179.854 86.5208 178.381 86.5208C176.909 86.5208 175.715 87.7147 175.715 89.1875ZM183.366 73.1993L177.909 89.0245L178.854 89.3505L184.311 73.5253L183.366 73.1993Z" fill="url(#paint28_diamond_73_43)"/>
</g>
<g filter="url(#filter33_f_73_43)">
<path d="M146.247 102.83C146.247 104.303 147.441 105.497 148.914 105.497C150.387 105.497 151.581 104.303 151.581 102.83C151.581 101.357 150.387 100.163 148.914 100.163C147.441 100.163 146.247 101.357 146.247 102.83ZM140.79 118.655C140.79 120.128 141.984 121.322 143.457 121.322C144.93 121.322 146.124 120.128 146.124 118.655C146.124 117.182 144.93 115.988 143.457 115.988C141.984 115.988 140.79 117.182 140.79 118.655ZM148.441 102.667L142.984 118.492L143.93 118.818L149.387 102.993L148.441 102.667Z" fill="url(#paint29_diamond_73_43)"/>
<path d="M151.58 102.83C151.58 104.303 150.387 105.496 148.914 105.496C147.441 105.496 146.247 104.303 146.247 102.83C146.247 101.357 147.441 100.163 148.914 100.163C150.387 100.163 151.58 101.357 151.58 102.83ZM157.037 126.295C157.037 127.767 155.843 128.961 154.371 128.961C152.898 128.961 151.704 127.767 151.704 126.295C151.704 124.822 152.898 123.628 154.371 123.628C155.843 123.628 157.037 124.822 157.037 126.295ZM149.401 102.717L154.858 126.181L153.884 126.408L148.427 102.943L149.401 102.717Z" fill="url(#paint30_diamond_73_43)"/>
<path d="M147.769 105.305C149.136 105.853 150.688 105.189 151.236 103.822C151.784 102.455 151.12 100.902 149.752 100.354C148.385 99.8067 146.833 100.471 146.285 101.838C145.737 103.205 146.402 104.757 147.769 105.305ZM160.429 116.257C161.796 116.804 163.348 116.14 163.896 114.773C164.444 113.406 163.78 111.854 162.413 111.306C161.046 110.758 159.493 111.422 158.945 112.789C158.398 114.157 159.062 115.709 160.429 116.257ZM148.434 103.208L161.094 114.159L161.748 113.403L149.088 102.452L148.434 103.208Z" fill="url(#paint31_diamond_73_43)"/>
</g>
<path d="M231.921 85.9132C231.921 87.386 233.115 88.5799 234.588 88.5799C236.061 88.5799 237.255 87.386 237.255 85.9132C237.255 84.4405 236.061 83.2466 234.588 83.2466C233.115 83.2466 231.921 84.4405 231.921 85.9132ZM226.464 101.738C226.464 103.211 227.658 104.405 229.131 104.405C230.604 104.405 231.798 103.211 231.798 101.738C231.798 100.266 230.604 99.0717 229.131 99.0717C227.658 99.0717 226.464 100.266 226.464 101.738ZM234.115 85.7502L228.658 101.575L229.604 101.901L235.061 86.0762L234.115 85.7502Z" fill="url(#paint32_diamond_73_43)"/>
</g>
<path d="M296.647 384.783C296.225 383.372 294.739 382.57 293.328 382.992C291.917 383.414 291.115 384.9 291.537 386.311C291.959 387.722 293.445 388.524 294.856 388.102C296.267 387.68 297.069 386.194 296.647 384.783ZM297.301 368.778C296.88 367.367 295.394 366.565 293.983 366.987C292.572 367.409 291.77 368.895 292.192 370.306C292.614 371.717 294.099 372.519 295.511 372.097C296.922 371.675 297.723 370.189 297.301 368.778ZM294.592 385.567L295.246 369.562L294.247 369.522L293.592 385.526L294.592 385.567Z" fill="url(#paint33_diamond_73_43)"/>
</g>
<defs>
<filter id="filter0_i_73_43" x="136.174" y="147.218" width="208.377" height="211.222" filterUnits="userSpaceOnUse" color-interpolation-filters="sRGB">
<feFlood flood-opacity="0" result="BackgroundImageFix"/>
<feBlend mode="normal" in="SourceGraphic" in2="BackgroundImageFix" result="shape"/>
<feColorMatrix in="SourceAlpha" type="matrix" values="0 0 0 0 0 0 0 0 0 0 0 0 0 0 0 0 0 0 127 0" result="hardAlpha"/>
<feOffset dy="1"/>
<feGaussianBlur stdDeviation="6"/>
<feComposite in2="hardAlpha" operator="arithmetic" k2="-1" k3="1"/>
<feColorMatrix type="matrix" values="0 0 0 0 1 0 0 0 0 1 0 0 0 0 1 0 0 0 0.15 0"/>
<feBlend mode="normal" in2="shape" result="effect1_innerShadow_73_43"/>
</filter>
<filter id="filter1_f_73_43" x="26.8846" y="25.2019" width="426.866" height="433.96" filterUnits="userSpaceOnUse" color-interpolation-filters="sRGB">
<feFlood flood-opacity="0" result="BackgroundImageFix"/>
<feBlend mode="normal" in="SourceGraphic" in2="BackgroundImageFix" result="shape"/>
<feGaussianBlur stdDeviation="28" result="effect1_foregroundBlur_73_43"/>
</filter>
<filter id="filter2_i_73_43" x="193.235" y="211.383" width="79.3317" height="82.34" filterUnits="userSpaceOnUse" color-interpolation-filters="sRGB">
<feFlood flood-opacity="0" result="BackgroundImageFix"/>
<feBlend mode="normal" in="SourceGraphic" in2="BackgroundImageFix" result="shape"/>
<feColorMatrix in="SourceAlpha" type="matrix" values="0 0 0 0 0 0 0 0 0 0 0 0 0 0 0 0 0 0 127 0" result="hardAlpha"/>
<feOffset dy="1"/>
<feGaussianBlur stdDeviation="6"/>
<feComposite in2="hardAlpha" operator="arithmetic" k2="-1" k3="1"/>
<feColorMatrix type="matrix" values="0 0 0 0 1 0 0 0 0 1 0 0 0 0 1 0 0 0 0.15 0"/>
<feBlend mode="normal" in2="shape" result="effect1_innerShadow_73_43"/>
</filter>
<filter id="filter3_i_73_43" x="178.927" y="314.008" width="79.8752" height="61.8275" filterUnits="userSpaceOnUse" color-interpolation-filters="sRGB">
<feFlood flood-opacity="0" result="BackgroundImageFix"/>
<feBlend mode="normal" in="SourceGraphic" in2="BackgroundImageFix" result="shape"/>
<feColorMatrix in="SourceAlpha" type="matrix" values="0 0 0 0 0 0 0 0 0 0 0 0 0 0 0 0 0 0 127 0" result="hardAlpha"/>
<feOffset dy="1"/>
<feGaussianBlur stdDeviation="6"/>
<feComposite in2="hardAlpha" operator="arithmetic" k2="-1" k3="1"/>
<feColorMatrix type="matrix" values="0 0 0 0 1 0 0 0 0 1 0 0 0 0 1 0 0 0 0.15 0"/>
<feBlend mode="normal" in2="shape" result="effect1_innerShadow_73_43"/>
</filter>
<filter id="filter4_i_73_43" x="113.217" y="222.269" width="60.3719" height="83.149" filterUnits="userSpaceOnUse" color-interpolation-filters="sRGB">
<feFlood flood-opacity="0" result="BackgroundImageFix"/>
<feBlend mode="normal" in="SourceGraphic" in2="BackgroundImageFix" result="shape"/>
<feColorMatrix in="SourceAlpha" type="matrix" values="0 0 0 0 0 0 0 0 0 0 0 0 0 0 0 0 0 0 127 0" result="hardAlpha"/>
<feOffset dy="1"/>
<feGaussianBlur stdDeviation="6"/>
<feComposite in2="hardAlpha" operator="arithmetic" k2="-1" k3="1"/>
<feColorMatrix type="matrix" values="0 0 0 0 1 0 0 0 0 1 0 0 0 0 1 0 0 0 0.15 0"/>
<feBlend mode="normal" in2="shape" result="effect1_innerShadow_73_43"/>
</filter>
<filter id="filter5_i_73_43" x="279.891" y="139.397" width="69.5204" height="79.5149" filterUnits="userSpaceOnUse" color-interpolation-filters="sRGB">
<feFlood flood-opacity="0" result="BackgroundImageFix"/>
<feBlend mode="normal" in="SourceGraphic" in2="BackgroundImageFix" result="shape"/>
<feColorMatrix in="SourceAlpha" type="matrix" values="0 0 0 0 0 0 0 0 0 0 0 0 0 0 0 0 0 0 127 0" result="hardAlpha"/>
<feOffset dy="1"/>
<feGaussianBlur stdDeviation="6"/>
<feComposite in2="hardAlpha" operator="arithmetic" k2="-1" k3="1"/>
<feColorMatrix type="matrix" values="0 0 0 0 1 0 0 0 0 1 0 0 0 0 1 0 0 0 0.15 0"/>
<feBlend mode="normal" in2="shape" result="effect1_innerShadow_73_43"/>
</filter>
<filter id="filter6_i_73_43" x="293.5" y="263.774" width="64.2357" height="81.7509" filterUnits="userSpaceOnUse" color-interpolation-filters="sRGB">
<feFlood flood-opacity="0" result="BackgroundImageFix"/>
<feBlend mode="normal" in="SourceGraphic" in2="BackgroundImageFix" result="shape"/>
<feColorMatrix in="SourceAlpha" type="matrix" values="0 0 0 0 0 0 0 0 0 0 0 0 0 0 0 0 0 0 127 0" result="hardAlpha"/>
<feOffset dy="1"/>
<feGaussianBlur stdDeviation="6"/>
<feComposite in2="hardAlpha" operator="arithmetic" k2="-1" k3="1"/>
<feColorMatrix type="matrix" values="0 0 0 0 1 0 0 0 0 1 0 0 0 0 1 0 0 0 0.15 0"/>
<feBlend mode="normal" in2="shape" result="effect1_innerShadow_73_43"/>
</filter>
<filter id="filter7_i_73_43" x="155.563" y="126.77" width="82.7957" height="67.9419" filterUnits="userSpaceOnUse" color-interpolation-filters="sRGB">
<feFlood flood-opacity="0" result="BackgroundImageFix"/>
<feBlend mode="normal" in="SourceGraphic" in2="BackgroundImageFix" result="shape"/>
<feColorMatrix in="SourceAlpha" type="matrix" values="0 0 0 0 0 0 0 0 0 0 0 0 0 0 0 0 0 0 127 0" result="hardAlpha"/>
<feOffset dy="1"/>
<feGaussianBlur stdDeviation="6"/>
<feComposite in2="hardAlpha" operator="arithmetic" k2="-1" k3="1"/>
<feColorMatrix type="matrix" values="0 0 0 0 1 0 0 0 0 1 0 0 0 0 1 0 0 0 0.15 0"/>
<feBlend mode="normal" in2="shape" result="effect1_innerShadow_73_43"/>
</filter>
<filter id="filter8_i_73_43" x="96.5255" y="110.729" width="279.322" height="280.322" filterUnits="userSpaceOnUse" color-interpolation-filters="sRGB">
<feFlood flood-opacity="0" result="BackgroundImageFix"/>
<feBlend mode="normal" in="SourceGraphic" in2="BackgroundImageFix" result="shape"/>
<feColorMatrix in="SourceAlpha" type="matrix" values="0 0 0 0 0 0 0 0 0 0 0 0 0 0 0 0 0 0 127 0" result="hardAlpha"/>
<feOffset dy="1"/>
<feGaussianBlur stdDeviation="6"/>
<feComposite in2="hardAlpha" operator="arithmetic" k2="-1" k3="1"/>
<feColorMatrix type="matrix" values="0 0 0 0 1 0 0 0 0 1 0 0 0 0 1 0 0 0 0.15 0"/>
<feBlend mode="normal" in2="shape" result="effect1_innerShadow_73_43"/>
</filter>
<filter id="filter9_i_73_43" x="87.707" y="102.314" width="297.285" height="297.583" filterUnits="userSpaceOnUse" color-interpolation-filters="sRGB">
<feFlood flood-opacity="0" result="BackgroundImageFix"/>
<feBlend mode="normal" in="SourceGraphic" in2="BackgroundImageFix" result="shape"/>
<feColorMatrix in="SourceAlpha" type="matrix" values="0 0 0 0 0 0 0 0 0 0 0 0 0 0 0 0 0 0 127 0" result="hardAlpha"/>
<feOffset dy="1"/>
<feGaussianBlur stdDeviation="6"/>
<feComposite in2="hardAlpha" operator="arithmetic" k2="-1" k3="1"/>
<feColorMatrix type="matrix" values="0 0 0 0 1 0 0 0 0 1 0 0 0 0 1 0 0 0 0.15 0"/>
<feBlend mode="normal" in2="shape" result="effect1_innerShadow_73_43"/>
</filter>
<filter id="filter10_f_73_43" x="72.7605" y="64.046" width="337.406" height="354.539" filterUnits="userSpaceOnUse" color-interpolation-filters="sRGB">
<feFlood flood-opacity="0" result="BackgroundImageFix"/>
<feBlend mode="normal" in="SourceGraphic" in2="BackgroundImageFix" result="shape"/>
<feGaussianBlur stdDeviation="1" result="effect1_foregroundBlur_73_43"/>
</filter>
<filter id="filter11_f_73_43" x="345.161" y="257.927" width="65.0054" height="53.7142" filterUnits="userSpaceOnUse" color-interpolation-filters="sRGB">
<feFlood flood-opacity="0" result="BackgroundImageFix"/>
<feBlend mode="normal" in="SourceGraphic" in2="BackgroundImageFix" result="shape"/>
<feGaussianBlur stdDeviation="1" result="effect1_foregroundBlur_73_43"/>
</filter>
<filter id="filter12_f_73_43" x="249.37" y="367.756" width="33.6938" height="50.8293" filterUnits="userSpaceOnUse" color-interpolation-filters="sRGB">
<feFlood flood-opacity="0" result="BackgroundImageFix"/>
<feBlend mode="normal" in="SourceGraphic" in2="BackgroundImageFix" result="shape"/>
<feGaussianBlur stdDeviation="1" result="effect1_foregroundBlur_73_43"/>
</filter>
<filter id="filter13_f_73_43" x="347.559" y="283.41" width="36.8387" height="39.7519" filterUnits="userSpaceOnUse" color-interpolation-filters="sRGB">
<feFlood flood-opacity="0" result="BackgroundImageFix"/>
<feBlend mode="normal" in="SourceGraphic" in2="BackgroundImageFix" result="shape"/>
<feGaussianBlur stdDeviation="1" result="effect1_foregroundBlur_73_43"/>
</filter>
<filter id="filter14_f_73_43" x="364.327" y="235.894" width="32.4775" height="32.8537" filterUnits="userSpaceOnUse" color-interpolation-filters="sRGB">
<feFlood flood-opacity="0" result="BackgroundImageFix"/>
<feBlend mode="normal" in="SourceGraphic" in2="BackgroundImageFix" result="shape"/>
<feGaussianBlur stdDeviation="1" result="effect1_foregroundBlur_73_43"/>
</filter>
<filter id="filter15_f_73_43" x="301.591" y="333.403" width="39.0068" height="46.5549" filterUnits="userSpaceOnUse" color-interpolation-filters="sRGB">
<feFlood flood-opacity="0" result="BackgroundImageFix"/>
<feBlend mode="normal" in="SourceGraphic" in2="BackgroundImageFix" result="shape"/>
<feGaussianBlur stdDeviation="1" result="effect1_foregroundBlur_73_43"/>
</filter>
<filter id="filter16_f_73_43" x="183.654" y="371.738" width="39.0067" height="46.5549" filterUnits="userSpaceOnUse" color-interpolation-filters="sRGB">
<feFlood flood-opacity="0" result="BackgroundImageFix"/>
<feBlend mode="normal" in="SourceGraphic" in2="BackgroundImageFix" result="shape"/>
<feGaussianBlur stdDeviation="1" result="effect1_foregroundBlur_73_43"/>
</filter>
<filter id="filter17_f_73_43" x="352.586" y="114.544" width="25.056" height="31.4982" filterUnits="userSpaceOnUse" color-interpolation-filters="sRGB">
<feFlood flood-opacity="0" result="BackgroundImageFix"/>
<feBlend mode="normal" in="SourceGraphic" in2="BackgroundImageFix" result="shape"/>
<feGaussianBlur stdDeviation="1" result="effect1_foregroundBlur_73_43"/>
</filter>
<filter id="filter18_f_73_43" x="376.198" y="211.789" width="28.3158" height="24.2974" filterUnits="userSpaceOnUse" color-interpolation-filters="sRGB">
<feFlood flood-opacity="0" result="BackgroundImageFix"/>
<feBlend mode="normal" in="SourceGraphic" in2="BackgroundImageFix" result="shape"/>
<feGaussianBlur stdDeviation="1" result="effect1_foregroundBlur_73_43"/>
</filter>
<filter id="filter19_f_73_43" x="230.459" y="381.109" width="25.056" height="31.4982" filterUnits="userSpaceOnUse" color-interpolation-filters="sRGB">
<feFlood flood-opacity="0" result="BackgroundImageFix"/>
<feBlend mode="normal" in="SourceGraphic" in2="BackgroundImageFix" result="shape"/>
<feGaussianBlur stdDeviation="1" result="effect1_foregroundBlur_73_43"/>
</filter>
<filter id="filter20_f_73_43" x="339.308" y="362.497" width="9.98938" height="25.3395" filterUnits="userSpaceOnUse" color-interpolation-filters="sRGB">
<feFlood flood-opacity="0" result="BackgroundImageFix"/>
<feBlend mode="normal" in="SourceGraphic" in2="BackgroundImageFix" result="shape"/>
<feGaussianBlur stdDeviation="1" result="effect1_foregroundBlur_73_43"/>
</filter>
<filter id="filter21_f_73_43" x="72.7605" y="64.046" width="300.417" height="323.302" filterUnits="userSpaceOnUse" color-interpolation-filters="sRGB">
<feFlood flood-opacity="0" result="BackgroundImageFix"/>
<feBlend mode="normal" in="SourceGraphic" in2="BackgroundImageFix" result="shape"/>
<feGaussianBlur stdDeviation="1" result="effect1_foregroundBlur_73_43"/>
</filter>
<filter id="filter22_f_73_43" x="82.0983" y="142.425" width="76.8788" height="38.6801" filterUnits="userSpaceOnUse" color-interpolation-filters="sRGB">
<feFlood flood-opacity="0" result="BackgroundImageFix"/>
<feBlend mode="normal" in="SourceGraphic" in2="BackgroundImageFix" result="shape"/>
<feGaussianBlur stdDeviation="1" result="effect1_foregroundBlur_73_43"/>
</filter>
<filter id="filter23_f_73_43" x="242.534" y="64.046" width="44.6021" height="45.158" filterUnits="userSpaceOnUse" color-interpolation-filters="sRGB">
<feFlood flood-opacity="0" result="BackgroundImageFix"/>
<feBlend mode="normal" in="SourceGraphic" in2="BackgroundImageFix" result="shape"/>
<feGaussianBlur stdDeviation="1" result="effect1_foregroundBlur_73_43"/>
</filter>
<filter id="filter24_f_73_43" x="120.782" y="127.708" width="35.4076" height="38.4337" filterUnits="userSpaceOnUse" color-interpolation-filters="sRGB">
<feFlood flood-opacity="0" result="BackgroundImageFix"/>
<feBlend mode="normal" in="SourceGraphic" in2="BackgroundImageFix" result="shape"/>
<feGaussianBlur stdDeviation="1" result="effect1_foregroundBlur_73_43"/>
</filter>
<filter id="filter25_f_73_43" x="90.671" y="173.598" width="35.9918" height="38.8174" filterUnits="userSpaceOnUse" color-interpolation-filters="sRGB">
<feFlood flood-opacity="0" result="BackgroundImageFix"/>
<feBlend mode="normal" in="SourceGraphic" in2="BackgroundImageFix" result="shape"/>
<feGaussianBlur stdDeviation="1" result="effect1_foregroundBlur_73_43"/>
</filter>
<filter id="filter26_f_73_43" x="173.715" y="87.8725" width="50.2607" height="41.1618" filterUnits="userSpaceOnUse" color-interpolation-filters="sRGB">
<feFlood flood-opacity="0" result="BackgroundImageFix"/>
<feBlend mode="normal" in="SourceGraphic" in2="BackgroundImageFix" result="shape"/>
<feGaussianBlur stdDeviation="1" result="effect1_foregroundBlur_73_43"/>
</filter>
<filter id="filter27_f_73_43" x="303.512" y="84.7982" width="50.2609" height="41.1618" filterUnits="userSpaceOnUse" color-interpolation-filters="sRGB">
<feFlood flood-opacity="0" result="BackgroundImageFix"/>
<feBlend mode="normal" in="SourceGraphic" in2="BackgroundImageFix" result="shape"/>
<feGaussianBlur stdDeviation="1" result="effect1_foregroundBlur_73_43"/>
</filter>
<filter id="filter28_f_73_43" x="72.7605" y="302.253" width="23.2603" height="36.0292" filterUnits="userSpaceOnUse" color-interpolation-filters="sRGB">
<feFlood flood-opacity="0" result="BackgroundImageFix"/>
<feBlend mode="normal" in="SourceGraphic" in2="BackgroundImageFix" result="shape"/>
<feGaussianBlur stdDeviation="1" result="effect1_foregroundBlur_73_43"/>
</filter>
<filter id="filter29_f_73_43" x="116.962" y="335.741" width="23.2603" height="36.0292" filterUnits="userSpaceOnUse" color-interpolation-filters="sRGB">
<feFlood flood-opacity="0" result="BackgroundImageFix"/>
<feBlend mode="normal" in="SourceGraphic" in2="BackgroundImageFix" result="shape"/>
<feGaussianBlur stdDeviation="1" result="effect1_foregroundBlur_73_43"/>
</filter>
<filter id="filter30_f_73_43" x="76.13" y="205.423" width="25.462" height="28.208" filterUnits="userSpaceOnUse" color-interpolation-filters="sRGB">
<feFlood flood-opacity="0" result="BackgroundImageFix"/>
<feBlend mode="normal" in="SourceGraphic" in2="BackgroundImageFix" result="shape"/>
<feGaussianBlur stdDeviation="1" result="effect1_foregroundBlur_73_43"/>
</filter>
<filter id="filter31_f_73_43" x="275.214" y="71.9698" width="23.2603" height="36.0292" filterUnits="userSpaceOnUse" color-interpolation-filters="sRGB">
<feFlood flood-opacity="0" result="BackgroundImageFix"/>
<feBlend mode="normal" in="SourceGraphic" in2="BackgroundImageFix" result="shape"/>
<feGaussianBlur stdDeviation="1" result="effect1_foregroundBlur_73_43"/>
</filter>
<filter id="filter32_f_73_43" x="173.715" y="68.6956" width="14.7903" height="25.1585" filterUnits="userSpaceOnUse" color-interpolation-filters="sRGB">
<feFlood flood-opacity="0" result="BackgroundImageFix"/>
<feBlend mode="normal" in="SourceGraphic" in2="BackgroundImageFix" result="shape"/>
<feGaussianBlur stdDeviation="1" result="effect1_foregroundBlur_73_43"/>
</filter>
<filter id="filter33_f_73_43" x="138.79" y="98.1624" width="27.2979" height="32.7989" filterUnits="userSpaceOnUse" color-interpolation-filters="sRGB">
<feFlood flood-opacity="0" result="BackgroundImageFix"/>
<feBlend mode="normal" in="SourceGraphic" in2="BackgroundImageFix" result="shape"/>
<feGaussianBlur stdDeviation="1" result="effect1_foregroundBlur_73_43"/>
</filter>
<linearGradient id="paint0_linear_73_43" x1="363.517" y1="361.512" x2="200.384" y2="389.08" gradientUnits="userSpaceOnUse">
<stop stop-color="#E500A4"/>
<stop offset="1" stop-color="#8900F2"/>
</linearGradient>
<linearGradient id="paint1_linear_73_43" x1="401.373" y1="267.537" x2="403.289" y2="270.545" gradientUnits="userSpaceOnUse">
<stop stop-color="#E500A4"/>
<stop offset="1" stop-color="#8900F2"/>
</linearGradient>
<radialGradient id="paint2_diamond_73_43" cx="0" cy="0" r="1" gradientUnits="userSpaceOnUse" gradientTransform="translate(372.524 130.959) rotate(86.8257) scale(12.3042 5.94523)">
<stop stop-color="#6A00F4"/>
<stop offset="1" stop-color="#B100E8"/>
</radialGradient>
<radialGradient id="paint3_diamond_73_43" cx="0" cy="0" r="1" gradientUnits="userSpaceOnUse" gradientTransform="translate(365.214 133.145) rotate(54.8106) scale(12.6208 8.11458)">
<stop stop-color="#6A00F4"/>
<stop offset="1" stop-color="#B100E8"/>
</radialGradient>
<radialGradient id="paint4_diamond_73_43" cx="0" cy="0" r="1" gradientUnits="userSpaceOnUse" gradientTransform="translate(362.9 121.063) rotate(28.1867) scale(12.6104 8.12125)">
<stop stop-color="#6A00F4"/>
<stop offset="1" stop-color="#B100E8"/>
</radialGradient>
<radialGradient id="paint5_diamond_73_43" cx="0" cy="0" r="1" gradientUnits="userSpaceOnUse" gradientTransform="translate(385.238 226.171) rotate(-118.458) scale(12.3046 5.94508)">
<stop stop-color="#6A00F4"/>
<stop offset="1" stop-color="#B100E8"/>
</radialGradient>
<radialGradient id="paint6_diamond_73_43" cx="0" cy="0" r="1" gradientUnits="userSpaceOnUse" gradientTransform="translate(393.163 225.473) rotate(-141.123) scale(17.9614 6.03885)">
<stop stop-color="#6A00F4"/>
<stop offset="1" stop-color="#B100E8"/>
</radialGradient>
<radialGradient id="paint7_diamond_73_43" cx="0" cy="0" r="1" gradientUnits="userSpaceOnUse" gradientTransform="translate(391.256 216.342) rotate(173.374) scale(12.2813 5.95637)">
<stop stop-color="#6A00F4"/>
<stop offset="1" stop-color="#B100E8"/>
</radialGradient>
<radialGradient id="paint8_diamond_73_43" cx="0" cy="0" r="1" gradientUnits="userSpaceOnUse" gradientTransform="translate(250.398 397.524) rotate(86.8257) scale(12.3042 5.94523)">
<stop stop-color="#6A00F4"/>
<stop offset="1" stop-color="#B100E8"/>
</radialGradient>
<radialGradient id="paint9_diamond_73_43" cx="0" cy="0" r="1" gradientUnits="userSpaceOnUse" gradientTransform="translate(243.087 399.71) rotate(54.8106) scale(12.6208 8.11458)">
<stop stop-color="#6A00F4"/>
<stop offset="1" stop-color="#B100E8"/>
</radialGradient>
<radialGradient id="paint10_diamond_73_43" cx="0" cy="0" r="1" gradientUnits="userSpaceOnUse" gradientTransform="translate(240.773 387.629) rotate(28.1867) scale(12.6104 8.12125)">
<stop stop-color="#6A00F4"/>
<stop offset="1" stop-color="#B100E8"/>
</radialGradient>
<radialGradient id="paint11_diamond_73_43" cx="0" cy="0" r="1" gradientUnits="userSpaceOnUse" gradientTransform="translate(344.179 372.753) rotate(86.8257) scale(12.3042 5.94523)">
<stop stop-color="#6A00F4"/>
<stop offset="1" stop-color="#B100E8"/>
</radialGradient>
<radialGradient id="paint12_diamond_73_43" cx="0" cy="0" r="1" gradientUnits="userSpaceOnUse" gradientTransform="translate(368.06 336.175) rotate(86.8257) scale(12.3042 5.94523)">
<stop stop-color="#6A00F4"/>
<stop offset="1" stop-color="#B100E8"/>
</radialGradient>
<radialGradient id="paint13_diamond_73_43" cx="0" cy="0" r="1" gradientUnits="userSpaceOnUse" gradientTransform="translate(360.595 333.408) rotate(64.1743) scale(17.9723 6.0352)">
<stop stop-color="#6A00F4"/>
<stop offset="1" stop-color="#B100E8"/>
</radialGradient>
<radialGradient id="paint14_diamond_73_43" cx="0" cy="0" r="1" gradientUnits="userSpaceOnUse" gradientTransform="translate(358.419 342.475) rotate(18.743) scale(12.2889 5.95266)">
<stop stop-color="#6A00F4"/>
<stop offset="1" stop-color="#B100E8"/>
</radialGradient>
<linearGradient id="paint15_linear_73_43" x1="91.5974" y1="171.97" x2="90.6113" y2="168.542" gradientUnits="userSpaceOnUse">
<stop stop-color="#E500A4"/>
<stop offset="1" stop-color="#8900F2"/>
</linearGradient>
<radialGradient id="paint16_diamond_73_43" cx="0" cy="0" r="1" gradientUnits="userSpaceOnUse" gradientTransform="translate(79.5559 317.285) rotate(-76.5005) scale(12.8571 6.22369)">
<stop stop-color="#6A00F4"/>
<stop offset="1" stop-color="#B100E8"/>
</radialGradient>
<radialGradient id="paint17_diamond_73_43" cx="0" cy="0" r="1" gradientUnits="userSpaceOnUse" gradientTransform="translate(87.5449 317.285) rotate(-108.577) scale(13.1891 8.49383)">
<stop stop-color="#6A00F4"/>
<stop offset="1" stop-color="#B100E8"/>
</radialGradient>
<radialGradient id="paint18_diamond_73_43" cx="0" cy="0" r="1" gradientUnits="userSpaceOnUse" gradientTransform="translate(86.2418 330.072) rotate(-135.225) scale(13.1891 8.49383)">
<stop stop-color="#6A00F4"/>
<stop offset="1" stop-color="#B100E8"/>
</radialGradient>
<radialGradient id="paint19_diamond_73_43" cx="0" cy="0" r="1" gradientUnits="userSpaceOnUse" gradientTransform="translate(123.757 350.773) rotate(-76.5005) scale(12.8571 6.22369)">
<stop stop-color="#6A00F4"/>
<stop offset="1" stop-color="#B100E8"/>
</radialGradient>
<radialGradient id="paint20_diamond_73_43" cx="0" cy="0" r="1" gradientUnits="userSpaceOnUse" gradientTransform="translate(131.746 350.773) rotate(-108.577) scale(13.1891 8.49383)">
<stop stop-color="#6A00F4"/>
<stop offset="1" stop-color="#B100E8"/>
</radialGradient>
<radialGradient id="paint21_diamond_73_43" cx="0" cy="0" r="1" gradientUnits="userSpaceOnUse" gradientTransform="translate(130.443 363.559) rotate(-135.225) scale(13.1891 8.49383)">
<stop stop-color="#6A00F4"/>
<stop offset="1" stop-color="#B100E8"/>
</radialGradient>
<radialGradient id="paint22_diamond_73_43" cx="0" cy="0" r="1" gradientUnits="userSpaceOnUse" gradientTransform="translate(95.3602 218.171) rotate(78.1663) scale(12.8571 6.22369)">
<stop stop-color="#6A00F4"/>
<stop offset="1" stop-color="#B100E8"/>
</radialGradient>
<radialGradient id="paint23_diamond_73_43" cx="0" cy="0" r="1" gradientUnits="userSpaceOnUse" gradientTransform="translate(87.2019 216.497) rotate(55.4699) scale(18.7787 6.31825)">
<stop stop-color="#6A00F4"/>
<stop offset="1" stop-color="#B100E8"/>
</radialGradient>
<radialGradient id="paint24_diamond_73_43" cx="0" cy="0" r="1" gradientUnits="userSpaceOnUse" gradientTransform="translate(86.3761 226.208) rotate(10.0017) scale(12.8571 6.22369)">
<stop stop-color="#6A00F4"/>
<stop offset="1" stop-color="#B100E8"/>
</radialGradient>
<radialGradient id="paint25_diamond_73_43" cx="0" cy="0" r="1" gradientUnits="userSpaceOnUse" gradientTransform="translate(282.009 87.0019) rotate(-76.5005) scale(12.8571 6.22369)">
<stop stop-color="#6A00F4"/>
<stop offset="1" stop-color="#B100E8"/>
</radialGradient>
<radialGradient id="paint26_diamond_73_43" cx="0" cy="0" r="1" gradientUnits="userSpaceOnUse" gradientTransform="translate(289.998 87.0019) rotate(-108.577) scale(13.1891 8.49383)">
<stop stop-color="#6A00F4"/>
<stop offset="1" stop-color="#B100E8"/>
</radialGradient>
<radialGradient id="paint27_diamond_73_43" cx="0" cy="0" r="1" gradientUnits="userSpaceOnUse" gradientTransform="translate(288.695 99.7882) rotate(-135.225) scale(13.1891 8.49383)">
<stop stop-color="#6A00F4"/>
<stop offset="1" stop-color="#B100E8"/>
</radialGradient>
<radialGradient id="paint28_diamond_73_43" cx="0" cy="0" r="1" gradientUnits="userSpaceOnUse" gradientTransform="translate(180.51 83.7278) rotate(-76.5005) scale(12.8571 6.22369)">
<stop stop-color="#6A00F4"/>
<stop offset="1" stop-color="#B100E8"/>
</radialGradient>
<radialGradient id="paint29_diamond_73_43" cx="0" cy="0" r="1" gradientUnits="userSpaceOnUse" gradientTransform="translate(145.585 113.195) rotate(-76.5005) scale(12.8571 6.22369)">
<stop stop-color="#6A00F4"/>
<stop offset="1" stop-color="#B100E8"/>
</radialGradient>
<radialGradient id="paint30_diamond_73_43" cx="0" cy="0" r="1" gradientUnits="userSpaceOnUse" gradientTransform="translate(152.243 118.199) rotate(-99.1968) scale(18.7787 6.31825)">
<stop stop-color="#6A00F4"/>
<stop offset="1" stop-color="#B100E8"/>
</radialGradient>
<radialGradient id="paint31_diamond_73_43" cx="0" cy="0" r="1" gradientUnits="userSpaceOnUse" gradientTransform="translate(157.144 109.775) rotate(-144.665) scale(12.8571 6.22369)">
<stop stop-color="#6A00F4"/>
<stop offset="1" stop-color="#B100E8"/>
</radialGradient>
<radialGradient id="paint32_diamond_73_43" cx="0" cy="0" r="1" gradientUnits="userSpaceOnUse" gradientTransform="translate(231.259 96.2787) rotate(-76.5005) scale(12.8571 6.22369)">
<stop stop-color="#6A00F4"/>
<stop offset="1" stop-color="#B100E8"/>
</radialGradient>
<radialGradient id="paint33_diamond_73_43" cx="0" cy="0" r="1" gradientUnits="userSpaceOnUse" gradientTransform="translate(294.296 375.131) rotate(86.8257) scale(12.3042 5.94523)">
<stop stop-color="#6A00F4"/>
<stop offset="1" stop-color="#B100E8"/>
</radialGradient>
</defs>
</svg>
