<svg width="395" height="585" viewBox="0 0 395 585" fill="none" xmlns="http://www.w3.org/2000/svg">
<g filter="url(#filter0_f_121_45)">
<path d="M118.311 32.2989C137.138 27.7301 148.12 26.5177 167.489 25.4231C180.763 24.6731 188.244 25.0806 201.535 25.4231C218.105 25.8502 227.454 25.8975 243.904 27.8788C261.424 29.989 271.402 31.2165 288.29 36.2279C297.072 38.8341 308.136 43.4216 316.292 47.0117C323.279 50.0871 327.248 57.1583 329.247 64.5257C332.176 75.3183 339.193 84.1454 351.195 88.8434C361.197 92.7589 370 100.954 370 111.695V475.779C370 477.253 369.847 478.724 369.443 480.142C368.955 481.852 368.176 484.223 367.226 485.855C364.615 490.34 361.765 492.037 357.39 494.941C353.241 497.696 350.406 498.418 345.79 500.343C335.884 504.476 329.824 505.492 319.561 508.693C305.025 513.225 296.695 515.223 282.237 519.989C268.632 524.473 271.542 522.408 247.686 532.267C228.471 540.208 209.122 554.157 201.136 559.154C198.835 560.594 196.281 560.31 193.917 558.977L147.507 532.802C146.874 532.446 146.234 532.128 145.563 531.849C141.562 530.185 125.907 523.834 106.458 518.024C83.8436 511.268 85.2346 510.976 71.4035 507.219C64.6388 505.382 60.6228 505.081 54.0022 502.799C48.8956 501.039 41.957 497.709 38.9055 496.205C37.8703 495.694 36.8932 495.088 35.9929 494.366C34.3141 493.019 31.4795 490.627 29.7917 488.556C28.9303 487.5 28.0355 486.119 27.2556 484.81C25.676 482.16 25 479.093 25 476.007V110.521C25 100.578 32.4763 92.5852 41.8706 89.3289C56.3426 84.3125 62.9889 75.9283 65.5524 63.4784C67.1053 55.937 71.3301 48.9704 78.4585 46.0599C89.2826 41.6404 105.626 35.3774 118.311 32.2989Z" fill="#14032F"/>
<path d="M118.311 32.2989C137.138 27.7301 148.12 26.5177 167.489 25.4231C180.763 24.6731 188.244 25.0806 201.535 25.4231C218.105 25.8502 227.454 25.8975 243.904 27.8788C261.424 29.989 271.402 31.2165 288.29 36.2279C297.072 38.8341 308.136 43.4216 316.292 47.0117C323.279 50.0871 327.248 57.1583 329.247 64.5257C332.176 75.3183 339.193 84.1454 351.195 88.8434C361.197 92.7589 370 100.954 370 111.695V475.779C370 477.253 369.847 478.724 369.443 480.142C368.955 481.852 368.176 484.223 367.226 485.855C364.615 490.34 361.765 492.037 357.39 494.941C353.241 497.696 350.406 498.418 345.79 500.343C335.884 504.476 329.824 505.492 319.561 508.693C305.025 513.225 296.695 515.223 282.237 519.989C268.632 524.473 271.542 522.408 247.686 532.267C228.471 540.208 209.122 554.157 201.136 559.154C198.835 560.594 196.281 560.31 193.917 558.977L147.507 532.802C146.874 532.446 146.234 532.128 145.563 531.849C141.562 530.185 125.907 523.834 106.458 518.024C83.8436 511.268 85.2346 510.976 71.4035 507.219C64.6388 505.382 60.6228 505.081 54.0022 502.799C48.8956 501.039 41.957 497.709 38.9055 496.205C37.8703 495.694 36.8932 495.088 35.9929 494.366C34.3141 493.019 31.4795 490.627 29.7917 488.556C28.9303 487.5 28.0355 486.119 27.2556 484.81C25.676 482.16 25 479.093 25 476.007V110.521C25 100.578 32.4763 92.5852 41.8706 89.3289C56.3426 84.3125 62.9889 75.9283 65.5524 63.4784C67.1053 55.937 71.3301 48.9704 78.4585 46.0599C89.2826 41.6404 105.626 35.3774 118.311 32.2989Z" stroke="#F20089" stroke-width="9"/>
</g>
<path d="M118.311 32.2989C137.138 27.7301 148.12 26.5177 167.489 25.4231C180.763 24.6731 188.244 25.0806 201.535 25.4231C218.105 25.8502 227.454 25.8975 243.904 27.8788C261.424 29.989 271.402 31.2165 288.29 36.2279C297.072 38.8341 308.136 43.4216 316.292 47.0117C323.279 50.0871 327.248 57.1583 329.247 64.5257C332.176 75.3183 339.193 84.1454 351.195 88.8434C361.197 92.7589 370 100.954 370 111.695V475.779C370 477.253 369.847 478.724 369.443 480.142C368.955 481.852 368.176 484.223 367.226 485.855C364.615 490.34 361.765 492.037 357.39 494.941C353.241 497.696 350.406 498.418 345.79 500.343C335.884 504.476 329.824 505.492 319.561 508.693C305.025 513.225 296.695 515.223 282.237 519.989C268.632 524.473 271.542 522.408 247.686 532.267C228.471 540.208 209.122 554.157 201.136 559.154C198.835 560.594 196.281 560.31 193.917 558.977L147.507 532.802C146.874 532.446 146.234 532.128 145.563 531.849C141.562 530.185 125.907 523.834 106.458 518.024C83.8436 511.268 85.2346 510.976 71.4035 507.219C64.6388 505.382 60.6228 505.081 54.0022 502.799C48.8956 501.039 41.957 497.709 38.9055 496.205C37.8703 495.694 36.8932 495.088 35.9929 494.366C34.3141 493.019 31.4795 490.627 29.7917 488.556C28.9303 487.5 28.0355 486.119 27.2556 484.81C25.676 482.16 25 479.093 25 476.007V110.521C25 100.578 32.4763 92.5852 41.8706 89.3289C56.3426 84.3125 62.9889 75.9283 65.5524 63.4784C67.1053 55.937 71.3301 48.9704 78.4585 46.0599C89.2826 41.6404 105.626 35.3774 118.311 32.2989Z" stroke="white" stroke-width="7"/>
<defs>
<filter id="filter0_f_121_45" x="0.5" y="0.500122" width="394" height="584.114" filterUnits="userSpaceOnUse" color-interpolation-filters="sRGB">
<feFlood flood-opacity="0" result="BackgroundImageFix"/>
<feBlend mode="normal" in="SourceGraphic" in2="BackgroundImageFix" result="shape"/>
<feGaussianBlur stdDeviation="10" result="effect1_foregroundBlur_121_45"/>
</filter>
</defs>
</svg>
