<svg width="2033" height="458" viewBox="0 0 2033 458" fill="none" xmlns="http://www.w3.org/2000/svg">
<path d="M334.586 79.9136C1027.59 256.914 1270.09 -88.0864 1797.59 89.4135C2325.09 266.913 1797.59 421.414 1797.59 421.414C1797.59 421.414 1406.59 339.914 1066.09 421.414C725.587 502.914 350.586 421.414 334.586 421.414C318.586 421.414 -358.414 -97.0864 334.586 79.9136Z" fill="url(#paint0_linear_410_810)"/>
<path d="M316.586 47.9136C1009.59 224.914 1252.09 -120.086 1779.59 57.4135C2307.09 234.913 1779.59 389.414 1779.59 389.414C1779.59 389.414 1388.59 307.914 1048.09 389.414C707.587 470.914 332.586 389.414 316.586 389.414C300.586 389.414 -376.414 -129.086 316.586 47.9136Z" stroke="white" stroke-width="10"/>
<defs>
<linearGradient id="paint0_linear_410_810" x1="23" y1="107.106" x2="225.13" y2="911.614" gradientUnits="userSpaceOnUse">
<stop stop-color="#A100F2"/>
<stop offset="0.498015" stop-color="#D100D1"/>
<stop offset="1" stop-color="#F20089"/>
</linearGradient>
</defs>
</svg>